<?xml version="1.0" encoding="UTF-8" standalone="no"?>
<svg width="379px" height="76px" viewBox="0 0 379 76" version="1.1" xmlns="http://www.w3.org/2000/svg" xmlns:xlink="http://www.w3.org/1999/xlink" xmlns:sketch="http://www.bohemiancoding.com/sketch/ns">
    <!-- Generator: Sketch 3.2.2 (9983) - http://www.bohemiancoding.com/sketch -->
    <title>ancestry</title>
    <desc>Created with Sketch.</desc>
    <defs></defs>
    <g id="Page-1" stroke="none" stroke-width="1" fill="none" fill-rule="evenodd" sketch:type="MSPage">
        <g id="ancestry" sketch:type="MSLayerGroup" transform="translate(0.000000, 0.080000)" fill="#333333">
            <path d="M47.9262126,35.0763568 C48.0217202,35.0941993 48.1291661,35.1156102 48.2349066,35.1316684 L51.3508395,35.1316684 L56.5270061,35.6134146 L57.2262576,35.6134146 L57.2262576,35.3725415 C56.8766319,35.2476443 56.6498015,35.1316684 56.4212656,35.1316684 C55.9590774,35.0139082 55.9590774,35.0139082 55.5003002,34.655275 L52.8465555,33.5740224 L50.8852403,32.3589515 L47.7761294,30.9119286 C47.6635669,30.9119286 47.3139412,30.6710555 46.8568695,30.1910936 C46.1644399,29.946652 44.3190982,28.1445644 44.3190982,28.1445644 C43.860321,27.8947701 43.746053,27.661034 43.6300796,27.0579591 C42.9427666,26.817086 42.8284986,26.7028943 42.4788729,25.9713538 L42.1326581,25.3718475 C40.5209687,23.6803831 39.6017088,21.6285012 38.3277067,19.8264136 L37.9797864,18.2580621 C37.8655185,18.1438704 37.8655185,17.8958603 37.6386881,17.5336586 C37.6386881,17.289217 37.5175982,17.0501281 37.4135632,16.5719504 L37.062232,16.4434848 C36.8336961,15.9688756 36.7194282,15.6066738 36.6000438,15.3658007 L36.4874814,13.5547919 L35.4471316,9.45638079 L35.6773729,8.49110416 L35.1026223,6.07523624 L35.1026223,4.99576792 L34.5244607,1.97682514 C34.5244607,1.74308903 34.4084873,1.50043169 34.4084873,1.01511701 L34.5244607,0.900925319 C34.9883544,0.900925319 35.3345691,0.900925319 35.566516,1.01511701 C36.7194282,1.01511701 37.6386881,1.01511701 38.7881894,1.13822992 C42.246926,1.2559901 43.2821594,1.38088726 43.5175172,1.38088726 L45.1223847,1.61819187 L48.2349066,1.97682514 L49.9710969,2.46213982 L51.9272956,2.82434158 C52.5003407,2.94567025 52.959118,3.06521468 53.3087437,3.30430353 L54.9170222,4.0304913 L56.0733454,4.51045325 C56.1859078,4.51045325 56.4212656,4.75489483 56.6498015,4.99576792 C57.453088,5.12066508 57.8027137,5.23664102 58.3791698,5.59527429 L60.5673154,6.92275268 L61.3740128,7.64715621 C61.4865753,7.76491639 61.7168166,7.89159779 62.0630314,8.12533391 C62.2949782,8.37512823 62.5252196,8.61600132 62.6394875,8.7337615 L65.6377415,11.3797971 L66.3284656,12.3522107 L67.8258871,13.8010177 L68.745147,15.244472 L70.2391575,16.9270152 L71.1703558,18.374038 L72.6728938,20.9076661 C73.12826,21.7498298 74.3937347,24.1621293 75.0878697,25.6109363 C75.4238516,26.5762129 75.5415305,26.9384147 75.7734773,27.8947701 C76.3567554,28.8636152 76.5852912,29.2293855 76.8121216,30.0751177 L77.5045511,32.9655948 L78.2003917,34.532162 C78.2003917,34.7658982 78.3112486,35.2476443 78.430633,35.8596404 L80.0440279,35.8596404 L80.3851262,35.8596404 C81.1935292,35.9791849 81.3095026,35.8596404 82.8035131,35.8596404 L82.9160756,35.8596404 L84.3043456,35.9791849 L85.6857937,35.9791849 L85.6857937,35.7347433 L85.9126241,35.6134146 C85.8034726,35.2476443 85.8034726,35.0139082 85.8034726,34.8925796 L85.8034726,31.6434692 L85.9126241,27.0579591 C85.9126241,26.9384147 85.8034726,26.2140112 85.8034726,25.2451661 L85.3395789,14.6413972 L85.232133,11.0175953 L84.420319,1.13822992 L84.420319,0.900925319 L84.6471494,0.900925319 L84.7665338,0.41204215 L85.4538469,0.41204215 L86.3799287,0.41204215 L86.835295,0.41204215 L86.5760603,0.900925319 L90.6300135,0.656483734 L91.4350054,0.656483734 L91.6652468,0.770675424 C91.5492734,1.74308903 91.5492734,2.46213982 91.5492734,2.94567025 L91.322443,5.36153818 L91.2047641,11.2673896 L90.9762282,17.1750253 L91.0904962,20.7916902 L90.8670768,25.6109363 L91.0904962,27.8947701 L91.0904962,32.8353449 L90.9762282,33.811327 C90.9762282,34.0522001 90.9762282,34.655275 91.0904962,35.6134146 L91.0904962,38.5163814 L91.2047641,44.9004106 L91.2047641,46.1029918 C91.2047641,46.7096352 91.2047641,47.1895971 91.0904962,47.6713433 L90.8670768,49.8374169 L90.9762282,54.3015982 L90.9762282,56.3516959 L90.9762282,57.9164789 C90.7425759,62.4948519 90.9762282,66.3595269 91.4350054,69.0055625 C91.6652468,70.573914 91.8971936,71.9013923 91.7795147,72.866669 C91.7795147,73.2253022 91.6652468,73.4661753 91.5492734,73.8248086 C91.322443,74.1870104 91.2047641,74.4278835 91.0904962,74.4278835 L86.3799287,74.1870104 L85.232133,74.1870104 C84.8808017,74.1870104 84.534587,73.9532743 84.0775153,73.4661753 L84.0775153,72.2671626 C84.1866667,71.0610129 84.3043456,70.2134964 84.3043456,69.6104216 L84.7665338,66.4719344 C84.7665338,66.3595269 84.8808017,65.9901882 84.8808017,65.5137947 L84.9933642,65.3942503 L84.9933642,65.1533772 L85.3395789,58.885324 C85.3395789,58.885324 85.3395789,58.885324 85.3395789,58.7639953 L85.232133,58.1609205 L85.3395789,57.1920754 L85.4538469,49.9640983 L85.5698203,48.8721403 L85.4538469,47.5553673 L85.6857937,45.0217392 C85.6857937,44.9004106 85.6857937,44.6595375 85.5698203,44.2973357 L85.6857937,44.2973357 C85.5698203,43.819158 85.5698203,43.4498193 85.5698203,42.9662888 C85.5698203,42.7254157 85.5698203,42.1223409 85.6857937,41.5228345 L85.5698203,41.5228345 C84.1866667,41.1570643 83.726184,41.1570643 83.038871,41.1570643 C83.6153271,41.1570643 79.926349,40.9161912 79.8069646,40.9161912 L78.430633,40.9161912 L78.430633,41.8814678 L78.430633,42.370351 L77.5045511,45.5106224 L77.2794263,47.5553673 L75.4238516,53.3398901 L74.8525119,55.7450526 L73.5887427,58.885324 C73.2442335,59.8506006 72.8980187,60.450107 72.7820453,60.5678672 L72.0879102,61.0496134 L71.2846238,62.2593316 L70.130006,63.4601286 L69.3216031,64.787607 C69.2107461,64.9071514 68.630879,65.5137947 67.7099136,66.3595269 L65.746893,68.2829432 C65.6377415,68.2829432 65.4057947,68.5202478 64.8276331,68.8824496 C62.7554609,70.0957363 60.6866998,71.1805573 58.4900268,72.1386969 C54.5742184,73.8248086 51.9272956,74.4278835 46.8568695,75.0309583 C41.4385231,75.6411702 40.8637725,75.6411702 33.9514156,75.6411702 L33.1464236,75.6411702 C33.1464236,74.0692502 33.258986,73.4661753 33.4858164,72.7471245 L33.9514156,71.0610129 L34.4084873,68.1616145 L36.25724,64.314782 L37.062232,61.7775854 C37.1747944,61.5295753 37.2890624,61.4153836 37.8655185,60.450107 C38.3277067,59.729272 38.7881894,59.0030842 39.255494,58.2786807 C39.3680565,58.1609205 39.4823244,57.9164789 39.7040383,57.5507086 C39.9411016,57.0725309 40.1713429,56.7138977 40.2839054,56.5890005 L41.7864434,54.9046731 C41.9041223,54.7797759 42.1326581,54.4247112 42.3594885,53.9465335 C42.8284986,53.5807632 42.9427666,53.455866 43.051918,52.8599282 L43.9745889,51.8875146 L44.3190982,51.7661859 L44.4350716,51.4093369 L44.6653129,51.4093369 C45.2417691,50.6777964 45.356037,50.4404917 46.1644399,49.9640983 C46.5072437,49.4716466 46.7374851,49.3610234 47.3139412,48.8721403 L47.3139412,48.6330514 L47.545888,48.6330514 L47.545888,48.5170755 L47.7761294,48.3921783 L47.7761294,48.2762024 C48.1240496,48.033545 48.3559965,47.9140006 48.4685589,47.785535 L50.8852403,45.8692557 L53.3087437,44.5382088 C53.4213061,44.4168801 53.6549585,44.2973357 53.8851998,44.1724386 L54.0011732,44.0528941 L54.4616559,43.819158 L54.4616559,43.6906924 C55.038112,43.3284906 55.15238,43.3284906 55.6128627,43.3284906 L55.6128627,43.2142989 L55.7271306,43.2142989 C56.3035867,42.370351 56.3035867,42.370351 57.453088,42.0045807 L59.7606179,41.2801772 C59.8782968,41.1570643 60.1051272,41.1570643 60.451342,41.0393041 L60.451342,40.9161912 L59.0733049,40.9161912 L55.5003002,40.798431 L51.4668129,40.9161912 L47.545888,40.9161912 L47.9262126,35.0763568 Z M49.8039587,40.9161912 L49.2257971,40.9161912 C48.9921448,41.1570643 48.8846988,41.2801772 48.7653144,41.2801772 L47.2661874,42.7254157 L44.963774,44.4168801 C44.8546225,44.5382088 44.5015858,44.7826504 44.0445141,45.1412837 C43.3520845,45.9798789 43.3520845,45.9798789 41.6261272,46.8273953 L38.7455521,48.2762024 C37.4732554,48.8721403 36.666558,48.9988217 31.9423466,49.6018965 C29.2954239,49.8374169 28.4870209,49.9640983 27.4517876,49.8374169 C26.065223,49.8374169 23.7662205,49.6018965 21.9242897,49.4716466 C19.7327332,49.1201503 18.3495796,48.7543801 16.3916754,48.033545 L12.4707505,46.3474334 C12.3564826,46.3474334 12.1279467,46.3474334 11.781732,46.220752 C11.3178383,45.8692557 10.9750345,45.6212456 10.7413822,45.5106224 L8.78347798,44.5382088 L8.20872736,44.0528941 C7.86592357,43.6906924 7.28264549,43.4498193 6.59703792,43.2142989 C5.56009911,42.9662888 5.32644678,42.8467444 5.09620543,42.1223409 C4.51633833,41.6388105 3.48622148,41.2801772 3.0240333,40.798431 L1.9836835,40.1989246 L1.9836835,40.0740275 C1.75685314,39.7082572 1.75685314,39.5994183 1.40722739,39.4780896 L1.40722739,39.3531924 L0.834182253,39.1087508 L0.834182253,38.9927749 L0.718208834,38.9927749 C0.603940905,38.5163814 0.487967486,38.3897 0.0257792981,38.0274983 C0.145163701,36.9444615 0.371994066,36.6964514 1.52661179,35.9791849 C1.63576324,35.8596404 1.86771008,35.7347433 2.21392485,35.6134146 L2.21392485,35.3725415 L2.44757718,35.3725415 L2.44757718,35.1316684 L3.0240333,34.8925796 L3.0240333,34.7658982 L3.24915817,34.7658982 L3.24915817,34.532162 L4.28950796,34.0522001 L4.40548138,33.9290872 L4.74657968,33.811327 L4.74657968,33.6899983 L4.97852652,33.6899983 C5.67095605,32.9655948 6.0205818,32.8353449 7.05240414,32.4802801 C7.17008305,32.2358385 7.17008305,32.1216469 7.28264549,32.1216469 L7.98189699,32.0056709 L8.32640627,31.6434692 C8.4406742,31.518572 8.55323663,31.3901063 8.90286238,31.2776989 C9.59358643,30.7870315 9.70273788,30.7870315 11.2052759,30.0751177 L14.5497446,28.7369338 C17.6571501,27.4201609 22.265388,26.4548843 25.0316952,26.5762129 C25.9543661,26.5762129 27.4517876,26.7028943 29.6365221,26.9384147 C32.1759989,27.2988322 32.9792854,27.4201609 33.557447,27.5343526 L36.8967993,28.6263106 L38.8581145,29.1134095 L40.7000453,30.0751177 L42.1991723,30.5497269 C43.1218432,31.0350416 43.9251297,31.518572 44.6175592,32.1216469 C45.4259621,32.7247217 45.8864448,33.2011152 46.0007128,33.2011152 L47.2661874,33.6899983 L49.3417706,34.8925796 C49.4389836,34.9889288 49.7613215,35.0103397 50.1859888,35.0763568 L49.8039587,40.9161912 Z M13.7191703,36.4109722 C13.9187128,36.5287324 14.1267827,36.7499788 14.2257013,36.8677389 L14.6281972,37.4279919 L15.3291542,37.9935976 L16.2313592,39.1194563 L16.5400532,39.1194563 C16.5400532,39.226511 16.6304442,39.3460554 16.7378902,39.4531101 L17.5411767,40.1293391 L18.2404282,40.805568 C18.5423002,41.0250301 18.6429241,41.1374376 18.7418427,41.2587662 L19.6508696,41.5924201 L22.5570271,43.287453 L24.6718365,43.8512744 L27.7826529,44.8629414 L28.8861059,44.9771331 L32.3073218,45.4267629 C32.5170972,45.4267629 32.8121473,45.4267629 33.0099843,45.3090027 C34.2157667,45.3090027 36.1344446,45.0859721 36.8285797,44.743397 C37.0366496,44.743397 37.7376066,44.4115274 38.7421411,43.8512744 C40.2497955,43.1750455 41.1554115,42.7218473 41.351543,42.4988166 L43.0638565,41.1374376 C43.1678914,41.1374376 43.364023,40.9197597 43.659073,40.805568 C43.565271,40.0187159 43.4629415,39.7992537 42.760279,39.226511 L42.663066,39.226511 C42.5607365,38.8964257 42.3594885,38.7768812 42.3594885,38.6698265 L41.7557445,38.2201968 C41.650004,38.1042208 41.455578,37.9935976 41.2560355,37.76343 C40.9507525,37.4279919 40.848423,37.3173687 40.75121,37.2049613 L38.6364006,35.5152811 L38.2339046,34.9478912 L37.0366496,34.2787992 L36.5284132,33.7114093 L35.9297857,33.265348 L33.7160577,32.0235134 C32.5170972,31.2402298 29.1913889,30.2285628 27.0851069,29.9948266 C26.2801149,29.9948266 24.5746235,29.8877719 23.865139,29.8877719 C23.2596895,29.8877719 22.86231,29.9948266 22.6576511,30.1108026 L21.7537406,30.783463 L20.3518266,31.2402298 L16.6304442,33.3795397 C16.5400532,33.4883786 16.3336887,33.5990018 16.1307352,33.7114093 L16.0352277,34.1628233 L14.4218328,35.295819 C13.9187128,35.6276886 13.6185463,35.9649109 13.6185463,36.3039175 L13.7191703,36.4109722 L13.7191703,36.4109722 Z M69.7667364,50.158581 C69.7667364,49.8320642 70.0788413,49.0826812 70.3875353,47.9907232 C70.5921942,47.4518811 70.7934422,46.9148233 70.7934422,46.3670601 L70.7934422,45.2875918 L70.7934422,44.750534 C70.9025937,43.9868771 71.0066287,42.7950013 71.0066287,41.2801772 C68.6274681,41.3872319 67.0754708,41.606694 65.4211441,42.0313444 C63.4547124,42.5826761 60.2449775,43.7781204 59.6275896,44.2063392 L56.3138197,46.5865222 L55.1813733,47.4518811 C55.0807493,47.4518811 54.9715979,47.6713433 54.7669389,47.9907232 L52.4901078,50.3780432 L51.4582855,52.1069767 L49.9011718,54.2748346 L48.6578685,56.3338535 L47.8358216,57.7344859 L47.4196817,58.9263617 L46.9029178,59.8987753 L46.5976348,60.5464562 C46.5976348,60.6588637 46.3878593,60.7659184 46.1832004,60.8747573 C45.9768359,61.6348458 45.8745064,62.0630646 45.6647309,62.3842287 L45.0422266,63.6867277 C44.9433081,64.0078918 44.8341566,64.227354 44.7386491,64.6520043 L44.4265441,66.9340539 L44.1127337,68.2312001 C44.1127337,68.3436075 44.0086987,68.5559327 44.0086987,68.8753126 C44.8341566,69.096559 45.356037,69.2071822 45.7653549,69.2071822 C46.3878593,69.2071822 46.8057047,69.2071822 47.5237166,69.096559 L51.4582855,68.9912885 L52.5992593,68.6629874 L54.7669389,68.2312001 L56.7367816,67.5799506 L57.6679799,67.2516495 L59.7265081,65.959856 L60.451342,65.7403939 C60.9698114,65.5209317 61.2819163,65.1997676 61.5991377,64.8714665 L61.9061262,64.3379772 L64.5905698,61.847171 L65.2096632,60.5464562 C65.2096632,60.3305626 65.833873,59.5776111 66.6627419,58.4910058 C66.7650714,58.3839511 66.9714358,58.1734102 67.1760948,57.9503796 C67.2852463,57.6274312 67.3858703,57.407969 67.3858703,57.2955616 L68.0083747,56.2196618 C68.0083747,56.1072543 68.2147391,55.6790355 68.4262201,54.9225155 C68.5217276,54.5942144 68.7332085,53.0793903 69.5535499,51.3540253 C69.5535499,51.2398336 69.6609959,51.0257242 69.8707713,50.5903683 C69.7667364,50.3780432 69.7667364,50.2709885 69.7667364,50.158581 L69.7667364,50.158581 Z M71.4193576,33.8148955 C71.4193576,33.4883786 71.3170281,33.0548071 71.1123691,32.4106946 C70.7934422,31.5435514 70.5921942,30.8976547 70.5921942,30.5675693 C70.3875353,30.0305115 70.2800893,29.7022104 70.2800893,29.5987242 L69.6609959,28.2980095 L69.1493484,26.6743464 L68.7332085,26.0302339 L68.1124096,24.1871087 L67.3858703,22.9952329 L66.142567,20.3955878 L65.3188146,19.4267427 C65.2096632,19.4267427 65.1141556,19.210849 64.9043802,18.8825479 C64.6928992,18.6595172 64.5905698,18.3419216 64.4882403,18.2312984 C63.9714764,17.2553163 63.5536309,16.6129881 63.4547124,16.4987964 L63.147724,16.2864712 L61.8003857,14.3380755 L61.0772573,13.6832575 C58.5957672,11.6313756 57.8692279,10.7588797 57.8692279,10.7588797 C57.5622394,10.5394176 57.2501345,10.4341471 57.2501345,10.3235239 L55.2819973,9.0299462 C54.9715979,8.81405253 54.6594929,8.70699782 54.357621,8.59459038 L53.1057902,8.16280306 L51.9733439,7.84520742 C51.7652739,7.73815271 51.5606149,7.73815271 51.1461805,7.62574527 C49.5941833,7.29209143 48.1445155,7.08333474 47.2167282,7.08333474 C46.9029178,6.97806428 46.4935998,7.08333474 45.8745064,7.08333474 C45.6647309,7.94690939 45.6647309,8.16280306 45.6647309,8.49110416 L45.6647309,8.81405253 L46.2889408,10.7588797 L46.1832004,12.056026 L46.4935998,13.5744186 L47.3190577,18.2312984 C47.5237166,19.8620985 49.4901483,23.9658623 51.24851,26.5637232 C53.7317056,30.2392682 57.9715574,33.4883786 60.8674819,33.8148955 L66.142567,34.4625765 L67.7968937,34.6820386 L70.4864538,34.4625765 L71.4193576,34.4625765 L71.4193576,33.8148955 L71.4193576,33.8148955 Z" id="Fill-1" sketch:type="MSShapeGroup"></path>
            <path d="M129.353197,54.4389851 C126.353238,54.4389851 123.554526,52.371045 122.807521,49.1594037 C121.235058,52.0819973 118.305024,54.4389851 114.484723,54.4389851 C110.116959,54.4389851 106.434803,50.8740633 106.434803,46.4473511 C106.434803,40.165024 112.095329,35.6722947 122.938844,35.5295551 L123.01218,33.8844811 C123.216839,29.4595531 120.755815,26.6047609 116.461387,26.6047609 C113.323283,26.6047609 110.116959,28.6744852 108.070369,31.4561234 C107.93393,31.6720171 106.98056,30.6710555 107.04878,30.4622989 C109.780977,24.7473617 114.958849,21.4679191 120.146954,21.4679191 C126.216798,21.4679191 130.512931,26.0302339 130.311683,33.4562622 L129.902365,46.0191323 C129.83244,48.9435101 131.126908,50.158581 132.561227,50.158581 C134.063765,50.158581 135.221793,48.8685718 135.769256,47.1592649 C135.83577,47.0165253 136.72092,47.4447441 136.72092,47.5874838 C136.175163,51.9392577 133.106984,54.4389851 129.353197,54.4389851 L129.353197,54.4389851 Z M122.938844,37.2406462 C119.190174,37.668865 116.872411,38.8785832 115.439798,40.3809176 C114.208433,41.6637899 113.664381,43.2339256 113.664381,44.8754311 C113.664381,47.8033774 115.712676,49.7999477 118.166879,49.7999477 C119.667711,49.7999477 121.165133,49.0898182 122.055399,48.1513052 C122.328278,47.872963 122.734185,47.1592649 122.734185,46.5793853 L122.938844,37.2406462 L122.938844,37.2406462 Z" id="Fill-2" sketch:type="MSShapeGroup"></path>
            <path d="M168.649426,53.295284 C166.394766,53.295284 162.506246,53.295284 160.531287,53.368438 C160.324922,53.368438 160.391436,51.7929496 160.461362,51.7929496 C163.802419,51.2987137 164.281662,51.0168029 164.281662,44.015425 L164.281662,34.3126999 C164.281662,30.0305115 161.893974,26.9633941 158.210113,26.9633941 C155.68428,26.9633941 153.502956,28.2462664 152.413147,29.8913404 C151.594511,30.8869492 151.118679,32.6016088 151.118679,34.815857 L151.118679,44.015425 C151.118679,50.9365119 151.933904,51.2987137 155.210153,51.7929496 C155.278373,51.7929496 155.343182,53.368438 155.138523,53.368438 C153.160153,53.295284 149.616141,53.295284 147.499626,53.295284 C145.248378,53.295284 141.428077,53.295284 139.449707,53.368438 C139.246753,53.368438 139.246753,51.7929496 139.316678,51.7929496 C142.997129,51.155974 143.542886,51.0168029 143.542886,44.015425 L143.542886,32.3161296 C143.542886,25.3183201 142.72425,24.9632553 138.765805,24.2531258 C138.499748,24.2531258 138.562851,22.6812058 138.765805,22.6812058 L150.434777,22.6812058 L150.434777,29.8181864 L150.571217,29.8181864 C153.160153,24.7473617 157.253332,21.6802443 162.028708,21.6802443 C167.487986,21.6802443 171.854045,26.110525 171.854045,33.5954333 L171.854045,44.015425 C171.854045,50.9365119 172.469727,51.2291281 176.148472,51.7929496 C176.428173,51.7929496 176.354837,53.368438 176.148472,53.368438 C174.171807,53.295284 170.760825,53.295284 168.649426,53.295284" id="Fill-3" sketch:type="MSShapeGroup"></path>
            <path d="M195.456341,54.5085707 C186.244982,54.5085707 180.178548,47.0165253 180.178548,38.2398235 C180.178548,28.9528275 186.244982,21.4679191 196.002098,21.4679191 C200.572815,21.4679191 202.888873,23.1058561 204.323191,23.1058561 C205.005388,23.1058561 205.486336,22.6812058 205.895654,21.7605353 C205.962168,21.5410731 207.664249,21.5410731 207.664249,21.7605353 L207.664249,33.3831082 C207.664249,33.5954333 205.895654,33.5954333 205.822318,33.4562622 C203.369821,28.1766808 199.958838,23.6768146 196.002098,23.6768146 C191.022063,23.6768146 188.225057,29.1740739 188.225057,36.6661192 C188.225057,44.7326915 192.180092,50.085427 197.704179,50.085427 C201.457965,50.085427 205.486336,47.3715901 207.254931,44.2313186 C207.461295,43.9494079 208.690955,44.5970889 208.617619,44.8754311 C206.710879,50.3013206 201.391451,54.5085707 195.456341,54.5085707" id="Fill-4" sketch:type="MSShapeGroup"></path>
            <path d="M222.055186,37.668865 C222.055186,44.5167979 225.742458,49.9426874 232.016962,49.9426874 C235.770748,49.9426874 239.459726,47.4447441 241.36476,44.2313186 C241.43298,44.088579 242.589303,44.5970889 242.522789,44.8022771 C240.887223,50.2245981 235.294916,54.5085707 229.085222,54.5085707 C219.39803,54.5085707 213.667579,47.0843266 213.667579,38.2398235 C213.667579,29.4595531 219.739128,21.4679191 229.764007,21.4679191 C237.40802,21.4679191 242.589303,26.751069 242.933812,33.9576351 L242.933812,36.1700991 L222.055186,36.1700991 L222.055186,37.668865 L222.055186,37.668865 Z M234.40465,33.9576351 L234.40465,31.6720171 C234.40465,26.6047609 232.083476,23.8266912 229.219956,23.8266912 C225.467874,23.8266912 222.742499,27.9607872 222.196742,33.9576351 L234.40465,33.9576351 L234.40465,33.9576351 Z" id="Fill-5" sketch:type="MSShapeGroup"></path>
            <path d="M259.714143,54.3658311 C255.005281,54.3658311 250.773957,53.1525444 249.341344,52.0819973 C249.141801,51.9392577 248.795587,47.8033774 248.732483,43.5247576 C248.732483,43.3035112 250.504489,43.2339256 250.571003,43.4498193 C253.030322,49.0166641 256.644258,52.2247369 260.464559,52.2247369 C263.672589,52.2247369 265.990352,50.5136458 265.990352,47.6570693 C265.990352,44.4436438 262.373004,42.9448779 258.552703,41.2998039 C254.050206,39.4495417 249.071876,37.0943381 249.071876,31.1028429 C249.071876,26.4655897 252.895588,21.6035217 260.125166,21.6035217 C263.25986,21.6035217 265.175127,22.8239454 266.534403,22.8239454 C267.218305,22.8239454 267.762357,22.4028636 268.16997,21.4679191 C268.239895,21.2555939 269.947092,21.2555939 269.947092,21.4679191 L270.015311,32.0966674 C270.015311,32.3161296 268.16997,32.2429755 268.10175,32.0270819 C265.717473,27.2524419 262.717513,23.8266912 259.236605,23.8266912 C255.962062,23.8266912 254.531154,26.0302339 254.531154,27.8947701 C254.531154,31.0350416 258.078577,32.3821466 261.828952,34.0272207 C266.329744,35.9542054 271.442808,38.3807788 271.442808,44.5167979 C271.442808,50.085427 266.878913,54.3658311 259.714143,54.3658311" id="Fill-6" sketch:type="MSShapeGroup"></path>
            <path d="M280.862237,26.0302339 L275.948716,26.0302339 C275.539398,26.0302339 275.401253,24.7473617 275.810571,24.3922969 C279.018601,21.394765 284.477879,16.2614918 287.343105,13.0444978 C287.542647,12.8286041 288.501133,13.1158676 288.501133,13.3317612 L288.501133,22.8239454 L298.938741,22.8239454 C299.206503,22.8239454 299.206503,25.8214772 298.938741,25.8214772 L288.501133,25.8214772 L288.501133,43.7299458 C288.501133,47.8033774 290.752382,49.5840541 293.343024,49.5840541 C295.11844,49.5840541 297.228133,47.946117 298.05018,46.0191323 C298.116694,45.8068071 299.349765,46.5097997 299.284956,46.7292618 C297.981961,51.08282 294.09344,54.4389851 289.526134,54.4389851 C284.817272,54.4389851 280.862237,51.2987137 280.862237,44.9485852" id="Fill-7" sketch:type="MSShapeGroup"></path>
            <path d="M324.996945,31.1028429 C324.04187,31.1028429 321.792327,28.1766808 320.086835,28.1766808 C319.334714,28.1766808 318.447858,28.6744852 317.695736,29.3899675 C316.399563,30.7442096 315.444488,33.738173 315.444488,36.3057017 L315.444488,44.015425 C315.444488,51.0168029 316.536002,51.2987137 320.01691,51.7929496 C320.086835,51.7929496 320.223275,53.368438 320.01691,53.368438 C318.03854,53.295284 314.011875,53.295284 311.893654,53.295284 C309.645817,53.295284 305.760707,53.295284 303.778926,53.368438 C303.577678,53.368438 303.649309,51.7929496 303.712412,51.7929496 C307.394568,51.155974 307.873811,51.0168029 307.873811,44.015425 L307.873811,32.3161296 C307.873811,25.3914742 307.060292,24.9632553 303.098435,24.2531258 C302.823851,24.2531258 302.893776,22.6812058 303.098435,22.6812058 L314.96695,22.6812058 L314.96695,30.7442096 L315.311459,30.7442096 C315.650852,29.7486008 316.20002,28.6048997 316.742367,27.6021539 C318.855471,23.9640781 321.446112,21.6035217 324.244824,21.6035217 C326.838876,21.6035217 328.95198,23.6768146 328.95198,25.9642169 C328.95198,28.4585916 325.817287,31.1028429 324.996945,31.1028429" id="Fill-8" sketch:type="MSShapeGroup"></path>
            <path d="M360.464346,25.8214772 C359.168172,27.1757193 358.356358,29.7486008 356.304652,35.3868155 L346.28489,62.2165097 C342.803982,71.7782794 339.592541,73.7052642 335.226483,73.7052642 C332.775692,73.7052642 330.043495,72.3474536 329.973569,71.6426768 C329.840541,70.4240374 331.479518,65.6458289 332.429477,65.6458289 C332.775692,65.6458289 336.457848,67.4265055 338.296368,67.4265055 C340.892126,67.4265055 342.597617,65.7189829 343.958599,61.7882909 L345.86875,56.6514491 C345.184848,54.0803518 337.820536,37.2406462 337.000194,34.8818741 C335.16338,30.3159908 333.932015,26.8866716 332.702356,25.6073678 C331.955351,24.8205157 331.203229,24.4654509 329.021905,24.1799717 C328.817246,24.1799717 328.817246,22.5348977 329.021905,22.5348977 C331.003686,22.6080517 335.16338,22.6812058 337.414629,22.6812058 C339.659055,22.6812058 343.755646,22.5348977 345.734016,22.4724491 C345.942086,22.4724491 345.942086,24.1068177 345.734016,24.1068177 C341.165004,24.7473617 341.574322,26.3888672 344.096744,32.813934 L349.552611,46.4473511 L353.78223,34.7462715 C355.284768,30.6710555 356.038596,28.2462664 356.038596,26.8866716 C356.038596,25.179149 355.008479,24.538605 351.807271,24.2531258 C351.600907,24.2531258 351.600907,22.4724491 351.807271,22.4724491 C353.985184,22.5348977 356.717381,22.6812058 358.562723,22.6812058 C359.995336,22.6812058 361.358023,22.5348977 364.01859,22.4724491 C364.155029,22.4724491 364.288058,24.2531258 364.081693,24.2531258 C362.239762,24.3922969 361.358023,24.8936698 360.464346,25.8214772" id="Fill-9" sketch:type="MSShapeGroup"></path>
            <path d="M371.301039,23.2450273 L371.301039,27.734188 L370.630781,27.734188 L370.630781,23.2450273 L369.06855,23.2450273 L369.06855,22.6080517 L372.806988,22.6080517 L372.905906,23.2450273 L371.301039,23.2450273" id="Fill-10" sketch:type="MSShapeGroup"></path>
            <path d="M378.266266,27.734188 L377.959277,23.6536194 L376.410691,27.7573832 L375.907571,27.7573832 L374.358985,23.6536194 L374.058818,27.734188 L373.432903,27.734188 L373.825166,22.6080517 L374.648918,22.6080517 L376.177039,26.8135175 L377.703454,22.6080517 L378.518679,22.6080517 L378.905825,27.734188 L378.266266,27.734188" id="Fill-11" sketch:type="MSShapeGroup"></path>
        </g>
    </g>
</svg>