<?xml version="1.0" encoding="UTF-8" standalone="no"?>
<svg width="200px" height="37px" viewBox="0 0 200 37" version="1.1" xmlns="http://www.w3.org/2000/svg" xmlns:xlink="http://www.w3.org/1999/xlink" xmlns:sketch="http://www.bohemiancoding.com/sketch/ns">
    <!-- Generator: Sketch 3.2.2 (9983) - http://www.bohemiancoding.com/sketch -->
    <title>beehive</title>
    <desc>Created with Sketch.</desc>
    <defs></defs>
    <g id="Page-1" stroke="none" stroke-width="1" fill="none" fill-rule="evenodd" sketch:type="MSPage">
        <g id="beehive" sketch:type="MSLayerGroup" transform="translate(0.452019, 0.000000)" fill="#333333">
            <path d="M28.2567356,18.4389037 C28.2070805,18.5138287 28.1565057,18.5887537 28.1027126,18.6627537 C28.0498391,18.7353662 27.9928276,18.8070537 27.9362759,18.8782787 C27.8801839,18.9490412 27.8245517,19.0193412 27.7647816,19.0882537 C27.431908,19.4762912 27.042023,19.8453662 26.6024828,20.1927037 C26.2245517,20.4914787 25.8102989,20.7736037 25.362023,21.0376912 C25.2889195,21.0807037 25.2148966,21.1237162 25.139954,21.1658037 C25.0636322,21.2083537 24.985931,21.2509037 24.9077701,21.2925287 C22.5473103,22.5551537 19.3831724,23.3303037 15.9082299,23.3303037 C12.4328276,23.3303037 9.26868966,22.5551537 6.90822989,21.2925287 C6.83006897,21.2504412 6.75236782,21.2083537 6.67604598,21.1658037 C6.60110345,21.1237162 6.52708046,21.0807037 6.45397701,21.0376912 C6.00524138,20.7736037 5.59052874,20.4910162 5.21213793,20.1917787 C4.77305747,19.8449037 4.38363218,19.4762912 4.05075862,19.0882537 C3.99144828,19.0193412 3.93535632,18.9490412 3.87972414,18.8782787 C3.82317241,18.8070537 3.76616092,18.7353662 3.71328736,18.6627537 C3.65949425,18.5887537 3.60891954,18.5138287 3.55926437,18.4389037 C3.00616092,17.6045537 2.70041379,16.7003662 2.70041379,15.7564037 C2.70041379,13.9808662 3.77397701,12.3473162 5.56524138,11.0541662 C5.608,11.1314037 5.65351724,11.2081787 5.70271264,11.2835662 C5.96983908,11.6970412 6.32708046,12.0887787 6.76432184,12.4527662 C7.56891954,13.1224662 8.63926437,13.6982787 9.89995402,14.1390412 C10.0365057,14.1866787 10.1758161,14.2324662 10.3165057,14.2773287 C10.4668506,14.3245037 10.619954,14.3702912 10.7748966,14.4142287 C12.3013333,14.8448162 14.0502989,15.0894787 15.9082299,15.0894787 C17.7657011,15.0894787 19.5146667,14.8448162 21.0411034,14.4142287 C21.1965057,14.3702912 21.3491494,14.3245037 21.4994943,14.2773287 C21.6401839,14.2324662 21.7794943,14.1866787 21.916046,14.1390412 C23.1767356,13.6982787 24.2470805,13.1224662 25.0516782,12.4527662 C25.4889195,12.0887787 25.8461609,11.6970412 26.1132874,11.2835662 C26.1624828,11.2081787 26.208,11.1314037 26.2507586,11.0541662 C28.0415632,12.3473162 29.1151264,13.9804037 29.1151264,15.7564037 C29.1151264,16.7003662 28.8098391,17.6045537 28.2567356,18.4389037 L28.2567356,18.4389037 Z M26.5542069,27.3258412 C26.5528276,27.3267662 26.551908,27.3281537 26.5509885,27.3290787 C26.5408736,27.3378662 26.5307586,27.3475787 26.5206437,27.3563662 C26.4102989,27.4558037 26.2958161,27.5529287 26.1790345,27.6486662 C26.0631724,27.7439412 25.944092,27.8373662 25.8217931,27.9294037 C25.6990345,28.0219037 25.5730575,28.1130162 25.4443218,28.2022787 C25.0185747,28.4964287 24.5615632,28.7711537 24.0765057,29.0241412 C24.065931,29.0296912 24.0548966,29.0352412 24.0443218,29.0407912 C23.8011034,29.1665912 23.5523678,29.2882287 23.2953563,29.4029287 C23.2788046,29.4103287 23.2631724,29.4186537 23.2466207,29.4255912 C23.0948966,29.4931162 22.9394943,29.5574037 22.7831724,29.6203037 C20.7822529,30.4278287 18.4273103,30.8949537 15.9082299,30.8949537 C14.6976552,30.8949537 13.5266207,30.7853412 12.4130575,30.5841537 C12.4502989,30.5231037 12.4737471,30.4523412 12.4737471,30.3746412 L12.4737471,27.1001412 C12.4737471,26.9271662 12.3643218,26.7731537 12.2015632,26.7167287 L11.1808736,26.3647662 C11.0176552,26.3083412 10.9086897,26.1543287 10.9086897,25.9813537 L10.9086897,25.0836412 C10.9086897,24.9106662 10.7992644,24.7566537 10.6365057,24.7006912 L8.86777011,24.0901912 C8.60662069,24.0000037 8.33443678,24.1956412 8.33443678,24.4736037 L8.33443678,28.6758787 L8.33443678,29.2165412 C8.33443678,29.2530787 8.33995402,29.2886912 8.34914943,29.3233787 C8.09627586,29.2063662 7.84845977,29.0851912 7.60937931,28.9570787 C7.60156322,28.9533787 7.59374713,28.9496787 7.5863908,28.9455162 C7.15696552,28.7151912 6.75282759,28.4659037 6.37167816,28.2022787 C6.24248276,28.1130162 6.11696552,28.0219037 5.99374713,27.9294037 C5.87190805,27.8373662 5.75282759,27.7439412 5.63650575,27.6486662 C5.51972414,27.5529287 5.40570115,27.4558037 5.29489655,27.3563662 C3.71512644,25.9392662 2.77949425,24.1965662 2.77949425,22.3128037 C2.77949425,21.2657037 3.06868966,20.2620787 3.59650575,19.3333787 C3.65535632,19.4036787 3.71604598,19.4735162 3.77811494,19.5424287 C4.12754023,19.9300037 4.52754023,20.2990787 4.97489655,20.6464162 C5.34914943,20.9368662 5.75466667,21.2125162 6.19052874,21.4701287 C6.26317241,21.5131412 6.33949425,21.5543037 6.41351724,21.5968537 C6.48983908,21.6398662 6.56478161,21.6833412 6.64294253,21.7254287 C9.08662069,23.0463287 12.339954,23.8538537 15.9082299,23.8538537 C19.476046,23.8538537 22.7293793,23.0463287 25.1730575,21.7254287 C25.2507586,21.6833412 25.3261609,21.6398662 25.402023,21.5968537 C25.4765057,21.5547662 25.5523678,21.5136037 25.6254713,21.4701287 C26.059954,21.2129787 26.4645517,20.9382537 26.8378851,20.6482662 C27.2866207,20.3004662 27.688,19.9309287 28.0378851,19.5424287 C28.099954,19.4735162 28.1606437,19.4036787 28.2194943,19.3333787 C28.7473103,20.2620787 29.0365057,21.2657037 29.0365057,22.3128037 C29.0365057,24.1831537 28.1137471,25.9142912 26.5542069,27.3258412 L26.5542069,27.3258412 Z M9.95512644,30.2298787 L9.95558621,30.2298787 L9.95512644,30.2298787 L9.95512644,30.2298787 Z M25.0397241,29.6193787 C25.0388046,29.6212287 25.0378851,29.6226162 25.0369655,29.6244662 C24.8778851,29.8843912 24.7050115,30.1364537 24.5178851,30.3801912 C24.516046,30.3820412 24.5151264,30.3838912 24.5132874,30.3857412 C22.6714483,32.7801037 19.5031724,34.3650912 15.9082299,34.3650912 C11.8834023,34.3650912 8.39282759,32.3786537 6.70041379,29.4935787 C6.69995402,29.4921912 6.69903448,29.4912662 6.69811494,29.4898787 C6.56616092,29.2637162 6.44524138,29.0324662 6.33535632,28.7961287 C6.47558621,28.8877037 6.6171954,28.9783537 6.76294253,29.0662287 C6.86822989,29.1300537 6.97673563,29.1911037 7.08524138,29.2526162 C7.08937931,29.2549287 7.09305747,29.2572412 7.0971954,29.2595537 C7.96662069,29.7511912 8.928,30.1725287 9.9634023,30.5083037 C11.7611034,31.0910537 13.7781149,31.4189662 15.9082299,31.4189662 C18.0378851,31.4189662 20.0548966,31.0910537 21.8525977,30.5083037 C22.5031724,30.2974037 23.1229425,30.0518162 23.7109885,29.7775537 C23.722023,29.7724662 23.7330575,29.7669162 23.744092,29.7618287 C24.0250115,29.6300162 24.3004138,29.4926537 24.5652414,29.3469662 C24.5712184,29.3437287 24.5776552,29.3409537 24.5836322,29.3377162 C24.7431724,29.2498412 24.8994943,29.1587287 25.0530575,29.0662287 C25.1988046,28.9783537 25.3404138,28.8881662 25.4801839,28.7961287 C25.3496092,29.0777912 25.2024828,29.3525162 25.0397241,29.6193787 L25.0397241,29.6193787 Z M7.66363218,6.53276625 C7.66501149,6.53184125 7.6663908,6.53091625 7.66777011,6.52999125 C8.00983908,6.30197875 8.39052874,6.08922875 8.80386207,5.89266625 C8.82317241,5.98100375 8.85167816,6.06795375 8.88570115,6.15397875 C9.06363218,6.60584125 9.43604598,7.02255375 9.96616092,7.38561625 C10.3657011,7.65895375 10.8544368,7.90176625 11.4130575,8.10665375 C11.5721379,8.16492875 11.7358161,8.22042875 11.905931,8.27222875 C12.1008736,8.33142875 12.3031724,8.38646625 12.511908,8.43734125 C13.5165057,8.68107875 14.6705287,8.81844125 15.9082299,8.81844125 C17.1454713,8.81844125 18.2994943,8.68107875 19.3045517,8.43734125 C19.5128276,8.38646625 19.7151264,8.33142875 19.910069,8.27222875 C20.0801839,8.22042875 20.2438621,8.16492875 20.4029425,8.10665375 C20.9606437,7.90222875 21.4489195,7.65987875 21.8475402,7.38700375 C22.3785747,7.02394125 22.7514483,6.60722875 22.9302989,6.15536625 C22.9643218,6.06887875 22.9928276,5.98146625 23.0121379,5.89266625 C24.9436322,6.81072875 26.1486897,8.09786625 26.1486897,9.52097875 C26.1486897,9.78321625 26.1077701,10.0403662 26.0291494,10.2919662 C26.0038621,10.3724412 25.9748966,10.4519912 25.9422529,10.5310787 C25.9091494,10.6106287 25.8723678,10.6887912 25.831908,10.7664912 C25.7923678,10.8437287 25.7486897,10.9195787 25.7017931,10.9954287 C25.4443218,11.4089037 25.0815632,11.8001787 24.6291494,12.1618537 C23.7431724,12.8694787 22.511908,13.4610162 21.0525977,13.8805037 C20.888,13.9276787 20.7206437,13.9725412 20.5505287,14.0155537 C20.3588046,14.0636537 20.1643218,14.1094412 19.9657011,14.1519912 C18.7206437,14.4179287 17.3491494,14.5659287 15.9082299,14.5659287 C14.4668506,14.5659287 13.0953563,14.4179287 11.8502989,14.1519912 C11.6516782,14.1094412 11.4571954,14.0636537 11.2654713,14.0155537 C11.0953563,13.9725412 10.928,13.9276787 10.7638621,13.8805037 C9.30409195,13.4610162 8.07282759,12.8694787 7.18685057,12.1618537 C6.73397701,11.8001787 6.37167816,11.4089037 6.1142069,10.9954287 C6.06731034,10.9195787 6.02363218,10.8437287 5.98363218,10.7669537 C5.94363218,10.6887912 5.9063908,10.6106287 5.87374713,10.5315412 C5.84110345,10.4519912 5.81167816,10.3724412 5.78685057,10.2919662 C5.70822989,10.0403662 5.66731034,9.78321625 5.66731034,9.52097875 C5.66731034,8.40357875 6.41029885,7.36989125 7.66363218,6.53276625 L7.66363218,6.53276625 Z M9.29627586,5.39917875 C9.31006897,5.29742875 9.33857471,5.19752875 9.37949425,5.09855375 C9.91236782,3.81234125 12.6847816,2.79761625 15.9082299,2.79761625 C17.8484598,2.79761625 19.6254713,3.16576625 20.8489195,3.73926625 L20.8493793,3.73926625 C21.5105287,4.04914125 22.0093793,4.41867875 22.2857011,4.82290375 C22.3473103,4.91309125 22.3978851,5.00512875 22.4365057,5.09855375 C22.4774253,5.19752875 22.5063908,5.29789125 22.5197241,5.39917875 L22.5201839,5.39964125 L22.5201839,5.40056625 C22.5266207,5.44866625 22.5302989,5.49722875 22.5302989,5.54625375 C22.5302989,5.58880375 22.5270805,5.63181625 22.522023,5.67390375 C22.5114483,5.76409125 22.4898391,5.85289125 22.4576552,5.94076625 C22.2971954,6.38245375 21.871908,6.79315375 21.253977,7.14419125 C20.7183448,7.44897875 20.0378851,7.70844125 19.2581149,7.90315375 C19.0144368,7.96420375 18.7611034,8.01877875 18.4994943,8.06687875 C18.1261609,8.13486625 17.7362759,8.18851625 17.3335172,8.22690375 C16.8728276,8.27084125 16.3955862,8.29489125 15.9082299,8.29489125 C15.4204138,8.29489125 14.9436322,8.27084125 14.4824828,8.22690375 C14.0801839,8.18851625 13.6898391,8.13486625 13.3165057,8.06687875 C13.0548966,8.01877875 12.8015632,7.96420375 12.5578851,7.90315375 C11.7693793,7.70612875 11.082023,7.44296625 10.5431724,7.13355375 C9.93489655,6.78390375 9.51604598,6.37644125 9.35742529,5.93845375 C9.32616092,5.85150375 9.30455172,5.76316625 9.29397701,5.67390375 C9.28891954,5.63181625 9.28570115,5.58880375 9.28570115,5.54625375 C9.28570115,5.49676625 9.28983908,5.44820375 9.29627586,5.39917875 L9.29627586,5.39917875 Z M31.4507586,15.4516162 L31.4466207,15.3887162 C31.4434023,15.3272037 31.4397241,15.2661537 31.4332874,15.1852162 L31.3445517,14.5289287 C31.3348966,14.4766662 31.3247816,14.4244037 31.3169655,14.3869412 L31.2213333,13.9841037 C31.2075402,13.9327662 31.1928276,13.8818912 31.1831724,13.8495162 L31.1482299,13.7329662 C31.1316782,13.6774662 31.1132874,13.6228912 31.0935172,13.5646162 C31.0824828,13.5299287 31.0705287,13.4947787 31.0604138,13.4670287 C31.0337471,13.3907162 31.0052414,13.3148662 30.9776552,13.2454912 C30.9606437,13.2006287 30.9417931,13.1562287 30.9234023,13.1113662 L29.231908,13.8088162 C29.2309885,13.8074287 29.2305287,13.8060412 29.230069,13.8046537 L30.9096092,13.0780662 L30.7532874,12.7293412 C30.7307586,12.6826287 30.7073103,12.6359162 30.6847816,12.5910537 L30.3721379,12.0314287 C30.3422529,11.9824037 30.311908,11.9333787 30.2792644,11.8825037 L30.230069,11.8066537 C30.1988046,11.7594787 30.1670805,11.7118412 30.1298391,11.6572662 L30.0921379,11.6031537 C29.8686897,11.2840287 29.6162759,10.9695287 29.3381149,10.6647412 L29.3137471,10.6374537 C29.2650115,10.5847287 29.2148966,10.5320037 29.1588046,10.4737287 L29.1335172,10.4473662 C29.0843218,10.3964912 29.0342069,10.3460787 28.9836322,10.2956662 L28.9468506,10.2595912 C28.8935172,10.2077912 28.8397241,10.1559912 28.7854713,10.1046537 L28.7588046,10.0801412 C28.7031724,10.0283412 28.6466207,9.97654125 28.5762759,9.91364125 C28.5445517,9.88496625 28.5128276,9.85721625 28.4806437,9.82900375 L28.4838621,9.77905375 C28.4884598,9.69441625 28.4907586,9.60931625 28.4907586,9.52005375 C28.4907586,9.42986625 28.488,9.34014125 28.4834023,9.26012875 C28.4815632,9.22821625 28.4792644,9.19676625 28.4769655,9.16485375 C28.471908,9.10195375 28.4668506,9.03905375 28.4617931,8.99511625 L28.4461609,8.86839125 C28.4392644,8.81844125 28.4314483,8.76849125 28.4227126,8.71576625 L28.4043218,8.61262875 C28.3937471,8.55574125 28.3813333,8.49839125 28.3661609,8.43132875 L28.3505287,8.36380375 C28.3371954,8.30969125 28.3234023,8.25557875 28.3082299,8.20192875 L28.2792644,8.10110375 C28.253977,8.01831625 28.2263908,7.93599125 28.2047816,7.87586625 C28.1937471,7.84487875 28.1822529,7.81389125 28.1730575,7.79076625 C28.1509885,7.73110375 28.1275402,7.67144125 28.1073103,7.62241625 C28.0916782,7.58495375 28.0755862,7.54841625 28.0682299,7.53222875 C28.0457011,7.47904125 28.0213333,7.42677875 27.9992644,7.37960375 C27.9850115,7.35000375 27.9707586,7.31994125 27.9555862,7.28987875 C27.9275402,7.23299125 27.8985747,7.17749125 27.8769655,7.13771625 L27.842023,7.07250375 C27.8066207,7.00821625 27.7702989,6.94485375 27.7316782,6.88149125 L27.6843218,6.80425375 C27.6484598,6.74736625 27.6116782,6.69094125 27.573977,6.63405375 L27.5427126,6.58965375 C27.5031724,6.53184125 27.4627126,6.47449125 27.4296092,6.43009125 L27.384092,6.36904125 C27.3454713,6.31724125 27.3050115,6.26590375 27.2622529,6.21225375 L27.2158161,6.15536625 C27.1748966,6.10541625 27.1330575,6.05592875 27.0948966,6.01199125 L27.0567356,5.96759125 C26.9436322,5.83994125 26.824092,5.71414125 26.6976552,5.59065375 L26.6709885,5.56429125 C26.6190345,5.51434125 26.5666207,5.46485375 26.5123678,5.41536625 L26.5123678,5.41536625 L26.4751264,5.38114125 C26.4227126,5.33396625 26.3693793,5.28679125 26.3077701,5.23406625 L26.276046,5.20677875 C26.2208736,5.16006625 26.1643218,5.11335375 26.105931,5.06617875 L26.0778851,5.04397875 C25.8751264,4.88210375 25.6576552,4.72346625 25.4314483,4.57269125 L25.4066207,4.55650375 C25.339954,4.51256625 25.2728276,4.46862875 25.2208736,4.43671625 L25.1776552,4.40896625 C25.1073103,4.36502875 25.0351264,4.32155375 24.9463908,4.26836625 C24.7238621,4.13701625 24.4889195,4.00890375 24.2475402,3.88772875 L24.1965057,3.86182875 C24.168,3.84749125 24.1394943,3.83361625 24.1096092,3.81881625 C22.9854713,1.77780375 19.8631724,0.44117875 15.9082299,0.44117875 L15.756046,0.44210375 L15.5955862,0.44117875 C11.4231724,0.44117875 8.2617931,1.86567875 7.27052874,4.04266625 L6.568,4.45336625 C6.51604598,4.48620375 6.46593103,4.51904125 6.41581609,4.55234125 L6.35972414,4.58934125 C6.30455172,4.62634125 6.24983908,4.66380375 6.20386207,4.69617875 L6.16064368,4.72624125 C6.02455172,4.82244125 5.89305747,4.92049125 5.74547126,5.03750375 C5.69075862,5.08097875 5.63696552,5.12537875 5.57075862,5.18041625 L5.52983908,5.21556625 C5.48708046,5.25164125 5.44524138,5.28771625 5.4125977,5.31685375 L5.34087356,5.38114125 C5.3017931,5.41675375 5.26317241,5.45190375 5.22731034,5.48566625 L5.16478161,5.54579125 C5.12616092,5.58279125 5.088,5.62025375 5.06087356,5.64754125 L4.99144828,5.71784125 C4.95742529,5.75299125 4.92294253,5.78860375 4.89121839,5.82329125 L4.67926437,6.06101625 C4.64248276,6.10310375 4.60754023,6.14565375 4.57535632,6.18542875 L4.52432184,6.24879125 C4.48891954,6.29319125 4.45489655,6.33805375 4.42868966,6.37320375 C4.408,6.40002875 4.38777011,6.42731625 4.37443678,6.44581625 C4.34363218,6.48836625 4.31374713,6.53091625 4.28432184,6.57346625 L4.2388046,6.63914125 C4.14777011,6.77419125 4.06317241,6.91201625 3.98133333,7.05862875 L3.95834483,7.10164125 C3.92891954,7.15575375 3.90041379,7.20894125 3.87604598,7.25796625 L3.83834483,7.33427875 C3.81397701,7.38469125 3.79052874,7.43510375 3.77397701,7.47164125 C3.75834483,7.50632875 3.74363218,7.54101625 3.73121839,7.56969125 L3.55972414,8.02941625 C3.54409195,8.07751625 3.52983908,8.12561625 3.51512644,8.17741625 L3.48845977,8.27315375 C3.47604598,8.32079125 3.46409195,8.36889125 3.44937931,8.43271625 L3.38455172,8.76664125 C3.37673563,8.81566625 3.37029885,8.86469125 3.3634023,8.91972875 L3.35006897,9.03072875 C3.34501149,9.08114125 3.34133333,9.13201625 3.33765517,9.18289125 L3.33167816,9.26567875 C3.32754023,9.35031625 3.32524138,9.43587875 3.32524138,9.52097875 C3.32524138,9.60700375 3.32754023,9.69210375 3.33121839,9.75824125 C3.33213793,9.78645375 3.33397701,9.81466625 3.33535632,9.82900375 C3.31052874,9.85074125 3.28662069,9.87201625 3.26225287,9.89329125 L3.20662069,9.94277875 C3.15512644,9.98949125 3.10501149,10.0352787 3.0571954,10.0801412 L3.01903448,10.1157537 C2.96937931,10.1629287 2.91926437,10.2110287 2.86133333,10.2674537 L2.83788506,10.2905787 C2.78547126,10.3423787 2.73305747,10.3946412 2.68845977,10.4408912 L2.64891954,10.4815912 C2.59788506,10.5352412 2.54731034,10.5888912 2.4971954,10.6430037 L2.47374713,10.6689037 C2.19926437,10.9699912 1.9463908,11.2844912 1.72248276,11.6054662 L1.68478161,11.6591162 C1.64983908,11.7099912 1.61581609,11.7617912 1.57489655,11.8242287 L1.53995402,11.8778787 C1.50685057,11.9287537 1.47512644,11.9800912 1.44754023,12.0249537 L1.39834483,12.1063537 C1.36983908,12.1539912 1.3417931,12.2016287 1.3096092,12.2580537 L1.17995402,12.4957787 L0.890758621,13.1159912 C0.871448276,13.1613162 0.853517241,13.2061787 0.838344828,13.2450287 C0.810298851,13.3167162 0.783172414,13.3888662 0.757885057,13.4600912 C0.745011494,13.4961662 0.733057471,13.5322412 0.722022989,13.5650787 C0.703172414,13.6210412 0.684781609,13.6765412 0.668689655,13.7283412 L0.628689655,13.8638537 C0.615356322,13.9091787 0.602482759,13.9545037 0.597425287,13.9739287 C0.584551724,14.0211037 0.572597701,14.0682787 0.564781609,14.1011162 C0.551908046,14.1519912 0.539494253,14.2028662 0.52616092,14.2611412 L0.501793103,14.3739912 C0.491218391,14.4253287 0.481103448,14.4762037 0.471448276,14.5284662 L0.44983908,14.6514912 C0.441103448,14.7032912 0.433747126,14.7555537 0.427770115,14.7962537 C0.420873563,14.8443537 0.413977011,14.8919912 0.410758621,14.9188162 C0.403402299,14.9775537 0.397425287,15.0358287 0.390988506,15.1038162 L0.380873563,15.2051037 C0.376275862,15.2661537 0.372597701,15.3272037 0.36891954,15.3910287 L0.364781609,15.4710412 C0.360183908,15.5658537 0.358344828,15.6606662 0.358344828,15.7564037 C0.358344828,15.8567662 0.360183908,15.9575912 0.364781609,16.0528662 C0.36616092,16.0870912 0.36845977,16.1213162 0.371218391,16.1583162 C0.374896552,16.2258412 0.379494253,16.2938287 0.383172414,16.3340662 C0.386390805,16.3729162 0.390528736,16.4122287 0.394206897,16.4446037 C0.401103448,16.5125912 0.40845977,16.5810412 0.415356322,16.6296037 C0.420413793,16.6693787 0.426390805,16.7086912 0.430068966,16.7299662 C0.440183908,16.8025787 0.451218391,16.8747287 0.464091954,16.9450287 L0.480183908,17.0282787 C0.493057471,17.0962662 0.506390805,17.1637912 0.525701149,17.2507412 L0.539494253,17.3071662 C0.556045977,17.3774662 0.573517241,17.4477662 0.590988506,17.5148287 L0.610758621,17.5846662 C0.631908046,17.6619037 0.654436782,17.7386787 0.672827586,17.7960287 L0.693057471,17.8584662 C0.717885057,17.9357037 0.743632184,18.0129412 0.771678161,18.0897162 L0.787310345,18.1322662 C0.815816092,18.2095037 0.845241379,18.2867412 0.869609195,18.3459412 L0.897655172,18.4130037 C0.928,18.4856162 0.958804598,18.5577662 0.991448276,18.6299162 L1.00754023,18.6650662 C1.04064368,18.7367537 1.07466667,18.8075162 1.1096092,18.8782787 L1.13029885,18.9194412 C1.13903448,18.9360912 1.14731034,18.9527412 1.15604598,18.9698537 C1.12570115,19.0383037 1.09581609,19.1076787 1.06731034,19.1765912 L1.04156322,19.2034162 L0.897195402,19.6238287 C0.895816092,19.6275287 0.894436782,19.6312287 0.893057471,19.6349287 L0.776275862,19.9707037 L0.776275862,19.9979912 C0.756045977,20.0664412 0.736275862,20.1348912 0.717885057,20.2042662 L0.705471264,20.2514412 C0.683402299,20.3356162 0.662252874,20.4193287 0.648,20.4826912 C0.641563218,20.5099787 0.635586207,20.5368037 0.630988506,20.5590037 C0.613057471,20.6385537 0.596045977,20.7190287 0.580873563,20.7990412 L0.570298851,20.8591662 C0.556045977,20.9373287 0.541793103,21.0150287 0.530758621,21.0894912 L0.517885057,21.1810662 C0.507770115,21.2527537 0.498114943,21.3239787 0.490758621,21.3864162 C0.48616092,21.4238787 0.482482759,21.4613412 0.478804598,21.5062037 L0.475586207,21.5362662 C0.470068966,21.5908412 0.464551724,21.6458787 0.461333333,21.6921287 C0.457655172,21.7374537 0.454896552,21.7827787 0.452597701,21.8285662 L0.450298851,21.8706537 C0.44754023,21.9173662 0.444321839,21.9640787 0.442942529,22.0052412 C0.440643678,22.0755412 0.439264368,22.1467662 0.438804598,22.2147537 L0.437425287,22.4362912 L0.438804598,22.4469287 C0.439264368,22.4996537 0.440643678,22.5519162 0.442482759,22.6032537 L0.44754023,22.7031537 C0.450758621,22.7674412 0.453977011,22.8321912 0.458574713,22.8918537 L0.471448276,23.0486412 C0.476045977,23.0976662 0.480643678,23.1471537 0.48616092,23.1961787 L0.594206897,23.8922412 C0.604781609,23.9472787 0.616735632,24.0018537 0.628689655,24.0568912 L0.658574713,24.1868537 C0.671448276,24.2405037 0.684781609,24.2941537 0.700873563,24.3561287 L0.810298851,24.7400037 C0.830528736,24.8033662 0.851678161,24.8662662 0.873287356,24.9305537 L0.898574713,25.0059412 C0.930298851,25.0965912 0.963402299,25.1872412 0.999724138,25.2811287 L1.03558621,25.3685412 C1.05765517,25.4240412 1.08018391,25.4795412 1.11098851,25.5535412 L1.21811494,25.7926537 C1.2388046,25.8375162 1.26041379,25.8823787 1.28570115,25.9337162 L1.55282759,26.4433912 L2.1634023,27.3887412 C2.18593103,27.4206537 2.20983908,27.4521037 2.24708046,27.5011287 C2.3096092,27.5843787 2.37351724,27.6671662 2.45397701,27.7679912 L2.6125977,27.9599287 L4.01535632,26.7736162 C4.01673563,26.7745412 4.01765517,26.7759287 4.01857471,26.7768537 L2.63788506,27.9899912 L3.49811494,28.8964912 C3.53995402,28.9362662 3.58225287,28.9760412 3.61443678,29.0051787 L4.0217931,29.3640787 C4.02501149,29.3710162 4.02777011,29.3784162 4.03052874,29.3853537 L4.04937931,29.4316037 C4.0742069,29.4912662 4.09995402,29.5509287 4.13535632,29.6309412 L4.1496092,29.6637787 C4.17627586,29.7229787 4.20294253,29.7812537 4.22547126,29.8298162 L4.248,29.8769912 C4.37167816,30.1383037 4.50822989,30.3977662 4.65351724,30.6484412 L4.67696552,30.6886787 C4.70914943,30.7437162 4.7417931,30.7987537 4.77857471,30.8593412 L4.80708046,30.9051287 C4.84110345,30.9606287 4.87604598,31.0161287 4.90777011,31.0660787 L4.92845977,31.0975287 C5.04478161,31.2774412 5.16708046,31.4545787 5.29673563,31.6317162 L5.76386207,32.2251037 C5.89627586,32.3823537 6.03328736,32.5363662 6.19144828,32.7042537 L6.39650575,32.9165412 C6.4388046,32.9590912 6.48110345,33.0016412 6.51144828,33.0307787 L6.73995402,33.2490787 C6.83052874,33.3332537 6.9234023,33.4165037 7.01627586,33.4979037 L7.85351724,34.1666787 C7.93443678,34.2258787 8.01581609,34.2836912 8.11604598,34.3535287 L8.9863908,34.9043662 C9.05581609,34.9446037 9.12570115,34.9839162 9.19650575,35.0236912 L10.299954,35.5675912 C10.3712184,35.5985787 10.4429425,35.6291037 10.5137471,35.6587037 L11.3965057,35.9907787 C11.4801839,36.0189912 11.5643218,36.0462787 11.653977,36.0749537 L11.7054713,36.0906787 C11.7753563,36.1119537 11.8461609,36.1336912 11.9123678,36.1531162 L12.0112184,36.1813287 C12.0705287,36.1984412 12.1298391,36.2146287 12.1785747,36.2280412 L12.5647816,36.3270162 C12.6309885,36.3432037 12.6976552,36.3584662 12.7707586,36.3751162 L12.8392644,36.3903787 C12.9293793,36.4102662 13.0194943,36.4292287 13.1036322,36.4458787 L13.1767356,36.4602162 C13.2466207,36.4736287 13.3165057,36.4865787 13.3932874,36.5004537 L14.0617931,36.6026662 C14.1385747,36.6128412 14.2158161,36.6220912 14.2990345,36.6313412 L14.3468506,36.6368912 C14.4415632,36.6470662 14.5358161,36.6563162 14.6365057,36.6655662 L14.7105287,36.6715787 C14.7813333,36.6771287 14.8525977,36.6826787 14.9215632,36.6873037 L15.0213333,36.6937787 C15.0870805,36.6979412 15.151908,36.7011787 15.224092,36.7048787 L15.3229425,36.7090412 C15.3909885,36.7118162 15.4585747,36.7141287 15.5404138,36.7159787 L15.613977,36.7182912 C15.711908,36.7201412 15.8098391,36.7215287 15.9082299,36.7215287 C16.0061609,36.7215287 16.1045517,36.7201412 16.1928276,36.7182912 L16.2893793,36.7155162 C16.3574253,36.7141287 16.4254713,36.7118162 16.5004138,36.7090412 L16.5988046,36.7044162 C16.664092,36.7011787 16.7298391,36.6979412 16.7854713,36.6942412 L16.8921379,36.6877662 C16.9634023,36.6826787 17.0342069,36.6771287 17.1183448,36.6701912 L17.1845517,36.6651037 C17.2797241,36.6563162 17.3753563,36.6470662 17.4654713,36.6373537 L17.5224828,36.6308787 C17.6001839,36.6220912 17.6774253,36.6128412 17.7532874,36.6031287 L18.4277701,36.4995287 C18.4981149,36.4870412 18.568,36.4736287 18.6461609,36.4588287 L18.705931,36.4472662 C18.7978851,36.4287662 18.8893793,36.4098037 18.9666207,36.3926912 L19.893977,36.1558912 C19.9675402,36.1346162 20.0401839,36.1124162 20.1183448,36.0879037 L20.1647816,36.0740287 C20.2502989,36.0467412 20.3348966,36.0189912 20.4204138,35.9903162 L20.4861609,35.9676537 L19.8912184,34.2305037 C19.8925977,34.2300412 19.893977,34.2295787 19.8953563,34.2291162 L20.5174253,35.9570162 L21.2990345,35.6600912 C21.3721379,35.6295662 21.4452414,35.5985787 21.5137471,35.5685162 L22.6194943,35.0236912 C22.6884598,34.9848412 22.7574253,34.9459912 22.8351264,34.9015912 L23.716046,34.3419662 C23.7969655,34.2860037 23.8769655,34.2286537 23.9693793,34.1615912 L24.7992644,33.4983662 C24.8921379,33.4174287 24.9836322,33.3346412 25.071908,33.2527787 L23.8369655,31.8962662 C23.8378851,31.8953412 23.8388046,31.8948787 23.8397241,31.8939537 L25.0953563,33.2310412 L25.642023,32.6857537 C25.7822529,32.5363662 25.9178851,32.3842037 26.042023,32.2371287 L26.0769655,32.1955037 C26.116046,32.1492537 26.1546667,32.1020787 26.1955862,32.0507412 L26.2369655,32.0003287 C26.2751264,31.9526912 26.3123678,31.9050537 26.344092,31.8638912 L26.4852414,31.6775037 C26.5008736,31.6571537 26.516046,31.6363412 26.5312184,31.6155287 C26.6544368,31.4467162 26.7721379,31.2755912 26.8815632,31.1063162 L26.9105287,31.0619162 C26.9450115,31.0082662 26.9790345,30.9541537 26.9997241,30.9199287 L27.0397241,30.8547162 C27.0728276,30.8006037 27.105931,30.7460287 27.1302989,30.7039412 L27.1643218,30.6456662 C27.3096092,30.3940662 27.4457011,30.1359912 27.5592644,29.8954912 L27.5863908,29.8386037 C27.6135172,29.7812537 27.6392644,29.7234412 27.6650115,29.6660912 L27.6912184,29.6078162 C27.7165057,29.5495412 27.7417931,29.4917287 27.7657011,29.4329912 L27.7813333,29.3950662 C27.7854713,29.3853537 27.7896092,29.3751787 27.7937471,29.3650037 C27.8282299,29.3354037 27.8645517,29.3039537 27.9077701,29.2669537 L28.8121379,28.3997662 C28.8512184,28.3586037 28.8898391,28.3169787 28.9188046,28.2850662 L29.3822529,27.7420912 C29.4434023,27.6648537 29.504092,27.5871537 29.5730575,27.4955787 L30.0571954,26.7898037 L30.5923678,25.8046787 C30.6144368,25.7570412 30.636046,25.7084787 30.6663908,25.6395662 L30.7050115,25.5516912 C30.728,25.4989662 30.7496092,25.4457787 30.7813333,25.3666912 L30.8171954,25.2774287 C30.8516782,25.1895537 30.8843218,25.1007537 30.911908,25.0225912 L30.944092,24.9277787 C30.9652414,24.8648787 30.985931,24.8024412 31.0070805,24.7349162 L31.0388046,24.6290037 C31.0567356,24.5693412 31.0742069,24.5096787 31.0838621,24.4736037 L31.1183448,24.3431787 C31.1321379,24.2886037 31.145931,24.2344912 31.1565057,24.1900912 C31.168,24.1419912 31.1790345,24.0934287 31.1850115,24.0666037 C31.1969655,24.0120287 31.2084598,23.9579162 31.2236322,23.8839162 L31.2457011,23.7678287 C31.2553563,23.7127912 31.2650115,23.6572912 31.2714483,23.6161287 L31.2912184,23.4907912 C31.3008736,23.4302037 31.3086897,23.3691537 31.3132874,23.3303037 L31.3298391,23.1947912 C31.3367356,23.1332787 31.3427126,23.0713037 31.3482299,23.0051662 L31.3565057,22.9075787 C31.3615632,22.8386662 31.3652414,22.7692912 31.3689195,22.6939037 L31.3735172,22.6046412 C31.3767356,22.5075162 31.3785747,22.4103912 31.3785747,22.3128037 C31.3785747,22.2078162 31.3767356,22.1032912 31.3725977,22.0029287 L31.3647816,21.8544662 C31.362023,21.8003537 31.3588046,21.7462412 31.3555862,21.7023037 C31.3514483,21.6477287 31.345931,21.5936162 31.3381149,21.5173037 L31.3247816,21.3836412 C31.3169655,21.3184287 31.3082299,21.2532162 31.2994943,21.1917037 L31.2857011,21.0922662 C31.2737471,21.0159537 31.2604138,20.9401037 31.2502989,20.8864537 C31.2447816,20.8517662 31.2388046,20.8175412 31.2351264,20.7985787 C31.2208736,20.7245787 31.2052414,20.6505787 31.1877701,20.5714912 L31.1712184,20.4956412 C31.1523678,20.4137787 31.1316782,20.3319162 31.1109885,20.2532912 L31.1004138,20.2130537 C31.0769655,20.1251787 31.0516782,20.0377662 31.0254713,19.9508162 L31.0121379,19.9064162 C30.9946667,19.8499912 30.9762759,19.7931037 30.9569655,19.7362162 L30.9224828,19.6340037 C30.8902989,19.5415037 30.8562759,19.4494662 30.8194943,19.3537287 C30.7693793,19.2251537 30.7165057,19.0970412 30.659954,18.9698537 C30.6677701,18.9550537 30.6751264,18.9402537 30.6824828,18.9254537 L30.6958161,18.9000162 C30.7344368,18.8227787 30.7712184,18.7450787 30.8075402,18.6673787 L30.8342069,18.6077162 C30.8645517,18.5411162 30.8935172,18.4740537 30.9211034,18.4065287 L30.9390345,18.3635162 C30.9702989,18.2867412 31.0001839,18.2095037 31.0286897,18.1322662 L31.0443218,18.0897162 C31.0723678,18.0129412 31.0976552,17.9357037 31.1151264,17.8820537 L31.1404138,17.8048162 C31.1638621,17.7317412 31.1850115,17.6582037 31.208,17.5749537 L31.2208736,17.5291662 C31.2406437,17.4570162 31.2581149,17.3844037 31.276046,17.3104037 L31.293977,17.2322412 C31.3091494,17.1651787 31.3224828,17.0976537 31.3353563,17.0305912 L31.3537471,16.9353162 C31.3657011,16.8673287 31.3762759,16.7993412 31.3836322,16.7452287 C31.390069,16.7068412 31.396046,16.6684537 31.3983448,16.6485662 C31.4070805,16.5810412 31.4144368,16.5125912 31.4208736,16.4506162 L31.4314483,16.3493287 C31.4378851,16.2804162 31.442023,16.2115037 31.4457011,16.1421287 L31.4507586,16.0574912 C31.4553563,15.9575912 31.4576552,15.8567662 31.4576552,15.7564037 C31.4576552,15.6639037 31.4553563,15.5718662 31.4507586,15.4516162 L31.4507586,15.4516162 Z" id="Fill-4" sketch:type="MSShapeGroup"></path>
            <path d="M52.8569655,21.0622037 C53.1296092,21.0622037 53.3608736,21.0201162 53.5493793,20.9354787 C54.1374253,20.6820287 54.4523678,19.9855038 54.4523678,19.2885163 C54.4523678,18.4019037 53.9484598,17.7261912 52.8776552,17.7261912 L50.6946667,17.7261912 L50.6946667,21.0622037 L52.8569655,21.0622037 Z M52.542023,14.7698912 C53.4657011,14.7698912 53.8643218,14.1149912 53.8643218,13.3130162 C53.8643218,12.7853037 53.6542069,12.2150412 53.171908,12.0036787 C52.8988046,11.8982287 52.6468506,11.8774163 52.2482299,11.8774163 L50.6946667,11.8774163 L50.6946667,14.7698912 L52.542023,14.7698912 Z M45.2583448,21.2735662 L46.9374253,21.2735662 L46.9374253,11.6660538 L45.2583448,11.6660538 L45.2583448,8.92111625 L52.2693793,8.92111625 C53.4445517,8.92111625 54.1792644,8.96320375 55.0188046,9.23792875 C56.5930575,9.78691625 57.6427126,11.0957913 57.6427126,12.8482037 C57.6427126,14.1575413 57.033977,15.4247912 55.8583448,16.0792287 L55.8583448,16.1213162 C57.6427126,16.6703038 58.2514483,18.1484537 58.2514483,19.5840537 C58.2514483,21.8646413 56.6771954,23.3640662 54.913977,23.8071412 C54.1162759,23.9972287 53.4863908,24.0185037 52.668,24.0185037 L45.2583448,24.0185037 L45.2583448,21.2735662 Z" id="Fill-5" sketch:type="MSShapeGroup"></path>
            <path d="M65.6607356,17.2402425 C65.6607356,16.3744425 65.0938391,15.6353675 64.2965977,15.6353675 C63.2469425,15.6353675 62.7430345,16.3957175 62.554069,17.2402425 L65.6607356,17.2402425 Z M64.3802759,12.8908925 C67.6129195,12.8908925 69.417977,15.12893 69.417977,18.14813 C69.417977,18.50703 69.3342989,19.246105 69.3342989,19.246105 L62.4703908,19.246105 C62.7430345,20.64008 63.8345287,21.25243 64.9890115,21.25243 C66.5844138,21.25243 68.0326897,20.217355 68.0326897,20.217355 L69.3549885,22.7513925 C69.3549885,22.7513925 67.6129195,24.27163 64.6952184,24.27163 C60.8331494,24.27163 58.7549885,21.46333 58.7549885,18.5703925 C58.7549885,15.3819175 60.8956782,12.8908925 64.3802759,12.8908925 L64.3802759,12.8908925 Z" id="Fill-6" sketch:type="MSShapeGroup"></path>
            <path d="M76.6177471,17.2402425 C76.6177471,16.3744425 76.0513103,15.6353675 75.2531494,15.6353675 C74.203954,15.6353675 73.700046,16.3957175 73.5110805,17.2402425 L76.6177471,17.2402425 Z M75.3372874,12.8908925 C78.569931,12.8908925 80.3749885,15.12893 80.3749885,18.14813 C80.3749885,18.50703 80.2908506,19.246105 80.2908506,19.246105 L73.4274023,19.246105 C73.700046,20.64008 74.7915402,21.25243 75.946023,21.25243 C77.5414253,21.25243 78.9897011,20.217355 78.9897011,20.217355 L80.312,22.7513925 C80.312,22.7513925 78.569931,24.27163 75.6522299,24.27163 C71.7901609,24.27163 69.7115402,21.46333 69.7115402,18.5703925 C69.7115402,15.3819175 71.8531494,12.8908925 75.3372874,12.8908925 L75.3372874,12.8908925 Z" id="Fill-7" sketch:type="MSShapeGroup"></path>
            <path d="M80.312092,21.3788312 L81.6766897,21.3788312 L81.6766897,11.5604187 L80.2068046,11.5604187 L80.2068046,8.92093125 L85.307954,8.92093125 L85.307954,13.6930062 C85.307954,14.2419937 85.2656552,14.6221687 85.2656552,14.6221687 L85.307954,14.6221687 C85.9162299,13.5454687 87.176,12.8905687 88.6031264,12.8905687 C90.7861149,12.8905687 92.4868046,13.9043687 92.4868046,16.9656563 L92.4868046,21.3788312 L93.8509425,21.3788312 L93.8509425,24.0183187 L88.8550805,24.0183187 L88.8550805,17.6413687 C88.8550805,16.6280312 88.4564598,16.2057687 87.6587586,16.2057687 C86.0633563,16.2057687 85.307954,17.6413687 85.307954,19.2041562 L85.307954,21.3788312 L86.672092,21.3788312 L86.672092,24.0183187 L80.312092,24.0183187 L80.312092,21.3788312 Z" id="Fill-8" sketch:type="MSShapeGroup"></path>
            <path d="M95.0050575,8.9211625 L98.5526437,8.9211625 L98.5526437,11.77155 L95.0050575,11.77155 L95.0050575,8.9211625 Z M93.5986207,21.3786 L94.9632184,21.3786 L94.9632184,15.783275 L93.4937931,15.783275 L93.4937931,13.14425 L98.5944828,13.14425 L98.5944828,21.3786 L99.9586207,21.3786 L99.9586207,24.0180875 L93.5986207,24.0180875 L93.5986207,21.3786 Z" id="Fill-9" sketch:type="MSShapeGroup"></path>
            <path d="M99.1397701,13.1441575 L104.891494,13.1441575 L104.891494,15.783645 L103.925517,15.783645 L105.164138,19.7107325 C105.394943,20.36517 105.457931,21.146795 105.457931,21.146795 L105.542069,21.146795 C105.542069,21.146795 105.605057,20.36517 105.835862,19.7107325 L107.074483,15.783645 L106.108506,15.783645 L106.108506,13.1441575 L111.86023,13.1441575 L111.86023,15.783645 L110.642759,15.783645 L107.64092,24.0184575 L103.35908,24.0184575 L100.357241,15.783645 L99.1397701,15.783645 L99.1397701,13.1441575 Z" id="Fill-10" sketch:type="MSShapeGroup"></path>
            <path d="M118.22023,17.2402425 C118.22023,16.3744425 117.653793,15.6353675 116.855632,15.6353675 C115.806437,15.6353675 115.302529,16.3957175 115.113563,17.2402425 L118.22023,17.2402425 Z M116.93977,12.8908925 C120.172414,12.8908925 121.977471,15.12893 121.977471,18.14813 C121.977471,18.50703 121.893333,19.246105 121.893333,19.246105 L115.029885,19.246105 C115.302529,20.64008 116.394023,21.25243 117.548506,21.25243 C119.143908,21.25243 120.592184,20.217355 120.592184,20.217355 L121.914483,22.7513925 C121.914483,22.7513925 120.172414,24.27163 117.254713,24.27163 C113.392644,24.27163 111.314023,21.46333 111.314023,18.5703925 C111.314023,15.3819175 113.455632,12.8908925 116.93977,12.8908925 L116.93977,12.8908925 Z" id="Fill-11" sketch:type="MSShapeGroup"></path>
            <path d="M124.811448,19.87973 L124.811448,20.95643 C124.811448,22.202405 126.343862,22.920205 128.044092,22.920205 C129.954437,22.920205 131.339264,21.97023 131.339264,20.23863 C131.339264,18.29613 129.555356,17.6204175 127.645011,16.9026175 C125.713977,16.1635425 123.698805,15.3819175 123.698805,12.78498 C123.698805,10.1880425 125.776966,8.921255 128.191218,8.921255 C130.290069,8.921255 132.451908,9.744505 132.451908,11.2434675 L132.451908,12.8270675 L131.045931,12.8270675 L131.045931,11.7290925 C131.045931,10.7791175 129.513517,10.27268 128.191218,10.27268 C126.511678,10.27268 125.210069,11.09593 125.210069,12.67953 C125.210069,14.47403 126.805471,15.0442925 128.589839,15.74128 C130.730989,16.5437175 132.850529,17.3669675 132.850529,20.0910925 C132.850529,22.709305 130.772828,24.27163 128.044092,24.27163 C125.924092,24.27163 123.405011,23.3211925 123.405011,21.2945175 L123.405011,19.87973 L124.811448,19.87973 Z" id="Fill-12" sketch:type="MSShapeGroup"></path>
            <path d="M135.894437,14.5799888 L134.005241,14.5799888 L134.005241,13.3973763 L135.915586,13.3973763 L135.915586,10.4623513 L137.321563,10.4623513 L137.321563,13.3973763 L139.98731,13.3973763 L139.98731,14.5799888 L137.321563,14.5799888 L137.321563,20.0273138 C137.321563,22.5192638 138.895816,22.8568888 139.714667,22.8568888 C140.00846,22.8568888 140.197425,22.8148013 140.197425,22.8148013 L140.197425,24.0607763 C140.197425,24.0607763 139.945931,24.1028638 139.58869,24.1028638 C138.371218,24.1028638 135.894437,23.7018763 135.894437,20.1545013 L135.894437,14.5799888 Z" id="Fill-13" sketch:type="MSShapeGroup"></path>
            <path d="M144.857241,23.0892488 C146.977241,23.0892488 148.173563,20.9566613 148.173563,19.0983362 L148.173563,18.5914362 L147.565287,18.5914362 C146.704598,18.5914362 142.590115,18.5072613 142.590115,20.9566613 C142.590115,22.0546362 143.387816,23.0892488 144.857241,23.0892488 M147.481149,17.5147363 L148.173563,17.5147363 L148.173563,17.0711988 C148.173563,15.0866113 147.103218,14.3896238 145.633793,14.3896238 C143.849885,14.3896238 142.568966,15.4246988 142.568966,15.4246988 L141.897701,14.3475363 C141.897701,14.3475363 143.324828,13.1441113 145.717931,13.1441113 C148.278391,13.1441113 149.601149,14.5163488 149.601149,17.1345613 L149.601149,22.3714487 C149.601149,22.6882613 149.768966,22.8357988 150.062759,22.8357988 L151.217241,22.8357988 L151.217241,24.0184113 L149.496322,24.0184113 C148.593333,24.0184113 148.237011,23.6174238 148.237011,22.8570738 L148.237011,22.6669863 C148.237011,22.1600863 148.29954,21.8437363 148.29954,21.8437363 L148.257701,21.8437363 C148.257701,21.8437363 147.355172,24.2718613 144.647126,24.2718613 C142.926207,24.2718613 141.121149,23.2793363 141.121149,21.1041988 C141.121149,17.6627363 145.696782,17.5147363 147.481149,17.5147363" id="Fill-14" sketch:type="MSShapeGroup"></path>
            <path d="M152.014667,22.835845 L153.652368,22.835845 L153.652368,15.0441075 C153.652368,14.7277575 153.484092,14.5797575 153.190299,14.5797575 L151.762713,14.5797575 L151.762713,13.3976075 L153.757195,13.3976075 C154.638575,13.3976075 155.037195,13.7565075 155.037195,14.6010325 L155.037195,15.3188325 C155.037195,15.76237 154.995356,16.12127 154.995356,16.12127 L155.037195,16.12127 C155.562253,14.516395 156.737425,13.291695 158.374667,13.291695 C158.66892,13.291695 158.962713,13.3550575 158.962713,13.3550575 L158.962713,14.769845 C158.962713,14.769845 158.690069,14.7277575 158.416966,14.7277575 C156.045011,14.7277575 155.079494,17.4093325 155.079494,19.520645 L155.079494,22.835845 L156.716736,22.835845 L156.716736,24.0184575 L152.014667,24.0184575 L152.014667,22.835845 Z" id="Fill-15" sketch:type="MSShapeGroup"></path>
            <path d="M162.005931,14.5799888 L160.116736,14.5799888 L160.116736,13.3973763 L162.026621,13.3973763 L162.026621,10.4623513 L163.433057,10.4623513 L163.433057,13.3973763 L166.099264,13.3973763 L166.099264,14.5799888 L163.433057,14.5799888 L163.433057,20.0273138 C163.433057,22.5192638 165.00777,22.8568888 165.826161,22.8568888 C166.119954,22.8568888 166.30892,22.8148013 166.30892,22.8148013 L166.30892,24.0607763 C166.30892,24.0607763 166.056966,24.1028638 165.700184,24.1028638 C164.482713,24.1028638 162.005931,23.7018763 162.005931,20.1545013 L162.005931,14.5799888 Z" id="Fill-16" sketch:type="MSShapeGroup"></path>
            <path d="M167.841287,14.5799888 L165.952092,14.5799888 L165.952092,13.3973763 L169.268414,13.3973763 L169.268414,19.7951388 C169.268414,21.4633763 169.520368,22.9415263 171.577379,22.9415263 C173.949333,22.9415263 175.460598,20.7455763 175.460598,18.4437138 L175.460598,14.5799888 L173.571402,14.5799888 L173.571402,13.3973763 L176.888184,13.3973763 L176.888184,22.3925388 C176.888184,22.7093513 177.056,22.8568888 177.349793,22.8568888 L178.546115,22.8568888 L178.546115,24.0182263 L176.762207,24.0182263 C175.880368,24.0182263 175.502897,23.6380513 175.502897,22.8360763 L175.502897,22.3079013 C175.502897,21.8856388 175.523586,21.5475513 175.523586,21.5475513 L175.481747,21.5475513 C175.208644,22.3504513 173.907494,24.2716763 171.304736,24.2716763 C168.869793,24.2716763 167.841287,22.9202513 167.841287,20.1545013 L167.841287,14.5799888 Z" id="Fill-17" sketch:type="MSShapeGroup"></path>
            <path d="M185.178989,22.9835675 C187.047034,22.9835675 188.600598,21.4212425 188.600598,18.7183925 C188.600598,16.121455 187.214851,14.4532175 185.241977,14.4532175 C183.478759,14.4532175 181.841517,15.720005 181.841517,18.7396675 C181.841517,20.872255 183.01669,22.9835675 185.178989,22.9835675 L185.178989,22.9835675 Z M180.43508,27.0591175 L180.43508,15.0442925 C180.43508,14.72748 180.267264,14.5799425 179.973471,14.5799425 L178.545885,14.5799425 L178.545885,13.39733 L180.540368,13.39733 C181.442897,13.39733 181.799678,13.777505 181.799678,14.51658 L181.799678,14.600755 C181.799678,15.02348 181.73669,15.3402925 181.73669,15.3402925 L181.778529,15.3402925 C181.778529,15.3402925 182.639218,13.1443425 185.472782,13.1443425 C188.306345,13.1443425 190.069563,15.4244675 190.069563,18.7183925 C190.069563,22.07568 188.07554,24.27163 185.326115,24.27163 C182.785885,24.27163 181.841517,22.1603175 181.841517,22.1603175 L181.799678,22.1603175 C181.799678,22.1603175 181.862667,22.5404925 181.862667,23.08948 L181.862667,27.0591175 L183.646575,27.0591175 L183.646575,28.2412675 L178.650713,28.2412675 L178.650713,27.0591175 L180.43508,27.0591175 Z" id="Fill-18" sketch:type="MSShapeGroup"></path>
            <path d="M191.602069,20.7243475 L192.903218,20.7243475 L192.903218,21.4846975 C192.903218,22.5613975 194.435632,23.02621 195.653103,23.02621 C196.996552,23.02621 198.129885,22.4346725 198.129885,21.3579725 C198.129885,20.1332725 196.786437,19.71101 195.275172,19.1407475 C193.68023,18.5496725 192.00069,17.83141 192.00069,15.9735475 C192.00069,14.030585 193.889885,13.1439725 195.653103,13.1439725 C197.08069,13.1439725 199.158851,13.7563225 199.158851,15.2131975 L199.158851,16.4378975 L197.856782,16.4378975 L197.856782,15.656735 C197.856782,14.8755725 196.807586,14.3899475 195.694943,14.3899475 C194.51977,14.3899475 193.470115,14.896385 193.470115,15.93146 C193.470115,17.092335 194.750575,17.57796 196.135862,18.08486 C197.773103,18.675935 199.578621,19.3729225 199.578621,21.273335 C199.578621,23.110385 197.94092,24.2717225 195.590115,24.2717225 C193.637931,24.2717225 191.602069,23.3846475 191.602069,21.75896 L191.602069,20.7243475 Z" id="Fill-19" sketch:type="MSShapeGroup"></path>
        </g>
    </g>
</svg>