<?xml version="1.0" encoding="UTF-8" standalone="no"?>
<svg width="34px" height="34px" viewBox="0 0 34 34" version="1.1" xmlns="http://www.w3.org/2000/svg" xmlns:xlink="http://www.w3.org/1999/xlink" xmlns:sketch="http://www.bohemiancoding.com/sketch/ns">
    <!-- Generator: Sketch 3.3.1 (12002) - http://www.bohemiancoding.com/sketch -->
    <title>domo_white</title>
    <desc>Created with Sketch.</desc>
    <defs></defs>
    <g id="Page-1" stroke="none" stroke-width="1" fill="none" fill-rule="evenodd" sketch:type="MSPage">
        <g id="domo_white" sketch:type="MSLayerGroup" transform="translate(0.402365, 0.783760)">
            <path d="M6.22160996,13.5823123 C6.73263092,14.1546276 7.09655356,14.8609806 7.25452203,15.6420194 C7.66225592,13.6248836 9.44475358,12.1062453 11.582081,12.1062453 C13.719615,12.1062453 15.5023194,13.6252555 15.9098053,15.642722 L15.9098053,12.1062453 L20.325152,16.5214681 L24.7530635,12.1062453 L24.7530635,15.642722 C25.1605907,13.6252555 26.9432124,12.1062453 29.0807878,12.1062453 C30.837164,12.1062453 32.353901,13.1318417 33.0650898,14.6167536 L33.0650898,0 L0,0 L0,12.1062453 L2.92716974,12.1062453 C4.23675395,12.1062453 5.41300318,12.6766594 6.22160996,13.5823123" id="Fill-1" fill="#FFFFFF" sketch:type="MSShapeGroup"></path>
            <path d="M29.0807878,20.9368562 C26.9432124,20.9368562 25.1605907,19.417846 24.7530635,17.4003795 L24.7530635,20.9368562 L23.2643905,20.9368562 L23.2643905,15.65632 L20.325152,18.6082886 L17.3730595,15.65632 L17.3730595,20.9368562 L15.9098053,20.9368562 L15.9098053,17.4003795 C15.5023194,19.417846 13.719615,20.9368562 11.582081,20.9368562 C9.44475358,20.9368562 7.66225592,19.4181766 7.25452203,17.4010821 C7.09651223,18.1821622 6.73258959,18.8885152 6.22152729,19.4608719 C5.41292052,20.3664834 4.23671262,20.9368562 2.92716974,20.9368562 L0,20.9368562 L0,33.0650898 L33.0650898,33.0650898 L33.0650898,18.4263066 C32.353901,19.9112598 30.837164,20.9368562 29.0807878,20.9368562" id="Fill-2" fill="#FFFFFF" sketch:type="MSShapeGroup"></path>
            <path d="M11.582081,19.4677742 C13.209214,19.4677742 14.5283045,18.1486838 14.5283045,16.5215094 C14.5283045,14.8944177 13.209214,13.5753273 11.582081,13.5753273 C9.95490658,13.5753273 8.63585749,14.8944177 8.63585749,16.5215094 C8.63585749,18.1486838 9.95490658,19.4677742 11.582081,19.4677742" id="Fill-3" fill="#FFFFFF" sketch:type="MSShapeGroup"></path>
            <path d="M5.8733519,16.5215094 C5.8733519,14.9592666 4.65713523,13.6817142 3.11998054,13.5823123 L1.46325422,13.5823123 L1.46325422,19.4608719 L3.11890592,19.4608719 C4.65659792,19.361966 5.8733519,18.0842069 5.8733519,16.5215094" id="Fill-4" fill="#FFFFFF" sketch:type="MSShapeGroup"></path>
            <path d="M29.0807878,19.4677742 C30.7078795,19.4677742 32.0270526,18.1486838 32.0270526,16.5215094 C32.0270526,14.8944177 30.7078795,13.5753273 29.0807878,13.5753273 C27.4536134,13.5753273 26.1345643,14.8944177 26.1345643,16.5215094 C26.1345643,18.1486838 27.4536134,19.4677742 29.0807878,19.4677742" id="Fill-5" fill="#FFFFFF" sketch:type="MSShapeGroup"></path>
            <path d="M6.22152729,19.4608719 C6.73258959,18.8885152 7.09651223,18.1821622 7.25452203,17.4010821 C7.66225592,19.4181766 9.44475358,20.9368562 11.582081,20.9368562 C13.719615,20.9368562 15.5023194,19.417846 15.9098053,17.4003795 L15.9098053,20.9368562 L17.3730595,20.9368562 L17.3730595,15.65632 L20.325152,18.6082886 L23.2643905,15.65632 L23.2643905,20.9368562 L24.7530635,20.9368562 L24.7530635,17.4003795 C25.1605907,19.417846 26.9432124,20.9368562 29.0807878,20.9368562 C30.837164,20.9368562 32.353901,19.9112598 33.0650898,18.4263066 L33.0650898,14.6167536 C32.353901,13.1318417 30.837164,12.1062453 29.0807878,12.1062453 C26.9432124,12.1062453 25.1605907,13.6252555 24.7530635,15.642722 L24.7530635,12.1062453 L20.325152,16.5214681 L15.9098053,12.1062453 L15.9098053,15.642722 C15.5023194,13.6252555 13.719615,12.1062453 11.582081,12.1062453 C9.44475358,12.1062453 7.66225592,13.6248836 7.25452203,15.6420194 C7.09655356,14.8609806 6.73263092,14.1546276 6.22160996,13.5823123 C5.41300318,12.6766594 4.23675395,12.1062453 2.92716974,12.1062453 L0,12.1062453 L0,20.9368562 L2.92716974,20.9368562 C4.23671262,20.9368562 5.41292052,20.3664834 6.22152729,19.4608719 L6.22152729,19.4608719 Z M29.0807878,13.5753273 C30.7078795,13.5753273 32.0270526,14.8944177 32.0270526,16.5215094 C32.0270526,18.1486838 30.7078795,19.4677742 29.0807878,19.4677742 C27.4536134,19.4677742 26.1345643,18.1486838 26.1345643,16.5215094 C26.1345643,14.8944177 27.4536134,13.5753273 29.0807878,13.5753273 L29.0807878,13.5753273 Z M11.582081,13.5753273 C13.209214,13.5753273 14.5283045,14.8944177 14.5283045,16.5215094 C14.5283045,18.1486838 13.209214,19.4677742 11.582081,19.4677742 C9.95490658,19.4677742 8.63585749,18.1486838 8.63585749,16.5215094 C8.63585749,14.8944177 9.95490658,13.5753273 11.582081,13.5753273 L11.582081,13.5753273 Z M1.46325422,13.5823123 L3.11998054,13.5823123 C4.65713523,13.6817142 5.8733519,14.9592666 5.8733519,16.5215094 C5.8733519,18.0842069 4.65659792,19.361966 3.11890592,19.4608719 L1.46325422,19.4608719 L1.46325422,13.5823123 L1.46325422,13.5823123 Z" id="Fill-6" sketch:type="MSShapeGroup"></path>
        </g>
    </g>
</svg>