<?xml version="1.0" encoding="UTF-8" standalone="no"?>
<svg width="91px" height="90px" viewBox="0 0 91 90" version="1.1" xmlns="http://www.w3.org/2000/svg" xmlns:xlink="http://www.w3.org/1999/xlink" xmlns:sketch="http://www.bohemiancoding.com/sketch/ns">
    <!-- Generator: Sketch 3.3.1 (12002) - http://www.bohemiancoding.com/sketch -->
    <title>domo</title>
    <desc>Created with Sketch.</desc>
    <defs></defs>
    <g id="Page-1" stroke="none" stroke-width="1" fill="none" fill-rule="evenodd" sketch:type="MSPage">
        <g id="domo" sketch:type="MSLayerGroup" transform="translate(0.934910, 0.000000)">
            <path d="M16.934625,36.96975 C18.325575,38.5275375 19.3161375,40.4501625 19.7461125,42.576075 C20.855925,37.085625 25.7077125,32.9520375 31.5253125,32.9520375 C37.343475,32.9520375 42.195825,37.0866375 43.3049625,42.5779875 L43.3049625,32.9520375 L55.3231125,44.96985 L67.3754625,32.9520375 L67.3754625,42.5779875 C68.4847125,37.0866375 73.3368375,32.9520375 79.1551125,32.9520375 C83.9358,32.9520375 88.0642125,35.7436125 90,39.7854 L90,0 L0,0 L0,32.9520375 L7.967475,32.9520375 C11.5320375,32.9520375 14.733675,34.50465 16.934625,36.96975" id="Fill-1" fill="#333333" sketch:type="MSShapeGroup"></path>
            <path d="M79.1551125,56.9881125 C73.3368375,56.9881125 68.4847125,52.8535125 67.3754625,47.3621625 L67.3754625,56.9881125 L63.3234375,56.9881125 L63.3234375,42.615 L55.3231125,50.649975 L47.2878,42.615 L47.2878,56.9881125 L43.3049625,56.9881125 L43.3049625,47.3621625 C42.195825,52.8535125 37.343475,56.9881125 31.5253125,56.9881125 C25.7077125,56.9881125 20.855925,52.8544125 19.7461125,47.364075 C19.316025,49.4901 18.3254625,51.412725 16.9344,52.970625 C14.73345,55.4356125 11.531925,56.9881125 7.967475,56.9881125 L0,56.9881125 L0,90 L90,90 L90,50.1546375 C88.0642125,54.1965375 83.9358,56.9881125 79.1551125,56.9881125" id="Fill-2" fill="#333333" sketch:type="MSShapeGroup"></path>
            <path d="M31.5253125,52.9894125 C35.9542125,52.9894125 39.54465,49.398975 39.54465,44.9699625 C39.54465,40.541175 35.9542125,36.9507375 31.5253125,36.9507375 C27.0963,36.9507375 23.505975,40.541175 23.505975,44.9699625 C23.505975,49.398975 27.0963,52.9894125 31.5253125,52.9894125" id="Fill-3" fill="#333333" sketch:type="MSShapeGroup"></path>
            <path d="M15.9867,44.9699625 C15.9867,40.7176875 12.676275,37.2403125 8.4922875,36.96975 L3.9828375,36.96975 L3.9828375,52.970625 L8.4893625,52.970625 C12.6748125,52.7014125 15.9867,49.223475 15.9867,44.9699625" id="Fill-4" fill="#333333" sketch:type="MSShapeGroup"></path>
            <path d="M79.1551125,52.9894125 C83.5839,52.9894125 87.1745625,49.398975 87.1745625,44.9699625 C87.1745625,40.541175 83.5839,36.9507375 79.1551125,36.9507375 C74.7261,36.9507375 71.135775,40.541175 71.135775,44.9699625 C71.135775,49.398975 74.7261,52.9894125 79.1551125,52.9894125" id="Fill-5" fill="#333333" sketch:type="MSShapeGroup"></path>
            <path d="M16.9344,52.970625 C18.3254625,51.412725 19.316025,49.4901 19.7461125,47.364075 C20.855925,52.8544125 25.7077125,56.9881125 31.5253125,56.9881125 C37.343475,56.9881125 42.195825,52.8535125 43.3049625,47.3621625 L43.3049625,56.9881125 L47.2878,56.9881125 L47.2878,42.615 L55.3231125,50.649975 L63.3234375,42.615 L63.3234375,56.9881125 L67.3754625,56.9881125 L67.3754625,47.3621625 C68.4847125,52.8535125 73.3368375,56.9881125 79.1551125,56.9881125 C83.9358,56.9881125 88.0642125,54.1965375 90,50.1546375 L90,39.7854 C88.0642125,35.7436125 83.9358,32.9520375 79.1551125,32.9520375 C73.3368375,32.9520375 68.4847125,37.0866375 67.3754625,42.5779875 L67.3754625,32.9520375 L55.3231125,44.96985 L43.3049625,32.9520375 L43.3049625,42.5779875 C42.195825,37.0866375 37.343475,32.9520375 31.5253125,32.9520375 C25.7077125,32.9520375 20.855925,37.085625 19.7461125,42.576075 C19.3161375,40.4501625 18.325575,38.5275375 16.934625,36.96975 C14.733675,34.50465 11.5320375,32.9520375 7.967475,32.9520375 L0,32.9520375 L0,56.9881125 L7.967475,56.9881125 C11.531925,56.9881125 14.73345,55.4356125 16.9344,52.970625 L16.9344,52.970625 Z M79.1551125,36.9507375 C83.5839,36.9507375 87.1745625,40.541175 87.1745625,44.9699625 C87.1745625,49.398975 83.5839,52.9894125 79.1551125,52.9894125 C74.7261,52.9894125 71.135775,49.398975 71.135775,44.9699625 C71.135775,40.541175 74.7261,36.9507375 79.1551125,36.9507375 L79.1551125,36.9507375 Z M31.5253125,36.9507375 C35.9542125,36.9507375 39.54465,40.541175 39.54465,44.9699625 C39.54465,49.398975 35.9542125,52.9894125 31.5253125,52.9894125 C27.0963,52.9894125 23.505975,49.398975 23.505975,44.9699625 C23.505975,40.541175 27.0963,36.9507375 31.5253125,36.9507375 L31.5253125,36.9507375 Z M3.9828375,36.96975 L8.4922875,36.96975 C12.676275,37.2403125 15.9867,40.7176875 15.9867,44.9699625 C15.9867,49.223475 12.6748125,52.7014125 8.4893625,52.970625 L3.9828375,52.970625 L3.9828375,36.96975 L3.9828375,36.96975 Z" id="Fill-6" sketch:type="MSShapeGroup"></path>
        </g>
    </g>
</svg>