<?xml version="1.0" encoding="UTF-8" standalone="no"?>
<svg width="200px" height="50px" viewBox="0 0 200 50" version="1.1" xmlns="http://www.w3.org/2000/svg" xmlns:xlink="http://www.w3.org/1999/xlink" xmlns:sketch="http://www.bohemiancoding.com/sketch/ns">
    <!-- Generator: Sketch 3.2.2 (9983) - http://www.bohemiancoding.com/sketch -->
    <title>experticity</title>
    <desc>Created with Sketch.</desc>
    <defs>
        <path id="path-1" d="M0,0.0221854305 L199.930179,0.0221854305 L199.930179,49.9801325 L0,49.9801325"></path>
    </defs>
    <g id="Page-1" stroke="none" stroke-width="1" fill="none" fill-rule="evenodd" sketch:type="MSPage">
        <g id="experticity" sketch:type="MSLayerGroup" transform="translate(0.113547, 0.000000)">
            <path d="M193.665579,33.3900662 C192.968679,33.3900662 192.415334,32.8241722 192.403915,32.1043046 C192.392822,31.3844371 192.928548,30.818543 193.625122,30.818543 C194.321697,30.818543 194.879935,31.3844371 194.891354,32.1043046 C194.902447,32.8241722 194.36248,33.3900662 193.665579,33.3900662 M193.621207,30.5980132 C192.801631,30.5980132 192.149103,31.2721854 192.162153,32.1043046 C192.175204,32.936755 192.849592,33.610596 193.669168,33.610596 C194.488418,33.610596 195.141599,32.936755 195.128548,32.1043046 C195.115171,31.2721854 194.441109,30.5980132 193.621207,30.5980132" id="Fill-1" fill="#DC4039" sketch:type="MSShapeGroup"></path>
            <g id="Group-5">
                <mask id="mask-2" sketch:name="Clip 3" fill="white">
                    <use xlink:href="#path-1"></use>
                </mask>
                <g id="Clip-3"></g>
                <path d="M193.803263,31.9837748 C193.774878,32.0129139 193.738662,32.0291391 193.68907,32.0291391 L193.492659,32.0291391 L193.48385,31.4887417 L193.680587,31.4887417 C193.729527,31.4887417 193.770962,31.5049669 193.8,31.534106 C193.84633,31.5844371 193.850897,31.6509934 193.852855,31.7589404 C193.854486,31.8672185 193.847635,31.9334437 193.803263,31.9837748 M193.973246,32.1251656 C194.058075,32.0377483 194.077325,31.9380795 194.074062,31.7589404 C194.071126,31.5801325 194.045024,31.4678808 193.957912,31.3804636 C193.890701,31.3135762 193.800326,31.2807947 193.677325,31.2807947 L193.25938,31.2807947 L193.285481,32.9324503 L193.507015,32.9324503 L193.495922,32.2334437 L193.688091,32.2334437 L193.912561,32.9324503 L194.141925,32.9324503 L193.892333,32.1877483 C193.920718,32.1711921 193.949103,32.1503311 193.973246,32.1251656" id="Fill-2" fill="#333333" sketch:type="MSShapeGroup" mask="url(#mask-2)"></path>
                <path d="M160.709625,29.6824503 C160.345188,29.915894 159.998695,30.1261589 159.687765,30.2897351 C155.783361,32.2940397 154.189233,31.6533113 154.902447,29.9201987 C154.958564,29.7930464 161.988254,16.7238411 162.222838,16.268543 C162.457096,15.813245 162.173573,15.5119205 161.766069,15.5529801 C161.404894,15.5890728 158.718434,15.9162252 158.279608,16 C157.900489,16.0725166 157.722349,16.2764901 157.573899,16.5327815 C157.438173,16.765894 153.607504,23.9453642 152.158238,26.7235099 C147.784666,29.8642384 143.399021,32.1996689 139.711256,31.8142384 C135.752692,31.4006623 136.144861,27.7519868 137.369331,25.0182119 C138.514519,22.4615894 140.795759,20.6711921 141.617618,20.0119205 C142.384013,19.3976821 143.758238,18.5516556 144.595432,18.5516556 C145.687765,18.5516556 145.850245,19.4384106 145.61925,20.0294702 C145.387928,20.6205298 144.176835,22.5384106 143.731811,23.1758278 C143.65938,23.3152318 143.538336,23.6470199 144.012724,23.6635762 C145.574225,23.5771523 147.25938,23.2056291 148.031321,22.9096026 C148.285155,22.8086093 148.432953,22.665894 148.51354,22.5615894 C149.995432,20.9142384 150.199021,18.7437086 150.158238,18.3817881 C150.088418,17.5950331 149.660033,16.5261589 148.19478,15.8917219 L148.182708,15.8860927 C147.585644,15.6493377 146.474062,15.507947 145.593148,15.507947 C137.738989,15.507947 132.924633,24.0281457 132.924633,24.0281457 C131.94845,25.7847682 131.409135,27.3205298 131.220555,28.6476821 C130.388581,29.2059603 129.54845,29.7778146 128.875693,30.1317881 C124.970636,32.1357616 123.507015,31.6533113 124.220881,29.9201987 C124.276672,29.7930464 131.306688,16.7238411 131.54062,16.268543 C131.775204,15.813245 131.491354,15.5119205 131.084176,15.5529801 C130.723002,15.5890728 128.035889,15.9162252 127.598042,16 C127.218271,16.0725166 127.040457,16.2764901 126.891354,16.5327815 C126.741599,16.7913907 122.035563,25.6135762 121.092333,27.4665563 C119.466884,28.4572848 117.107341,29.6834437 115.905383,30.1652318 C115.359217,30.384106 112.388581,31.4109272 114.020555,28.5142384 C116.038825,24.7231788 120.887765,15.7937086 124.539967,9.07847682 L144.410114,7.89437086 C145.043719,7.85662252 145.240131,8.24635762 144.847635,8.75993377 L142.85677,11.3649007 C142.463948,11.8784768 142.660359,12.2486755 143.292007,12.1877483 L171.417292,9.55099338 C167.810114,16.3327815 162.864274,25.6321192 160.709625,29.6824503 M17.3367047,22.3274834 C17.7892333,21.7715232 18.9425775,20.6764901 19.8433931,20.0741722 C20.622186,19.5539735 22.0352365,18.8225166 23.1628059,18.8950331 C24.0848287,18.955298 24.7911909,19.7731788 24.3203915,20.857947 C23.8923328,21.8443709 21.9879282,22.9718543 19.8936378,23.9582781 C18.3422512,24.6887417 16.6646003,25.2397351 15.314845,25.6662252 C15.7040783,24.5298013 16.8336052,22.944702 17.3367047,22.3274834 M78.3732463,21.7254967 C79.1650897,20.844702 81.8427406,18.6960265 83.611093,18.9655629 C84.9344209,19.1675497 84.9399674,20.2039735 84.5559543,20.9718543 C84.1980424,21.6864238 83.3582382,22.5066225 81.4039152,23.5791391 C79.2544861,24.7586093 77.4538336,25.3440397 75.7233279,25.8400662 C76.496248,23.8761589 77.5455139,22.6466887 78.3732463,21.7254967 M198.971615,5.77913907 L177.848613,6.82781457 C179.731158,3.36887417 181.077977,0.897350993 181.153018,0.758278146 C181.402936,0.29602649 181.155302,-0.0566225166 180.636215,0.0374172185 C180.334095,0.092384106 176.531158,1.01688742 176.336705,1.0794702 C176.141925,1.14238411 175.847308,1.23642384 175.621207,1.6513245 C175.561827,1.76192053 174.400979,3.94271523 172.730832,7.08178808 L151.175856,8.15198675 C150.542251,8.18443709 150.347798,7.79271523 150.74323,7.28178808 L152.841762,4.57152318 C153.237194,4.06059603 153.044046,3.69933775 152.413051,3.76887417 L125.832953,6.70231788 C127.679608,3.3089404 128.994454,0.895695364 129.068842,0.758278146 C129.318434,0.29602649 129.071452,-0.0566225166 128.552039,0.0374172185 C128.249918,0.092384106 124.446982,1.01688742 124.252529,1.0794702 C124.057749,1.14238411 123.76248,1.23642384 123.537684,1.6513245 C123.476346,1.76423841 122.266232,4.03774834 120.537684,7.28642384 L104.223491,9.08708609 C103.594127,9.15629139 103.31615,9.41622517 103.31615,9.74172185 C103.31615,10.0731788 103.566069,10.3284768 104.19739,10.2907285 L119.422186,9.38344371 C116.308972,15.2357616 112.161175,23.0344371 109.682219,27.6953642 C104.176509,31.3145695 102.95367,31.0387417 102.95367,31.0387417 C97.0453507,31.5801325 108.2,20.6996689 108.2,20.6996689 C109.51354,17.9781457 108.136378,17.1347682 108.136378,17.1347682 C100.736705,18.5268212 99.0890701,16.5983444 99.0750408,16.5907285 C99.0681892,16.6201987 99.0606852,16.6483444 99.0541599,16.6774834 C99.262969,15.7486755 99.3285481,14.7874172 99.0698206,13.9493377 C99.0698206,13.9493377 98.6228385,12.1268212 96.1262643,12.3738411 C96.1262643,12.3738411 93.6910277,12.5887417 93.4642741,15.2102649 C93.4642741,15.2102649 93.1849918,16.8754967 94.8437194,19.0629139 C92.4522023,24.6675497 87.8704731,28.1523179 86.0760196,29.2066225 C84.3314845,30.2311258 82.3380098,30.986755 81.102447,31.2559603 C79.7468189,31.5509934 74.7706362,32.5566225 75.3800979,28.1413907 C76.6247961,27.8927152 81.4039152,26.4380795 83.4525285,25.5066225 C85.2704731,24.6798013 87.3249592,23.5516556 88.6427406,21.7695364 C89.7575856,20.263245 90.4939641,17.2539735 87.4522023,15.8652318 C84.9781403,14.7350993 79.9631321,15.8874172 76.5673736,18.3943709 C73.0688418,20.9764901 71.6323002,23.1884106 70.6988581,25.7344371 C70.5305057,26.1930464 70.388907,26.6519868 70.2769984,27.1082781 C69.0831974,27.4006623 67.7079935,27.7536424 66.1676998,28.1761589 C66.6988581,27.4754967 68.7791191,23.9837748 69.0195759,20.8483444 C69.2548124,17.7933775 67.3680261,15.6089404 64.0293638,15.4990066 C58.6796085,15.4990066 54.8880914,20.2877483 54.8880914,20.2877483 C54.8880914,20.2877483 56.8446982,17.1900662 53.8508972,15.6241722 C53.6336052,15.510596 53.3696574,15.5831126 53.1647635,15.9493377 C53.1647635,15.9493377 49.8489396,22.0804636 46.067863,29.0745033 C44.5066884,29.889404 39.1526917,32.4890728 38.4541599,30.2201987 C38.0538336,28.9188742 37.8270799,27.5304636 37.7337684,26.7609272 C40.4672104,24.7652318 49,16.0301325 49,16.0301325 C49.4009788,15.5854305 48.8185971,15.5798013 48.7928222,15.5798013 L48.240783,15.5887417 C48.2189233,15.5874172 48.1983687,15.5854305 48.1748777,15.5854305 C47.3526917,15.5854305 45.5207178,15.5692053 45.1553018,15.5933775 C44.7902121,15.6175497 44.4228385,15.7102649 44.1500816,16.0254967 C43.7092985,16.5347682 40.4632953,20.3403974 37.3367047,23.1245033 C37.0251223,19.9337748 36.6926591,16.2837748 36.669168,16.0900662 C36.6195759,15.689404 36.5305057,15.518543 36.0600326,15.5245033 C35.7422512,15.5281457 32.6446982,15.6566225 32.359217,15.6913907 C32.0730832,15.7254967 31.8590538,15.8705298 31.9106036,16.3397351 C31.9468189,16.6728477 32.6848287,22.4698675 33.1934747,26.2887417 C31.0535073,27.7735099 29.7455139,28.5122517 28.1256117,29.3258278 C26.8838499,29.9490066 22.1001631,31.5960265 18.8293638,31.5490066 C16.404894,31.5145695 14.2831974,30.3178808 14.6264274,28.2963576 C15.8270799,27.984106 19.159217,27.0874172 21.5807504,26.0192053 C23.8548124,25.0152318 27.6698206,23.0576159 28.4841762,20.5576159 C29.274062,18.1344371 27.8371941,16.6129139 26.6525285,16.0460265 C25.5706362,15.5288079 22.5063622,14.9354305 18.3184339,16.8278146 C14.130832,18.7195364 12.0075041,21.5258278 11.1044046,22.8231788 C10.1181077,24.239404 9.4730832,25.9029801 9.1634584,27.0596026 C6.02838499,27.6539735 1.64078303,28.1519868 1.31745514,28.189404 C-0.205872757,28.3629139 -0.207504078,28.3771523 0.311908646,28.9672185 C1.33213703,30.1291391 2.08352365,31.2155629 2.92626427,31.0715232 C2.92626427,31.0715232 5.92854812,30.4331126 9.30831974,29.5880795 C9.5132137,31.3347682 10.3820555,32.5735099 11.1278956,33.2612583 C12.8287113,34.8288079 15.9944535,35.8725166 20.1324633,35.2182119 C25.8525285,34.3139073 30.9184339,31.2198675 33.6378467,29.4675497 C33.8016313,30.7655629 34.2388254,33.0003311 34.3292007,33.463245 C34.6874388,35.3056291 36.8835237,35.2433775 36.8835237,35.2433775 C39.1004894,35.2976821 42.3070147,33.7264901 44.0721044,32.7678808 C39.7073409,40.8440397 35.3810767,48.8529801 35.2313214,49.1519868 C34.8492659,49.9155629 35.2727569,50.0599338 35.8238173,49.9566225 C36.3752039,49.8536424 39.2769984,49.1930464 39.7491028,49.0076159 C40.2202284,48.8215232 40.4463295,48.718543 40.8071778,48.0168874 C41.0848287,47.4764901 48.0652529,34.342053 51.2574225,28.3360927 C51.2574225,28.3360927 52.9164763,25.247351 55.9758564,22.3903974 C58.0026101,20.4976821 60.765416,18.4804636 63.0433931,18.9956954 C63.3964111,19.0874172 64.7044046,19.565894 64.2463295,21.5599338 L64.2473083,21.5586093 C64.2473083,21.5586093 63.2068515,26.5721854 58.834584,29.7029801 C57.2707993,30.1072848 55.5902121,30.5354305 54.1954323,31.1251656 C52.0750408,32.0215232 50.8887439,33.2536424 51.012398,34.368543 C51.149429,35.6099338 52.6841762,35.8937086 55.0035889,35.6009934 C56.9275693,35.3572848 59.2006525,34.4225166 60.867863,33.339404 C61.9957586,32.6069536 63.0238173,31.9109272 63.3781403,31.5834437 C66.3399674,30.6549669 68.4838499,30.0125828 70.0052202,29.5725166 C70.0557912,30.7715232 70.406199,31.9254967 71.1680261,32.992053 C72.5344209,34.9039735 75.1324633,35.4721854 77.7539967,35.3940397 C81.949429,35.268543 84.3921697,33.7182119 86.445677,32.5059603 C88.8831974,31.0668874 94.176509,26.1791391 97.4117455,20.6225166 C98.3474715,21.0427152 99.1200653,21.4003311 101.80261,21.3440397 C101.801631,21.3466887 101.8,21.3496689 101.798369,21.3523179 C100.746819,22.4877483 97.1931485,26.8993377 95.9575856,31.4271523 C94.6867863,36.081457 100.395106,35.4483444 103.275367,34.2682119 C104.293638,33.8503311 105.693638,33.1817881 107.186297,32.3566225 C105.504405,35.7850993 109.841436,35.2738411 111.970962,34.7082781 C115.013051,33.9006623 117.537357,32.7059603 119.174878,31.8086093 C119.128548,31.9562914 118.396411,34.1321192 119.755628,34.8764901 C120.662316,35.3728477 122.523002,35.0258278 123.182055,34.9046358 C124.145514,34.7268212 126.098206,34.1149007 127.380098,33.6268212 C128.404568,33.236755 129.560848,32.7609272 131.52398,31.7701987 C132.525285,34.2443709 135.383034,35.384106 138.652202,35.384106 C141.29429,35.384106 144.562153,34.4718543 148.469168,32.2281457 C149.029038,31.9059603 149.558238,31.5735099 150.056117,31.2400662 C149.911582,31.6178808 149.801305,31.9546358 149.74845,32.2089404 C149.533768,33.2486755 149.609135,34.4069536 150.437847,34.8764901 C151.337031,35.3864238 153.204894,35.0258278 153.864274,34.9046358 C154.827732,34.7268212 156.780098,34.1149007 158.062316,33.6268212 C158.339315,33.5211921 158.626427,33.4089404 158.935726,33.2831126 C158.44633,35.6807947 162.141925,35.2162252 164.055139,34.7082781 C167.217945,33.868543 169.820228,32.6115894 171.44894,31.7039735 C171.386623,31.8927152 171.337031,32.0649007 171.307341,32.2089404 C171.092333,33.2486755 171.167374,34.4069536 171.995759,34.8764901 C172.895269,35.3864238 174.763132,35.0258278 175.422186,34.9046358 C176.385644,34.7268212 178.338662,34.1149007 179.620555,33.6268212 C180.25416,33.3857616 180.938336,33.1112583 181.830995,32.7036424 C177.476346,40.7135762 173.101142,48.7701987 172.902773,49.1655629 C172.519739,49.9294702 172.943883,50.0738411 173.495595,49.9705298 C174.04633,49.8675497 176.97553,49.2072848 177.446656,49.0215232 C177.91876,48.8357616 178.144861,48.7324503 178.505383,48.0307947 C178.505383,48.0307947 194.95367,17.0536424 195.235237,16.4586093 C195.517129,15.8639073 195.265579,15.5364238 194.619576,15.5913907 C194.0323,15.6410596 191.699511,16.0178808 191.33801,16.1019868 C190.976835,16.1864238 190.756933,16.3059603 190.553018,16.6788079 C190.034584,17.6251656 187.312561,22.6254967 184.154976,28.4307947 C183.148777,29.0930464 182.072104,29.8556291 181.246003,30.2897351 C177.341925,32.2940397 175.747471,31.6533113 176.460685,29.9201987 C176.517129,29.7930464 183.546493,16.7238411 183.78075,16.268543 C184.015334,15.813245 183.732137,15.5119205 183.324959,15.5529801 C182.963132,15.5890728 180.276346,15.9162252 179.837847,16 C179.458401,16.0725166 179.280914,16.2764901 179.131811,16.5327815 C178.985318,16.7850993 174.492333,25.2072848 173.403915,27.3264901 C171.778793,28.3390728 169.248613,29.660596 167.98956,30.1652318 C167.443719,30.384106 164.472757,31.4109272 166.104405,28.5142384 C168.124959,24.7201987 172.979772,15.7794702 176.633605,9.06225166 L198.952365,6.96986755 C199.584666,6.9089404 199.938662,6.71490066 199.930179,6.29668874 C199.922349,5.88278146 199.604568,5.74668874 198.971615,5.77913907" id="Fill-4" fill="#333333" sketch:type="MSShapeGroup" mask="url(#mask-2)"></path>
            </g>
        </g>
    </g>
</svg>