<?xml version="1.0" encoding="UTF-8" standalone="no"?>
<svg width="200px" height="22px" viewBox="0 0 200 22" version="1.1" xmlns="http://www.w3.org/2000/svg" xmlns:xlink="http://www.w3.org/1999/xlink" xmlns:sketch="http://www.bohemiancoding.com/sketch/ns">
    <!-- Generator: Sketch 3.2.2 (9983) - http://www.bohemiancoding.com/sketch -->
    <title>instructure</title>
    <desc>Created with Sketch.</desc>
    <defs></defs>
    <g id="Page-1" stroke="none" stroke-width="1" fill="none" fill-rule="evenodd" sketch:type="MSPage">
        <g id="instructure" sketch:type="MSLayerGroup" fill="#272727">
            <path d="M81.3598394,10.4975267 C82.1370281,9.48300763 82.531245,8.206 82.531245,6.70193893 C82.531245,5.46607634 82.2615261,4.34793893 81.7297992,3.37792366 C81.1942169,2.40690076 80.4189558,1.63622901 79.424257,1.08723664 C78.4363052,0.544290076 77.2917269,0.269038168 76.0226506,0.269038168 L67.9522892,0.269038168 L67.9522892,21.7870534 L71.6446586,21.7870534 L71.6446586,13.0226565 L74.9007229,13.0226565 L79.099759,21.7870534 L83.3556627,21.7870534 L78.7071486,12.4417557 C79.775743,12.0563359 80.6666667,11.4035573 81.3598394,10.4975267 L81.3598394,10.4975267 Z M71.6446586,3.78685496 L75.7966265,3.78685496 C76.7529317,3.78685496 77.4899598,4.04514504 78.0493173,4.57683969 C78.5998394,5.09946565 78.8674699,5.80447328 78.8674699,6.732 C78.8674699,7.63987786 78.5983936,8.33229008 78.0438554,8.84920611 C77.4891566,9.36931298 76.7333333,9.63314504 75.7966265,9.63314504 L71.6446586,9.63314504 L71.6446586,3.78685496 L71.6446586,3.78685496 Z" id="Fill-1" sketch:type="MSShapeGroup"></path>
            <path d="M22.1492369,14.1250076 L13.424739,0.269038168 L10.1405622,0.269038168 L10.1405622,21.7870534 L13.8326104,21.7870534 L13.8326104,7.90505344 L22.5444177,21.7870534 L25.8146185,21.7870534 L25.8146185,0.269038168 L22.1492369,0.269038168 L22.1492369,14.1250076" id="Fill-2" sketch:type="MSShapeGroup"></path>
            <path d="M48.7235341,3.78685496 L54.2204016,3.78685496 L54.2204016,21.7870534 L57.8869076,21.7870534 L57.8869076,3.78685496 L63.3702811,3.78685496 L63.3702811,0.269038168 L48.7235341,0.269038168 L48.7235341,3.78685496" id="Fill-3" sketch:type="MSShapeGroup"></path>
            <path d="M0.114538153,0.269038168 L3.80674699,0.269038168 L3.80674699,21.7870534 L0.114538153,21.7870534 L0.114538153,0.269038168 Z" id="Fill-4" sketch:type="MSShapeGroup"></path>
            <path d="M43.5604819,10.980687 C43.1227309,10.5551298 42.5897189,10.2093435 41.9770281,9.95357252 C41.3762249,9.70065649 40.5993574,9.49912977 39.6690763,9.35487023 L37.3975904,8.99732824 C36.9754217,8.93367939 36.5736546,8.81931298 36.2040161,8.65758779 C35.8340562,8.49468702 35.5354217,8.31331298 35.3220884,8.12287023 C34.8878715,7.71931298 34.6767871,7.16629008 34.6767871,6.43206107 C34.6767871,5.86258015 34.802249,5.3710229 35.0592771,4.9310229 C35.3140562,4.49941985 35.6901205,4.15632061 36.1778313,3.91045802 C36.6750201,3.65737405 37.2857831,3.52923664 37.9934137,3.52923664 C38.5649799,3.52923664 39.0920482,3.57760305 39.5606426,3.67299237 C40.0189558,3.76535878 40.4702008,3.92422901 40.9013655,4.1450687 C41.3281928,4.36473282 41.7331727,4.66920611 42.1045783,5.04975573 L42.3302811,5.28117557 L44.7342972,2.79937405 L44.4910843,2.56056489 C43.622008,1.70709924 42.6698795,1.07648855 41.6612048,0.686198473 C40.653012,0.296244275 39.446747,0.0984122137 38.0758233,0.0984122137 C36.6774297,0.0984122137 35.4382329,0.366946565 34.3924498,0.896961832 C33.3373494,1.43369466 32.5146988,2.2 31.9476305,3.17454962 C31.3816867,4.14825954 31.0949398,5.28453435 31.0949398,6.5521374 C31.0949398,8.3448855 31.6168675,9.76464122 32.6470683,10.7727786 C33.5953414,11.6920763 34.9283534,12.2837252 36.6099598,12.5312672 L38.9612851,12.8731908 C39.5183936,12.9554809 39.9473092,13.0567481 40.2350201,13.1736336 C40.5076305,13.2859847 40.7493976,13.4507328 40.9537349,13.6633435 L40.9659438,13.6754351 C41.4276305,14.1082137 41.6522088,14.7314351 41.6522088,15.5807023 C41.6522088,16.4840458 41.3371888,17.165542 40.6893173,17.6644885 C40.0210442,18.1795573 39.0682731,18.4407023 37.8570281,18.4407023 C37.1930924,18.4407023 36.5653012,18.3804122 35.9908434,18.2613435 C35.4213655,18.1442901 34.8798394,17.9397405 34.3808835,17.6532366 C33.8753414,17.3642137 33.4059438,16.989542 32.9863454,16.5399695 L32.7604819,16.2983053 L30.2772691,18.8602137 L30.5040964,19.0993588 C31.4703614,20.1170687 32.5519679,20.8568397 33.7190361,21.2983511 C34.8734137,21.7356641 36.2469076,21.9575115 37.8014458,21.9575115 C38.8787149,21.9575115 39.8761446,21.8159389 40.7662651,21.5366565 C41.6685944,21.2535115 42.471004,20.8252672 43.1511647,20.2636794 C43.8396787,19.6933588 44.3744578,18.9933893 44.740241,18.183084 C45.1044177,17.3763053 45.288996,16.4743053 45.288996,15.5021069 C45.288996,13.5501527 44.7048996,12.0267786 43.5604819,10.980687" id="Fill-5" sketch:type="MSShapeGroup"></path>
            <path d="M99.0808032,14.2630534 C99.0808032,15.1287786 98.9208032,15.8831603 98.6049799,16.5057099 C98.2907631,17.1292672 97.8584739,17.5966412 97.2828916,17.9347023 C96.7124498,18.2704122 96.0314859,18.4407023 95.2586345,18.4407023 C94.4854618,18.4407023 93.8072289,18.2705802 93.2420884,17.9350382 C92.6734137,17.5981527 92.2453012,17.1294351 91.9339759,16.5025191 C91.6228112,15.8725802 91.4650602,15.1190382 91.4650602,14.2630534 L91.4650602,0.269038168 L87.7996787,0.269038168 L87.7996787,14.4167176 C87.7996787,15.8833282 88.1272289,17.2058473 88.773012,18.3476641 C89.4205622,19.4916641 90.3233735,20.3904733 91.4571888,21.0199084 C92.5832932,21.6421221 93.8623293,21.9575115 95.2586345,21.9575115 C96.6637751,21.9575115 97.9497189,21.6421221 99.0806426,21.0199084 C100.220884,20.3894656 101.126104,19.4903206 101.770763,18.3478321 C102.419116,17.2033282 102.747791,15.8808092 102.747791,14.4167176 L102.747791,0.269038168 L99.0808032,0.269038168 L99.0808032,14.2630534" id="Fill-6" sketch:type="MSShapeGroup"></path>
            <path d="M179.738635,10.4973588 C180.515341,9.48233588 180.909237,8.20532824 180.909237,6.70193893 C180.909237,5.46271756 180.639679,4.34441221 180.107791,3.37792366 C179.572851,2.40757252 178.79743,1.6370687 177.80241,1.08723664 C176.814137,0.544290076 175.669558,0.269038168 174.400482,0.269038168 L166.331245,0.269038168 L166.331245,21.7870534 L170.024418,21.7870534 L170.024418,13.0226565 L173.278715,13.0226565 L177.477751,21.7870534 L181.733815,21.7870534 L177.084337,12.4417557 C178.153092,12.0566718 179.044498,11.4038931 179.738635,10.4973588 L179.738635,10.4973588 Z M170.024418,3.78685496 L174.174618,3.78685496 C175.130763,3.78685496 175.867791,4.04514504 176.42747,4.57683969 C176.977992,5.09946565 177.245622,5.80447328 177.245622,6.732 C177.245622,7.6400458 176.976386,8.33229008 176.421526,8.84937405 C175.868112,9.36948092 175.112129,9.63314504 174.174618,9.63314504 L170.024418,9.63314504 L170.024418,3.78685496 L170.024418,3.78685496 Z" id="Fill-7" sketch:type="MSShapeGroup"></path>
            <path d="M199.866185,3.78685496 L199.866185,0.269038168 L186.463775,0.269038168 L186.463775,21.7870534 L199.866185,21.7870534 L199.866185,18.2700763 L190.15502,18.2700763 L190.15502,12.6795573 L198.445301,12.6795573 L198.445301,9.19163359 L190.15502,9.19163359 L190.15502,3.78685496 L199.866185,3.78685496" id="Fill-8" sketch:type="MSShapeGroup"></path>
            <path d="M156.634378,14.2630534 C156.634378,15.1291145 156.474538,15.8833282 156.158876,16.5052061 C155.843052,17.1292672 155.41012,17.5968092 154.834538,17.9347023 C154.266024,18.2704122 153.585703,18.4407023 152.812369,18.4407023 C152.03759,18.4407023 151.359357,18.2705802 150.795823,17.9350382 C150.225221,17.597145 149.796948,17.1284275 149.486908,16.5025191 C149.1751,15.8712366 149.017028,15.1178626 149.017028,14.2630534 L149.017028,0.269038168 L145.351807,0.269038168 L145.351807,14.4167176 C145.351807,15.881313 145.679839,17.2038321 146.326747,18.3473282 C146.971245,19.4894809 147.873735,20.388626 149.00996,21.0199084 C150.135261,21.6421221 151.414618,21.9575115 152.812369,21.9575115 C154.217671,21.9575115 155.503454,21.6421221 156.634538,21.0199084 C157.773012,20.3892977 158.678072,19.4903206 159.324498,18.3476641 C159.971727,17.204 160.29992,15.881313 160.29992,14.4167176 L160.29992,0.269038168 L156.634378,0.269038168 L156.634378,14.2630534" id="Fill-9" sketch:type="MSShapeGroup"></path>
            <path d="M111.959679,6.74358779 C112.045141,6.26764885 112.155502,5.88407634 112.28739,5.60345038 C112.416867,5.32735878 112.607068,5.04387786 112.849478,4.76425954 C113.173012,4.40151145 113.574137,4.11735878 114.042249,3.91935878 C114.520321,3.71548092 115.019438,3.61639695 115.568353,3.61639695 C116.55004,3.61639695 117.363534,3.91112977 117.986827,4.49270229 C118.620402,5.08367939 119.054458,5.90103817 119.276627,6.92177099 L119.333655,7.18308397 L123.063775,7.18308397 L122.997108,6.7889313 C122.638072,4.65896183 121.789237,2.99250382 120.473735,1.83557252 C119.156466,0.682839695 117.506024,0.0984122137 115.568353,0.0984122137 C114.499116,0.0984122137 113.492048,0.296580153 112.57494,0.687374046 C111.656225,1.07900763 110.824257,1.65957252 110.10008,2.41563359 C109.597269,2.95219847 109.203534,3.51160305 108.929317,4.07856489 C108.657992,4.64149618 108.459277,5.25581679 108.339438,5.90473282 C108.223614,6.53282443 108.148273,7.23615267 108.115341,7.9950687 C108.083052,8.74071756 108.066506,9.7611145 108.066506,11.0280458 C108.066506,12.6782137 108.099438,13.9637863 108.164498,14.8483206 C108.229237,15.7605649 108.406104,16.6175573 108.68996,17.3949466 C108.975743,18.1844275 109.449799,18.9398168 110.102972,19.6441527 C110.563373,20.1237863 111.092209,20.5456489 111.674217,20.8981527 C112.261526,21.254855 112.884016,21.5237252 113.524659,21.697542 C114.16241,21.8700153 114.849799,21.9575115 115.568353,21.9575115 C116.50249,21.9575115 117.394859,21.8124122 118.221044,21.5262443 C119.058153,21.2350382 119.806586,20.8025954 120.445462,20.2410076 C121.087068,19.6787481 121.637108,18.9673588 122.080482,18.1264885 C122.519197,17.2906565 122.827791,16.3278626 122.99759,15.2649771 L123.06008,14.8736794 L119.361606,14.8736794 L119.303775,15.1338168 C119.157751,15.7924733 118.912289,16.381771 118.574779,16.8854198 C118.243213,17.3794962 117.821687,17.7665954 117.320964,18.0361374 C116.826667,18.3045038 116.237269,18.4407023 115.568353,18.4407023 C115.021526,18.4407023 114.523052,18.3394351 114.043534,18.130687 C113.578153,17.9294962 113.177992,17.6490382 112.854297,17.2968702 C112.608353,16.9871908 112.417028,16.6922901 112.285462,16.4203969 C112.154859,16.150687 112.04498,15.7704733 111.959679,15.2905038 C111.872289,14.7992824 111.811566,14.2356794 111.77992,13.6154809 C111.748916,13.004687 111.733655,12.1582748 111.733655,11.0280458 C111.733655,9.88824427 111.748916,9.0351145 111.77992,8.41978626 C111.811566,7.7948855 111.871968,7.23094656 111.959679,6.74358779" id="Fill-10" sketch:type="MSShapeGroup"></path>
            <path d="M126.408675,3.78685496 L131.906827,3.78685496 L131.906827,21.7870534 L135.570281,21.7870534 L135.570281,3.78685496 L141.054779,3.78685496 L141.054779,0.269038168 L126.408675,0.269038168 L126.408675,3.78685496" id="Fill-11" sketch:type="MSShapeGroup"></path>
        </g>
    </g>
</svg>