<?xml version="1.0" encoding="UTF-8" standalone="no"?>
<svg width="174px" height="44px" viewBox="0 0 174 44" version="1.1" xmlns="http://www.w3.org/2000/svg" xmlns:xlink="http://www.w3.org/1999/xlink" xmlns:sketch="http://www.bohemiancoding.com/sketch/ns">
    <!-- Generator: Sketch 3.3.1 (12002) - http://www.bohemiancoding.com/sketch -->
    <title>intercom</title>
    <desc>Created with Sketch.</desc>
    <defs>
        <path id="path-1" d="M7.4402174,47.3219366 C3.30175492,47.1480528 0,43.7379746 0,39.5567495 L0,7.77214726 C0,3.47971793 3.47971793,0 7.77214726,0 L39.5567495,0 C43.8491788,0 47.3288968,3.47971793 47.3288968,7.77214726 L47.3288968,39.5567495 C47.3288968,43.7379746 44.0271418,47.1480528 39.8886794,47.3219366 L7.4402174,47.3219366 L7.4402174,47.3219366 Z"></path>
        <path id="path-3" d="M7.4402174,47.3219366 C3.30175492,47.1480528 0,43.7379746 0,39.5567495 L0,7.77214726 C0,3.47971793 3.47971793,0 7.77214726,0 L39.5567495,0 C43.8491788,0 47.3288968,3.47971793 47.3288968,7.77214726 L47.3288968,39.5567495 C47.3288968,43.7379746 44.0271418,47.1480528 39.8886794,47.3219366 L7.4402174,47.3219366"></path>
    </defs>
    <g id="Page-1" stroke="none" stroke-width="1" fill="none" fill-rule="evenodd" sketch:type="MSPage">
        <g id="intercom" sketch:type="MSLayerGroup" transform="translate(0.649824, -3.750000)">
            <g id="Group-3">
                <mask id="mask-2" sketch:name="Clip 2" fill="white">
                    <use xlink:href="#path-1"></use>
                </mask>
                <g id="Clip-2"></g>
                <path d="M0,0 L172.708712,0 L172.708712,47.3219366 L0,47.3219366 L0,0 Z" id="Fill-1" sketch:type="MSShapeGroup" mask="url(#mask-2)"></path>
            </g>
            <g id="Group-6">
                <mask id="mask-4" sketch:name="Clip 5" fill="white">
                    <use xlink:href="#path-3"></use>
                </mask>
                <g id="Clip-5"></g>
                <path d="M0,29.5733683 L0,39.5567495 C0,43.8491788 3.47971793,47.3288968 7.77214726,47.3288968 L39.5567495,47.3288968 C43.8491788,47.3288968 47.3288968,43.8491788 47.3288968,39.5567495 L47.3288968,29.5733683 C40.1468527,33.3724403 32.1262287,35.4966726 23.6644484,35.4966726 C15.2026681,35.4966726 7.18204408,33.3724403 0,29.5733683" id="Fill-4" fill="#C1C1C1" sketch:type="MSShapeGroup" mask="url(#mask-4)"></path>
            </g>
            <path d="M63.5808047,34.2206484 C62.7397888,34.2206484 62.1597778,33.5826363 62.1597778,32.7996215 L62.1597778,15.8633006 C62.1597778,15.0802857 62.7107882,14.4422736 63.5808047,14.4422736 C64.3928201,14.4422736 64.9438305,15.0222846 64.9438305,15.8633006 L64.9438305,32.7996215 C64.9438305,33.5826363 64.3928201,34.2206484 63.5808047,34.2206484" id="Fill-7" fill="#333333" sketch:type="MSShapeGroup"></path>
            <path d="M80.6620123,34.2206484 C79.8499969,34.2206484 79.2989865,33.6116369 79.2989865,32.8576226 L79.2989865,27.0575127 C79.2989865,25.0274742 78.1969656,23.5194456 76.0219244,23.5194456 C73.8468832,23.5194456 72.5998596,25.1144759 72.5998596,27.0865132 L72.5998596,32.8576226 C72.5998596,33.6116369 72.0198486,34.2206484 71.2368338,34.2206484 C70.4248184,34.2206484 69.8738079,33.6116369 69.8738079,32.8576226 L69.8738079,22.5624275 C69.8738079,21.692411 70.4538189,21.1704011 71.2368338,21.1704011 C71.990848,21.1704011 72.5998596,21.6054094 72.5998596,22.5624275 L72.5998596,23.4904451 C73.411875,21.9244154 74.8619024,21.0543989 76.7759387,21.0543989 C80.1110019,21.0543989 82.0250382,23.5194456 82.0250382,26.9415105 L82.0250382,32.8576226 C82.0250382,33.5826363 81.5320288,34.2206484 80.6620123,34.2206484" id="Fill-8" fill="#333333" sketch:type="MSShapeGroup"></path>
            <path d="M89.0432871,34.2206484 C88.2312718,34.2206484 87.6802613,33.6116369 87.6802613,32.8576226 L87.6802613,23.6644484 L85.4762195,23.6644484 C84.8382075,23.6644484 84.3451981,23.171439 84.3451981,22.5334269 C84.3451981,21.8954149 84.8382075,21.4024055 85.4762195,21.4024055 L87.6802613,21.4024055 L87.6802613,17.6033335 C87.6802613,16.8493193 88.2312718,16.2403077 89.0432871,16.2403077 C89.8553025,16.2403077 90.406313,16.8493193 90.406313,17.6033335 L90.406313,21.4024055 L92.9003602,21.4024055 C93.5383723,21.4024055 94.0313816,21.8954149 94.0313816,22.5334269 C94.0313816,23.171439 93.5383723,23.6644484 92.9003602,23.6644484 L90.406313,23.6644484 L90.406313,32.8576226 C90.406313,33.6116369 89.8553025,34.2206484 89.0432871,34.2206484" id="Fill-9" fill="#333333" sketch:type="MSShapeGroup"></path>
            <path d="M101.542292,23.2294401 C99.541254,23.2294401 98.1782282,24.6504671 97.9172233,26.4485011 L105.051358,26.4485011 C104.819354,24.7084682 103.514329,23.2294401 101.542292,23.2294401 L101.542292,23.2294401 Z M107.574406,27.7245253 C107.574406,28.1885341 107.313401,28.6525429 106.530386,28.6525429 L97.8592222,28.6525429 C98.0042249,30.6535808 99.3672507,32.1616094 101.774296,32.1616094 C103.282325,32.1616094 104.181342,31.6395995 105.13836,30.7405825 C105.370364,30.5085781 105.689371,30.3055742 106.037377,30.3055742 C106.646389,30.3055742 107.168399,30.7405825 107.168399,31.4365956 C107.168399,31.7266011 107.023396,31.9876061 106.820392,32.2196105 C105.718371,33.4956347 103.746334,34.3366506 101.658294,34.3366506 C97.3372123,34.3366506 95.0461689,31.3205934 95.0461689,27.6955248 C95.0461689,23.8964528 97.8012211,21.0543989 101.542292,21.0543989 C105.196361,21.0543989 107.574406,24.012455 107.574406,27.7245253 L107.574406,27.7245253 Z" id="Fill-10" fill="#333333" sketch:type="MSShapeGroup"></path>
            <path d="M117.550827,23.6644484 C115.25932,23.6644484 113.867293,25.172477 113.867293,28.1015325 L113.867293,32.8576226 C113.867293,33.6116369 113.287282,34.2206484 112.504268,34.2206484 C111.634251,34.2206484 111.141242,33.6116369 111.141242,32.8576226 L111.141242,22.5624275 C111.141242,21.7504121 111.721253,21.1704011 112.533268,21.1704011 C113.316283,21.1704011 113.867293,21.7214116 113.867293,22.5624275 L113.867293,23.8094511 C114.360303,22.1564198 115.723329,21.1124 117.550827,21.1124 C118.333842,21.1124 118.826851,21.6634105 118.826851,22.3884242 C118.826851,23.1134379 118.275841,23.6644484 117.550827,23.6644484" id="Fill-11" fill="#333333" sketch:type="MSShapeGroup"></path>
            <path d="M131.41193,22.8814335 C131.643934,23.1424385 131.817938,23.4034434 131.817938,23.8384517 C131.817938,24.4184627 131.353929,24.9404726 130.570914,24.9404726 C130.077905,24.9404726 129.758899,24.5344649 129.410892,24.2444594 C128.743879,23.6644484 127.902863,23.3454423 126.945845,23.3454423 C124.248794,23.3454423 122.856768,25.3754808 122.856768,27.6955248 C122.856768,30.0155687 124.248794,32.0456072 126.945845,32.0456072 C127.902863,32.0456072 128.743879,31.7266011 129.410892,31.1465901 C129.758899,30.8565847 130.077905,30.450577 130.570914,30.450577 C131.353929,30.450577 131.817938,30.9725868 131.817938,31.5525978 C131.817938,31.9876061 131.643934,32.248611 131.41193,32.509616 C130.541913,33.5536358 128.743879,34.3366506 126.916845,34.3366506 C122.653764,34.3366506 120.130716,31.4075951 120.130716,27.6955248 C120.130716,23.9834544 122.653764,21.0543989 126.916845,21.0543989 C128.743879,21.0543989 130.541913,21.8374138 131.41193,22.8814335" id="Fill-12" fill="#333333" sketch:type="MSShapeGroup"></path>
            <path d="M141.243116,23.3744429 C138.691068,23.3744429 137.328042,25.3464802 137.328042,27.6955248 C137.328042,30.0445693 138.691068,32.0166066 141.243116,32.0166066 C143.795165,32.0166066 145.15819,30.0445693 145.15819,27.6955248 C145.15819,25.3464802 143.795165,23.3744429 141.243116,23.3744429 L141.243116,23.3744429 Z M141.243116,34.3366506 C137.21204,34.3366506 134.60199,31.349594 134.60199,27.6955248 C134.60199,24.0414555 137.21204,21.0543989 141.243116,21.0543989 C145.274193,21.0543989 147.884242,24.0414555 147.884242,27.6955248 C147.884242,31.349594 145.274193,34.3366506 141.243116,34.3366506 L141.243116,34.3366506 Z" id="Fill-13" fill="#333333" sketch:type="MSShapeGroup"></path>
            <path d="M171.345687,34.2206484 C170.562672,34.2206484 169.982661,33.6116369 169.982661,32.8576226 L169.982661,27.0575127 C169.982661,25.0564748 169.025643,23.5194456 166.879602,23.5194456 C164.733561,23.5194456 163.428537,25.172477 163.428537,27.0865132 L163.428537,32.8576226 C163.428537,33.6116369 162.906527,34.2206484 162.065511,34.2206484 C161.253495,34.2206484 160.702485,33.6116369 160.702485,32.8576226 L160.702485,27.0575127 C160.702485,25.0564748 159.658465,23.5194456 157.512424,23.5194456 C155.308383,23.5194456 154.148361,25.172477 154.148361,27.0865132 L154.148361,32.8576226 C154.148361,33.6116369 153.59735,34.2206484 152.785335,34.2206484 C152.00232,34.2206484 151.422309,33.6116369 151.422309,32.8576226 L151.422309,22.5624275 C151.422309,21.7504121 151.944319,21.1704011 152.785335,21.1704011 C153.713352,21.1704011 154.148361,21.8084132 154.148361,22.5624275 L154.148361,23.4904451 C154.931376,21.953416 156.526406,21.0543989 158.237438,21.0543989 C160.325478,21.0543989 161.891507,22.0984187 162.674522,23.6354478 C163.805544,21.8954149 165.458575,21.0543989 167.517614,21.0543989 C171.026681,21.0543989 172.708712,23.4614445 172.708712,26.8545088 L172.708712,32.8576226 C172.708712,33.6116369 172.157702,34.2206484 171.345687,34.2206484" id="Fill-14" fill="#333333" sketch:type="MSShapeGroup"></path>
            <path d="M9.51218023,23.3164418 L9.51218023,12.1802308 C9.51218023,11.2833018 8.78507845,10.5562 7.88814946,10.5562 C6.99122047,10.5562 6.26411869,11.2833018 6.26411869,12.1802308 L6.26411869,23.3164418 C6.26411869,24.2133708 6.99122047,24.9404726 7.88814946,24.9404726 C8.78507845,24.9404726 9.51218023,24.2133708 9.51218023,23.3164418" id="Fill-15" fill="#333333" sketch:type="MSShapeGroup"></path>
            <path d="M14.1522681,28.8845473 C15.0491971,28.8845473 15.7762989,28.1574455 15.7762989,27.2605165 L15.7762989,8.23615605 C15.7762989,7.33922706 15.0491971,6.61212528 14.1522681,6.61212528 C13.2553392,6.61212528 12.5282374,7.33922706 12.5282374,8.23615605 L12.5282374,27.2605165 C12.5282374,28.1574455 13.2553392,28.8845473 14.1522681,28.8845473" id="Fill-16" fill="#333333" sketch:type="MSShapeGroup"></path>
            <path d="M20.532389,31.2045912 C21.429318,31.2045912 22.1564198,30.4774895 22.1564198,29.5805605 L22.1564198,5.91611209 C22.1564198,5.0191831 21.429318,4.29208132 20.532389,4.29208132 C19.63546,4.29208132 18.9083583,5.0191831 18.9083583,5.91611209 L18.9083583,29.5805605 C18.9083583,30.4774895 19.63546,31.2045912 20.532389,31.2045912" id="Fill-17" fill="#333333" sketch:type="MSShapeGroup"></path>
            <path d="M26.7965077,31.2045912 C27.6934367,31.2045912 28.4205385,30.4774895 28.4205385,29.5805605 L28.4205385,5.91611209 C28.4205385,5.0191831 27.6934367,4.29208132 26.7965077,4.29208132 C25.8995787,4.29208132 25.172477,5.0191831 25.172477,5.91611209 L25.172477,29.5805605 C25.172477,30.4774895 25.8995787,31.2045912 26.7965077,31.2045912" id="Fill-18" fill="#333333" sketch:type="MSShapeGroup"></path>
            <path d="M33.1766286,28.8845473 C34.0735576,28.8845473 34.8006594,28.1574455 34.8006594,27.2605165 L34.8006594,8.23615605 C34.8006594,7.33922706 34.0735576,6.61212528 33.1766286,6.61212528 C32.2796996,6.61212528 31.5525978,7.33922706 31.5525978,8.23615605 L31.5525978,27.2605165 C31.5525978,28.1574455 32.2796996,28.8845473 33.1766286,28.8845473" id="Fill-19" fill="#333333" sketch:type="MSShapeGroup"></path>
            <path d="M39.4407473,10.5562 C38.5438183,10.5562 37.8167165,11.2833018 37.8167165,12.1802308 L37.8167165,23.3164418 C37.8167165,24.2133708 38.5438183,24.9404726 39.4407473,24.9404726 C40.3376763,24.9404726 41.0647781,24.2133708 41.0647781,23.3164418 L41.0647781,12.1802308 C41.0647781,11.2833018 40.3376763,10.5562 39.4407473,10.5562" id="Fill-20" fill="#333333" sketch:type="MSShapeGroup"></path>
            <path d="M37.2113011,36.7829049 C28.6287624,40.797509 18.7001343,40.797509 10.1175957,36.7829049 C9.33423286,36.417498 8.39125099,36.6764149 7.99452348,37.4094328 C7.59814396,38.1411747 7.96830698,39.107821 8.8400635,39.5149887 C18.2319494,43.9082239 29.0969473,43.9082239 38.4888333,39.5149887 C39.3605898,39.107821 39.7307528,38.1411747 39.3343733,37.4094328 C38.9376458,36.6764149 37.9946639,36.417498 37.2113011,36.7829049" id="Fill-21" fill="#333333" sketch:type="MSShapeGroup"></path>
        </g>
    </g>
</svg>