<?xml version="1.0" encoding="UTF-8" standalone="no"?>
<svg width="201px" height="23px" viewBox="0 0 201 23" version="1.1" xmlns="http://www.w3.org/2000/svg" xmlns:xlink="http://www.w3.org/1999/xlink" xmlns:sketch="http://www.bohemiancoding.com/sketch/ns">
    <!-- Generator: Sketch 3.3.1 (12002) - http://www.bohemiancoding.com/sketch -->
    <title>oct</title>
    <desc>Created with Sketch.</desc>
    <defs></defs>
    <g id="Page-1" stroke="none" stroke-width="1" fill="none" fill-rule="evenodd" sketch:type="MSPage">
        <g id="oct" sketch:type="MSLayerGroup" transform="translate(0.246054, 0.283760)" fill="#333333">
            <path d="M11.1264069,3.68441558 C15.0121212,3.68441558 18.0558442,6.75281385 18.0558442,10.965368 C18.0558442,15.1770563 15.1021645,18.1965368 11.1861472,18.1965368 C7.3004329,18.1965368 4.25627706,14.9134199 4.25627706,10.9056277 C4.25627706,6.8987013 7.20952381,3.68441558 11.1264069,3.68441558 L11.1264069,3.68441558 Z M11.1861472,0.0489177489 C4.92251082,0.0489177489 0.145021645,4.88787879 0.145021645,10.965368 C0.145021645,17.0419913 4.87445887,21.8329004 11.1264069,21.8329004 C17.3787879,21.8329004 22.1670996,17.038961 22.1670996,10.9056277 C22.1670996,4.77229437 17.4493506,0.0489177489 11.1861472,0.0489177489 L11.1861472,0.0489177489 Z" id="Fill-3" sketch:type="MSShapeGroup"></path>
            <path d="M24.3922078,17.7073593 C23.2766234,17.7073593 22.2974026,18.6727273 22.2974026,19.7731602 C22.2974026,20.8922078 23.2701299,21.8385281 24.4220779,21.8385281 C25.4874459,21.8385281 26.4575758,20.8532468 26.4575758,19.7731602 C26.4575758,18.6727273 25.4922078,17.7073593 24.3922078,17.7073593" id="Fill-4" sketch:type="MSShapeGroup"></path>
            <path d="M45.7809524,15.438961 C44.2952381,16.8329004 42.6558442,18.1965368 39.8073593,18.1965368 C36.0380952,18.1965368 33.0852814,14.9554113 33.0852814,10.8987013 C33.0852814,6.84242424 35.9748918,3.68441558 39.8073593,3.68441558 C42.4454545,3.68441558 44.2597403,5.04891775 45.6393939,6.33030303 L48.1688312,3.41688312 C46.2995671,1.65108225 44.1090909,0.0489177489 39.8367965,0.0489177489 C33.6805195,0.0489177489 28.974026,4.72554113 28.974026,10.9584416 C28.974026,17.1909091 33.5800866,21.8329004 39.6883117,21.8329004 C44.0203463,21.8329004 46.3354978,20.0510823 48.3190476,18.008658 L45.7809524,15.438961" id="Fill-5" sketch:type="MSShapeGroup"></path>
            <path d="M52.7571429,17.7073593 C51.6406926,17.7073593 50.6619048,18.6727273 50.6619048,19.7731602 C50.6619048,20.8922078 51.634632,21.8385281 52.7865801,21.8385281 C53.852381,21.8385281 54.8225108,20.8532468 54.8225108,19.7731602 C54.8225108,18.6727273 53.8571429,17.7073593 52.7571429,17.7073593" id="Fill-6" sketch:type="MSShapeGroup"></path>
            <path d="M62.2285714,4.07056277 L68.8220779,4.07056277 L68.8220779,21.4731602 L72.7857143,21.4731602 L72.7857143,4.07056277 L79.3792208,4.07056277 L79.3792208,0.405194805 L62.2285714,0.405194805 L62.2285714,4.07056277" id="Fill-7" sketch:type="MSShapeGroup"></path>
            <path d="M122.032468,14.5125541 L111.11039,0.405194805 L107.507792,0.405194805 L107.507792,21.4731602 L111.381385,21.4731602 L111.381385,6.95324675 L122.629437,21.4731602 L125.906494,21.4731602 L125.906494,0.405194805 L122.032468,0.405194805 L122.032468,14.5125541" id="Fill-8" sketch:type="MSShapeGroup"></path>
            <path d="M147.717316,14.5125541 L136.795671,0.405194805 L133.192208,0.405194805 L133.192208,21.4731602 L137.066234,21.4731602 L137.066234,6.95324675 L148.314286,21.4731602 L151.591342,21.4731602 L151.591342,0.405194805 L147.717316,0.405194805 L147.717316,14.5125541" id="Fill-9" sketch:type="MSShapeGroup"></path>
            <path d="M162.636364,12.7069264 L173.061039,12.7069264 L173.061039,9.16060606 L162.636364,9.16060606 L162.636364,3.95151515 L174.397403,3.95151515 L174.397403,0.405194805 L158.70303,0.405194805 L158.70303,21.4731602 L174.54632,21.4731602 L174.54632,17.9298701 L162.636364,17.9298701 L162.636364,12.7069264" id="Fill-10" sketch:type="MSShapeGroup"></path>
            <path d="M191.424675,9.16060606 L185.165368,9.16060606 L185.165368,3.95151515 L191.401732,3.95151515 C193.460606,3.95151515 194.642424,4.8982684 194.642424,6.54502165 C194.642424,8.19177489 193.379221,9.16060606 191.424675,9.16060606 L191.424675,9.16060606 Z M194.3,12.0168831 C197.076623,11.1601732 198.611255,9.12164502 198.611255,6.38787879 C198.611255,3.37402597 196.741126,0.405194805 191.657576,0.405194805 L181.232035,0.405194805 L181.232035,21.4731602 L185.165368,21.4731602 L185.165368,12.7069264 L190.192641,12.7069264 L195.268398,21.4731602 L199.937662,21.4731602 L194.3,12.0168831 L194.3,12.0168831 Z" id="Fill-11" sketch:type="MSShapeGroup"></path>
            <path d="M90.0662338,19.425974 C88.3004329,19.425974 86.5125541,18.2952381 86.5125541,16.134632 C86.5125541,12.0134199 91.1606061,11.174026 95.8051948,10.4199134 L95.8051948,12.2064935 C95.8051948,14.1688312 95.7705628,15.6948052 94.7774892,16.9822511 C93.6528139,18.4662338 91.8038961,19.425974 90.0662338,19.425974 L90.0662338,19.425974 Z M100.001299,7.45064935 C100.001299,4.20909091 99.7255411,1.98614719 96.0835498,0.666233766 C94.8705628,0.261904762 93.4649351,0.0489177489 91.9116883,0.0489177489 C89.7900433,0.0489177489 88.3904762,0.358441558 86.595671,1.19350649 C85.0961039,1.88311688 83.3445887,3.42034632 83.3445887,5.48571429 C83.3445887,7.22424242 84.2969697,8.34761905 85.7701299,8.34761905 C87.4190476,8.34761905 88.3264069,7.54761905 88.3264069,6.0969697 C88.3264069,5.5012987 87.9961039,4.74458874 87.6606061,4.25670996 C87.3246753,3.76926407 87.2207792,3.46839827 87.6354978,3.12510823 C88.4649351,2.43722944 90.0012987,2.23766234 91.2571429,2.23766234 C94.4108225,2.23766234 95.8069264,3.2978355 95.8069264,6.08701299 L95.8069264,8.44199134 C92.2839827,8.94069264 82.0103896,10.4450216 82.0103896,16.5268398 C82.0103896,19.8489177 84.3532468,21.8329004 88.2766234,21.8329004 C91.3887446,21.8329004 94.2181818,20.5961039 96.0848485,18.4450216 C96.7225108,20.5974026 97.9376623,21.5709957 100.016883,21.5709957 C101.245887,21.5709957 102.538095,21.0588745 103.361039,20.1090909 C104.090043,19.2688312 103.547619,18.3064935 102.606926,18.7177489 C101.694805,19.1177489 100.001299,19.4787879 100.001299,17.178355 L100.001299,7.45064935 L100.001299,7.45064935 Z" id="Fill-12" sketch:type="MSShapeGroup"></path>
        </g>
    </g>
</svg>