<?xml version="1.0" encoding="UTF-8" standalone="no"?>
<svg width="97px" height="11px" viewBox="0 0 97 11" version="1.1" xmlns="http://www.w3.org/2000/svg" xmlns:xlink="http://www.w3.org/1999/xlink" xmlns:sketch="http://www.bohemiancoding.com/sketch/ns">
    <!-- Generator: Sketch 3.3.1 (12002) - http://www.bohemiancoding.com/sketch -->
    <title>oct_white</title>
    <desc>Created with Sketch.</desc>
    <defs></defs>
    <g id="Page-1" stroke="none" stroke-width="1" fill="none" fill-rule="evenodd" sketch:type="MSPage">
        <g id="oct_white" sketch:type="MSLayerGroup" transform="translate(0.370778, 0.000000)" fill="#FFFFFF">
            <path d="M5.34067532,1.76851948 C7.20581818,1.76851948 8.66680519,3.24135065 8.66680519,5.26337662 C8.66680519,7.28498701 7.24903896,8.73433766 5.36935065,8.73433766 C3.50420779,8.73433766 2.04301299,7.15844156 2.04301299,5.2347013 C2.04301299,3.31137662 3.46057143,1.76851948 5.34067532,1.76851948 L5.34067532,1.76851948 Z M5.36935065,0.0234805195 C2.36280519,0.0234805195 0.0696103896,2.34618182 0.0696103896,5.26337662 C0.0696103896,8.18015584 2.33974026,10.4797922 5.34067532,10.4797922 C8.34181818,10.4797922 10.6402078,8.1787013 10.6402078,5.2347013 C10.6402078,2.2907013 8.37568831,0.0234805195 5.36935065,0.0234805195 L5.36935065,0.0234805195 Z" id="Fill-3" sketch:type="MSShapeGroup"></path>
            <path d="M11.7082597,8.49953247 C11.1727792,8.49953247 10.7027532,8.96290909 10.7027532,9.49111688 C10.7027532,10.0282597 11.1696623,10.4824935 11.7225974,10.4824935 C12.233974,10.4824935 12.6996364,10.0095584 12.6996364,9.49111688 C12.6996364,8.96290909 12.2362597,8.49953247 11.7082597,8.49953247" id="Fill-4" sketch:type="MSShapeGroup"></path>
            <path d="M21.9748571,7.4107013 C21.2617143,8.07979221 20.4748052,8.73433766 19.1075325,8.73433766 C17.2982857,8.73433766 15.8809351,7.1785974 15.8809351,5.23137662 C15.8809351,3.28436364 17.2679481,1.76851948 19.1075325,1.76851948 C20.3738182,1.76851948 21.2446753,2.42348052 21.9069091,3.03854545 L23.121039,1.6401039 C22.2237922,0.792519481 21.1723636,0.0234805195 19.1216623,0.0234805195 C16.1666494,0.0234805195 13.9075325,2.26825974 13.9075325,5.26005195 C13.9075325,8.25163636 16.1184416,10.4797922 19.0503896,10.4797922 C21.1297662,10.4797922 22.241039,9.62451948 23.1931429,8.64415584 L21.9748571,7.4107013" id="Fill-5" sketch:type="MSShapeGroup"></path>
            <path d="M25.3234286,8.49953247 C24.7875325,8.49953247 24.3177143,8.96290909 24.3177143,9.49111688 C24.3177143,10.0282597 24.7846234,10.4824935 25.3375584,10.4824935 C25.8491429,10.4824935 26.3148052,10.0095584 26.3148052,9.49111688 C26.3148052,8.96290909 25.8514286,8.49953247 25.3234286,8.49953247" id="Fill-6" sketch:type="MSShapeGroup"></path>
            <path d="M29.8697143,1.95387013 L33.0345974,1.95387013 L33.0345974,10.3071169 L34.9371429,10.3071169 L34.9371429,1.95387013 L38.102026,1.95387013 L38.102026,0.194493506 L29.8697143,0.194493506 L29.8697143,1.95387013" id="Fill-7" sketch:type="MSShapeGroup"></path>
            <path d="M58.5755844,6.96602597 L53.332987,0.194493506 L51.6037403,0.194493506 L51.6037403,10.3071169 L53.4630649,10.3071169 L53.4630649,3.33755844 L58.8621299,10.3071169 L60.4351169,10.3071169 L60.4351169,0.194493506 L58.5755844,0.194493506 L58.5755844,6.96602597" id="Fill-8" sketch:type="MSShapeGroup"></path>
            <path d="M70.9043117,6.96602597 L65.6619221,0.194493506 L63.9322597,0.194493506 L63.9322597,10.3071169 L65.7917922,10.3071169 L65.7917922,3.33755844 L71.1908571,10.3071169 L72.7638442,10.3071169 L72.7638442,0.194493506 L70.9043117,0.194493506 L70.9043117,6.96602597" id="Fill-9" sketch:type="MSShapeGroup"></path>
            <path d="M78.0654545,6.09932468 L83.0692987,6.09932468 L83.0692987,4.39709091 L78.0654545,4.39709091 L78.0654545,1.89672727 L83.7107532,1.89672727 L83.7107532,0.194493506 L76.1774545,0.194493506 L76.1774545,10.3071169 L83.7822338,10.3071169 L83.7822338,8.60633766 L78.0654545,8.60633766 L78.0654545,6.09932468" id="Fill-10" sketch:type="MSShapeGroup"></path>
            <path d="M91.8838442,4.39709091 L88.8793766,4.39709091 L88.8793766,1.89672727 L91.8728312,1.89672727 C92.8610909,1.89672727 93.4283636,2.35116883 93.4283636,3.14161039 C93.4283636,3.93205195 92.822026,4.39709091 91.8838442,4.39709091 L91.8838442,4.39709091 Z M93.264,5.7681039 C94.5967792,5.35688312 95.3334026,4.37838961 95.3334026,3.06618182 C95.3334026,1.61953247 94.4357403,0.194493506 91.9956364,0.194493506 L86.9913766,0.194493506 L86.9913766,10.3071169 L88.8793766,10.3071169 L88.8793766,6.09932468 L91.2924675,6.09932468 L93.7288312,10.3071169 L95.9700779,10.3071169 L93.264,5.7681039 L93.264,5.7681039 Z" id="Fill-11" sketch:type="MSShapeGroup"></path>
            <path d="M43.2317922,9.32446753 C42.3842078,9.32446753 41.526026,8.78171429 41.526026,7.74462338 C41.526026,5.76644156 43.7570909,5.36353247 45.9864935,5.00155844 L45.9864935,5.85911688 C45.9864935,6.80103896 45.9698701,7.53350649 45.4931948,8.15148052 C44.9533506,8.86379221 44.0658701,9.32446753 43.2317922,9.32446753 L43.2317922,9.32446753 Z M48.0006234,3.57631169 C48.0006234,2.02036364 47.8682597,0.953350649 46.1201039,0.319792208 C45.5378701,0.125714286 44.8631688,0.0234805195 44.1176104,0.0234805195 C43.0992208,0.0234805195 42.4274286,0.172051948 41.5659221,0.572883117 C40.8461299,0.903896104 40.0054026,1.64176623 40.0054026,2.63314286 C40.0054026,3.46763636 40.4625455,4.00685714 41.1696623,4.00685714 C41.9611429,4.00685714 42.3966753,3.62285714 42.3966753,2.92654545 C42.3966753,2.64062338 42.2381299,2.2774026 42.0770909,2.04322078 C41.9158442,1.80924675 41.865974,1.66483117 42.065039,1.50005195 C42.4631688,1.16987013 43.2006234,1.07407792 43.8034286,1.07407792 C45.3171948,1.07407792 45.9873247,1.58296104 45.9873247,2.92176623 L45.9873247,4.05215584 C44.2963117,4.29153247 39.364987,5.01361039 39.364987,7.93288312 C39.364987,9.52748052 40.4895584,10.4797922 42.3727792,10.4797922 C43.8665974,10.4797922 45.2247273,9.88612987 46.1207273,8.85361039 C46.4268052,9.88675325 47.0100779,10.3540779 48.0081039,10.3540779 C48.598026,10.3540779 49.2182857,10.1082597 49.6132987,9.65236364 C49.9632208,9.24903896 49.7028571,8.78711688 49.2513247,8.98451948 C48.8135065,9.17651948 48.0006234,9.34981818 48.0006234,8.24561039 L48.0006234,3.57631169 L48.0006234,3.57631169 Z" id="Fill-12" sketch:type="MSShapeGroup"></path>
        </g>
    </g>
</svg>