<?xml version="1.0" encoding="UTF-8" standalone="no"?>
<svg width="92px" height="92px" viewBox="0 0 92 92" version="1.1" xmlns="http://www.w3.org/2000/svg" xmlns:xlink="http://www.w3.org/1999/xlink" xmlns:sketch="http://www.bohemiancoding.com/sketch/ns">
    <!-- Generator: Sketch 3.3.1 (12002) - http://www.bohemiancoding.com/sketch -->
    <title>offscreen</title>
    <desc>Created with Sketch.</desc>
    <defs></defs>
    <g id="Page-1" stroke="none" stroke-width="1" fill="none" fill-rule="evenodd" sketch:type="MSPage">
        <g id="offscreen" sketch:type="MSLayerGroup" transform="translate(1.000000, 1.000000)">
            <path d="M0,0 L89.5136842,0 L89.5136842,89.5136842 L0,89.5136842 L0,0 Z" id="Fill-1" fill="#333333" sketch:type="MSShapeGroup"></path>
            <path d="M0,0 L89.5136842,0 L89.5136842,89.5136842 L0,89.5136842 L0,0 Z" id="Stroke-2" stroke="#FFFFFF" sketch:type="MSShapeGroup"></path>
            <path d="M11.8818947,45.4512632 C11.8818947,42.2248421 13.9998947,40.1905263 16.9882105,40.1905263 C20.1726316,40.1905263 21.8137895,42.4351579 21.8137895,45.0584211 C21.8137895,48.2848421 19.6954737,50.3191579 16.7074737,50.3191579 C13.5230526,50.3191579 11.8818947,48.0745263 11.8818947,45.4512632 L11.8818947,45.4512632 Z M18.5873684,45.4651579 C18.5873684,42.8838947 18.1102105,40.92 16.7775789,40.92 C15.4588421,40.92 15.1083158,43.0945263 15.1083158,45.0445263 C15.1083158,47.6257895 15.5851579,49.5896842 16.9177895,49.5896842 C18.2365263,49.5896842 18.5873684,47.4151579 18.5873684,45.4651579 L18.5873684,45.4651579 Z" id="Fill-3" fill="#FFFFFF" sketch:type="MSShapeGroup"></path>
            <path d="M23.1606316,42.3931579 C23.1606316,40.1624211 24.7458947,39.3628421 26.5834737,39.3628421 C27.4951579,39.3628421 28.2388421,39.5873684 28.8277895,40.0923158 C29.4732632,39.4752632 30.4130526,39.1945263 31.4371579,39.1945263 C33.0505263,39.1945263 33.7661053,39.7417895 33.7661053,40.6395789 C33.7661053,41.0463158 33.5412632,41.3971579 33.2188421,41.5512632 L31.7737895,41.5512632 C31.8161053,41.3548421 31.8442105,41.1164211 31.8442105,40.8641053 C31.8442105,40.3730526 31.8018947,39.882 31.3809474,39.882 C30.9884211,39.882 30.8478947,40.1905263 30.8478947,40.7235789 L30.8478947,42.5614737 L32.4473684,42.5614737 L32.4473684,43.3610526 L30.8478947,43.3610526 L30.8478947,48.8178947 C30.8478947,49.4352632 31.1567368,49.4772632 31.9421053,49.5896842 L31.9421053,50.1789474 L27.2567368,50.1789474 L27.2567368,49.5896842 C27.7758947,49.5473684 27.9581053,49.5053684 27.9581053,49.0847368 L27.9581053,43.3610526 L26.0504211,43.3610526 L26.0504211,49.0847368 C26.0504211,49.5053684 26.2326316,49.5473684 26.7517895,49.5896842 L26.7517895,50.1789474 L22.4169474,50.1789474 L22.4169474,49.5896842 C22.9361053,49.5473684 23.1606316,49.5053684 23.1606316,49.0847368 L23.1606316,43.3610526 L22.1646316,43.3610526 L22.1646316,42.7297895 L23.1606316,42.4913684 L23.1606316,42.3931579 L23.1606316,42.3931579 Z M28.1406316,41.1726316 C27.9862105,40.5274737 27.5933684,40.0222105 26.8781053,40.0222105 C26.2888421,40.0222105 26.0504211,40.4712632 26.0504211,41.3409474 L26.0504211,42.5614737 L27.9581053,42.5614737 L27.9581053,42.3789474 C27.9581053,41.9302105 28.0285263,41.5234737 28.1406316,41.1726316 L28.1406316,41.1726316 Z" id="Fill-4" fill="#FFFFFF" sketch:type="MSShapeGroup"></path>
            <path d="M32.8121053,49.6035789 L32.7277895,47.7097895 L33.4433684,47.7097895 C33.6956842,48.8321053 34.4532632,49.6878947 35.5335789,49.6878947 C36.1648421,49.6878947 36.6697895,49.3932632 36.6697895,48.804 C36.6697895,48.1165263 36.1225263,47.9062105 35.2247368,47.6396842 C33.5974737,47.1628421 32.7138947,46.4614737 32.7138947,44.9883158 C32.7138947,43.3190526 33.9764211,42.4212632 35.73,42.4212632 C36.6978947,42.4212632 37.5956842,42.6735789 38.1988421,43.0664211 L38.1988421,44.7498947 L37.5394737,44.7498947 C37.3992632,43.866 36.768,43.0525263 35.8001053,43.0525263 C35.2389474,43.0525263 34.8461053,43.3468421 34.8461053,43.8521053 C34.8461053,44.4132632 35.2528421,44.6235789 36.1086316,44.9043158 C37.8622105,45.4793684 38.802,46.0544211 38.802,47.6677895 C38.802,49.3651579 37.5255789,50.3191579 35.5613684,50.3191579 C34.3411579,50.3191579 33.4433684,50.0384211 32.8121053,49.6035789" id="Fill-5" fill="#FFFFFF" sketch:type="MSShapeGroup"></path>
            <path d="M44.1047368,48.3972632 C44.9043158,48.3972632 45.4935789,48.1446316 45.9281053,47.5272632 L46.2650526,47.7378947 C45.8021053,49.5473684 44.6096842,50.3191579 42.9824211,50.3191579 C40.9904211,50.3191579 39.4332632,48.9303158 39.4332632,46.6016842 C39.4332632,44.2026316 41.0043158,42.4212632 43.3891579,42.4212632 C44.82,42.4212632 46.0544211,42.9543158 46.0544211,44.2588421 C46.0544211,44.8338947 45.7177895,45.1847368 45.3950526,45.3249474 L43.9503158,45.3249474 C43.9923158,44.9883158 44.0065263,44.7217895 44.0065263,44.4833684 C44.0065263,43.6414737 43.782,43.0945263 43.1646316,43.0945263 C42.3792632,43.0945263 41.9302105,44.1467368 41.9302105,45.5494737 C41.9302105,47.3169474 42.7158947,48.3972632 44.1047368,48.3972632" id="Fill-6" fill="#FFFFFF" sketch:type="MSShapeGroup"></path>
            <path d="M50.2771579,48.8178947 C50.2771579,49.4352632 50.5856842,49.4772632 51.3713684,49.5896842 L51.3713684,50.1789474 L46.6436842,50.1789474 L46.6436842,49.5896842 C47.1628421,49.5473684 47.3873684,49.5053684 47.3873684,49.0847368 L47.3873684,44.1748421 L46.6436842,43.6976842 L46.6436842,43.2628421 L49.7718947,42.4212632 L50.3330526,42.4212632 L50.2771579,44.6096842 C50.8102105,42.9262105 51.3290526,42.4212632 52.2271579,42.4212632 C52.5776842,42.4212632 52.8161053,42.5194737 52.9705263,42.6596842 L52.9705263,44.8057895 L52.6057895,44.8057895 C51.708,44.8057895 50.8803158,44.8338947 50.2771579,45.1986316 L50.2771579,48.8178947" id="Fill-7" fill="#FFFFFF" sketch:type="MSShapeGroup"></path>
            <path d="M60.3072632,45.5633684 L60.3072632,45.9142105 L55.8603158,45.9142105 C55.8603158,47.4571579 56.73,48.4392632 57.9647368,48.4392632 C58.8483158,48.4392632 59.5215789,48.1446316 60.0546316,47.4571579 L60.3495789,47.6396842 C59.9564211,49.2669474 58.8483158,50.3191579 57.0107368,50.3191579 C54.9205263,50.3191579 53.2509474,48.9865263 53.2509474,46.5312632 C53.2509474,43.9923158 55.0607368,42.4212632 57.1367368,42.4212632 C59.2411579,42.4212632 60.3072632,43.7257895 60.3072632,45.5633684 L60.3072632,45.5633684 Z M55.8742105,45.2267368 L57.8523158,45.2267368 C57.8523158,43.8378947 57.6277895,43.0383158 56.9545263,43.0383158 C56.2531579,43.0383158 55.9304211,43.908 55.8742105,45.2267368 L55.8742105,45.2267368 Z" id="Fill-8" fill="#FFFFFF" sketch:type="MSShapeGroup"></path>
            <path d="M67.9667368,45.5633684 L67.9667368,45.9142105 L63.5194737,45.9142105 C63.5194737,47.4571579 64.3894737,48.4392632 65.6238947,48.4392632 C66.5074737,48.4392632 67.1810526,48.1446316 67.7141053,47.4571579 L68.0087368,47.6396842 C67.6158947,49.2669474 66.5074737,50.3191579 64.6698947,50.3191579 C62.5796842,50.3191579 60.9104211,48.9865263 60.9104211,46.5312632 C60.9104211,43.9923158 62.7198947,42.4212632 64.7962105,42.4212632 C66.9003158,42.4212632 67.9667368,43.7257895 67.9667368,45.5633684 L67.9667368,45.5633684 Z M63.5336842,45.2267368 L65.5114737,45.2267368 C65.5114737,43.8378947 65.2872632,43.0383158 64.6136842,43.0383158 C63.9123158,43.0383158 63.5895789,43.908 63.5336842,45.2267368 L63.5336842,45.2267368 Z" id="Fill-9" fill="#FFFFFF" sketch:type="MSShapeGroup"></path>
            <path d="M73.9986316,44.9744211 C73.9986316,44.4552632 73.8303158,44.1044211 73.1286316,44.1044211 C72.7361053,44.1044211 72.4133684,44.1748421 72.0906316,44.2869474 L72.0906316,49.0847368 C72.0906316,49.5053684 72.2731579,49.5473684 72.7923158,49.5896842 L72.7923158,50.1789474 L68.4574737,50.1789474 L68.4574737,49.5896842 C68.9766316,49.5473684 69.2008421,49.5053684 69.2008421,49.0847368 L69.2008421,44.1748421 L68.4574737,43.6976842 L68.4574737,43.2628421 L71.5856842,42.4212632 L72.1468421,42.4212632 L72.0906316,43.8378947 C72.5958947,43.1788421 73.3954737,42.4212632 74.7138947,42.4212632 C76.0746316,42.4212632 76.8884211,43.1788421 76.8884211,44.7217895 L76.8884211,49.0847368 C76.8884211,49.5053684 77.1129474,49.5473684 77.6317895,49.5896842 L77.6317895,50.1789474 L73.2972632,50.1789474 L73.2972632,49.5896842 C73.8161053,49.5473684 73.9986316,49.5053684 73.9986316,49.0847368 L73.9986316,44.9744211" id="Fill-10" fill="#FFFFFF" sketch:type="MSShapeGroup"></path>
        </g>
    </g>
</svg>