<?xml version="1.0" encoding="UTF-8" standalone="no"?>
<svg width="200px" height="26px" viewBox="0 0 200 26" version="1.1" xmlns="http://www.w3.org/2000/svg" xmlns:xlink="http://www.w3.org/1999/xlink" xmlns:sketch="http://www.bohemiancoding.com/sketch/ns">
    <!-- Generator: Sketch 3.2.2 (9983) - http://www.bohemiancoding.com/sketch -->
    <title>overstock</title>
    <desc>Created with Sketch.</desc>
    <defs>
        <path id="path-1" d="M0.0241935484,0.250095238 L199.670161,0.250095238 L199.670161,26 L0.0241935484,26 L0.0241935484,0.250095238 Z"></path>
    </defs>
    <g id="Page-1" stroke="none" stroke-width="1" fill="none" fill-rule="evenodd" sketch:type="MSPage">
        <g id="overstock" sketch:type="MSLayerGroup">
            <g id="Group-3">
                <mask id="mask-2" sketch:name="Clip 2" fill="white">
                    <use xlink:href="#path-1"></use>
                </mask>
                <g id="Clip-2"></g>
                <path d="M0,0.250095238 L0,14.4535238 C0.627419355,12.224127 1.86491935,10.2052063 3.72016129,8.3992381 C6.52298387,5.67212698 9.82741935,4.30857143 13.6358871,4.30857143 C15.9971774,4.30857143 17.9137097,5.10631746 19.3822581,6.70387302 C20.8504032,8.30142857 21.5858871,10.3872063 21.5858871,12.9624444 C21.5858871,16.6899365 20.1782258,19.9126984 17.3645161,22.6299048 C15.7177419,24.2192063 13.8915323,25.3405079 11.8891129,26 L25.1584677,26 L25.1584677,0.250095238 L0,0.250095238 L0,0.250095238 Z M15.7608871,22.2947937 C17.3955645,20.2180952 18.2129032,17.6395556 18.2129032,14.5591746 C18.2129032,11.981873 17.5741935,9.84450794 16.2971774,8.14790476 C15.0201613,6.45088889 13.4145161,5.60320635 11.4822581,5.60320635 C9.03346774,5.60320635 6.98991935,6.63990476 5.34959677,8.71206349 C3.71008065,10.7838095 2.88991935,13.3701905 2.88991935,16.4695556 C2.88991935,19.0596508 3.52862903,21.1957778 4.80524194,22.8820635 C6.08145161,24.5683492 7.70443548,25.4106667 9.67298387,25.4106667 C12.0971774,25.4106667 14.1266129,24.3714921 15.7608871,22.2947937 L15.7608871,22.2947937 Z" id="Fill-1" fill="#272727" sketch:type="MSShapeGroup" mask="url(#mask-2)"></path>
            </g>
            <path d="M141.227016,8.87507937 L138.233065,8.87507937 L132.216935,14.9215238 L132.216935,3.54053968 L129.945565,3.54053968 L129.945565,23.1849841 L132.216935,23.1849841 L132.216935,17.7683175 L134.168952,15.9619365 L138.527419,23.1849841 L141.546371,23.1849841 L135.879032,14.2104444 L141.227016,8.87507937 L141.227016,8.87507937 Z M122.083871,10.6265714 C124.06371,10.6265714 125.104435,11.7751111 125.39879,13.6916825 L127.671774,13.6916825 C127.484677,11.2014603 126.093548,8.46526984 122.431452,8.46526984 C117.806452,8.46526984 115.722177,11.9950794 115.722177,16.4266349 C115.722177,20.5585714 118.047984,23.595619 121.978226,23.595619 C126.067339,23.595619 127.430242,20.3943175 127.671774,18.1232381 L125.39879,18.1232381 C124.998387,20.3130159 123.633871,21.5164444 122.056048,21.5164444 C118.822177,21.5164444 118.234677,18.4793968 118.234677,16.0168254 C118.234677,13.4725397 119.170968,10.6265714 122.083871,10.6265714 L122.083871,10.6265714 Z M107.08629,21.4887937 C103.718548,21.4887937 103.022177,17.9325714 103.022177,16.0168254 C103.022177,14.1014921 103.718548,10.5444444 107.08629,10.5444444 C110.454032,10.5444444 111.14879,14.1014921 111.14879,16.0168254 C111.14879,17.9325714 110.454032,21.4887937 107.08629,21.4887937 L107.08629,21.4887937 Z M107.08629,8.46526984 C102.620161,8.46526984 100.589113,12.3227619 100.589113,16.0168254 C100.589113,19.7096508 102.620161,23.5675556 107.08629,23.5675556 C111.550806,23.5675556 113.581855,19.7096508 113.581855,16.0168254 C113.581855,12.3227619 111.550806,8.46526984 107.08629,8.46526984 L107.08629,8.46526984 Z M96.9798387,4.88139683 L94.6278226,4.88139683 L94.6278226,8.87507937 L92.7302419,8.87507937 L92.7302419,10.8729524 L94.6278226,10.8729524 L94.6278226,20.3130159 C94.6278226,22.0364444 95.1354839,23.3764762 97.4612903,23.3764762 C97.7024194,23.3764762 98.3693548,23.2671111 99.2262097,23.1849841 L99.2262097,21.2964762 L98.3971774,21.2964762 C97.916129,21.2964762 96.9798387,21.2964762 96.9798387,20.1755873 L96.9798387,10.8729524 L99.2262097,10.8729524 L99.2262097,8.87507937 L96.9798387,8.87507937 L96.9798387,4.88139683 L96.9798387,4.88139683 Z M87.4637097,15.0866032 L85.1129032,14.4840635 C83.2951613,14.0193651 82.5737903,13.745746 82.5737903,12.5691429 C82.5737903,10.7916508 84.6314516,10.5444444 85.3544355,10.5444444 C88.3201613,10.5444444 88.641129,12.0495556 88.6677419,12.9525397 L90.9403226,12.9525397 C90.9403226,12.2410476 90.5931452,8.46526984 85.5943548,8.46526984 C82.8403226,8.46526984 80.3012097,9.88742857 80.3012097,13.0338413 C80.3012097,15.0044762 81.5846774,16.0168254 83.5350806,16.5087619 L86.2625,17.1934286 C88.2657258,17.7126032 89.0431452,18.096 89.0431452,19.2445397 C89.0431452,20.8317778 87.5181452,21.5164444 85.8342742,21.5164444 C82.5193548,21.5164444 82.1983871,19.7096508 82.1189516,18.5895873 L79.846371,18.5895873 C79.9270161,20.3130159 80.3274194,23.595619 85.8620968,23.595619 C89.0149194,23.595619 91.3951613,21.8173016 91.3951613,18.8619683 C91.3951613,16.9202222 90.3794355,15.825746 87.4637097,15.0866032 L87.4637097,15.0866032 Z M74.5516129,11.2555238 L74.4987903,11.2555238 L74.4987903,8.87507937 L72.2802419,8.87507937 L72.2802419,23.1849841 L74.6326613,23.1849841 L74.6326613,14.8682857 C74.6326613,12.787873 76.0221774,11.0372063 78.2153226,11.0372063 L79.0971774,11.0372063 L79.0971774,8.54698413 C78.9100806,8.49250794 78.7762097,8.46526984 78.4830645,8.46526984 C76.7169355,8.46526984 75.4879032,9.58698413 74.5516129,11.2555238 L74.5516129,11.2555238 Z M59.346371,14.8955238 C59.346371,12.6793333 61.0568548,10.6265714 63.2233871,10.6265714 C66.0834677,10.6265714 66.9915323,12.6793333 67.1258065,14.8955238 L59.346371,14.8955238 L59.346371,14.8955238 Z M63.5443548,8.46526984 C58.9193548,8.46526984 56.833871,11.9950794 56.833871,16.4266349 C56.833871,20.5585714 59.1592742,23.595619 63.0895161,23.595619 C65.3342742,23.595619 66.2439516,23.0487937 66.8858871,22.6096825 C68.6491935,21.4066667 69.2907258,19.3819683 69.3717742,18.6977143 L67.0197581,18.6977143 C66.9387097,19.7657778 65.628629,21.5164444 63.4104839,21.5164444 C60.7092742,21.5164444 59.346371,19.7921905 59.346371,16.8100317 L69.558871,16.8100317 C69.558871,11.7491111 67.5806452,8.46526984 63.5443548,8.46526984 L63.5443548,8.46526984 Z M49.6975806,20.5313333 L49.6447581,20.5313333 L46.008871,8.87507937 L43.2826613,8.87507937 L48.3875,23.1849841 L50.9016129,23.1849841 L56.2197581,8.87507937 L53.6544355,8.87507937 L49.6975806,20.5313333 L49.6975806,20.5313333 Z M36.0395161,21.4887937 C32.671371,21.4887937 31.9766129,17.9325714 31.9766129,16.0168254 C31.9766129,14.1014921 32.671371,10.5444444 36.0395161,10.5444444 C39.4072581,10.5444444 40.103629,14.1014921 40.103629,16.0168254 C40.103629,17.9325714 39.4072581,21.4887937 36.0395161,21.4887937 L36.0395161,21.4887937 Z M36.0395161,8.46526984 C31.575,8.46526984 29.5435484,12.3227619 29.5435484,16.0168254 C29.5435484,19.7096508 31.575,23.5675556 36.0395161,23.5675556 C40.503629,23.5675556 42.5350806,19.7096508 42.5350806,16.0168254 C42.5350806,12.3227619 40.503629,8.46526984 36.0395161,8.46526984 L36.0395161,8.46526984 Z" id="Fill-4" fill="#272727" sketch:type="MSShapeGroup"></path>
            <path d="M143.574194,20.2659683 L146.299597,20.2659683 L146.299597,23.1759048 L143.574194,23.1759048 L143.574194,20.2659683 Z" id="Fill-5" fill="#272727" sketch:type="MSShapeGroup"></path>
            <path d="M158.592339,9.64146032 C159.579032,10.4247619 160.172581,11.7726349 160.372177,13.6859048 L158.089919,13.6859048 C157.950806,12.8047937 157.633468,12.0730794 157.138306,11.4903492 C156.642742,10.907619 155.847177,10.6158413 154.751613,10.6158413 C153.256048,10.6158413 152.186694,11.3624127 151.543548,12.8555556 C151.12621,13.8241587 150.917339,15.019746 150.917339,16.4414921 C150.917339,17.8727302 151.212903,19.0765714 151.804032,20.0546667 C152.395161,21.0323492 153.325403,21.5209841 154.595161,21.5209841 C155.568548,21.5209841 156.340323,21.2176508 156.910081,20.6101587 C157.479435,20.0030794 157.872984,19.1719048 158.089919,18.1174603 L160.372177,18.1174603 C160.11129,20.0125714 159.459677,21.3988254 158.416129,22.2749841 C157.372984,23.1515556 156.038306,23.5898413 154.4125,23.5898413 C152.586694,23.5898413 151.130242,22.9068254 150.043548,21.5407937 C148.956452,20.1751746 148.413306,18.4686667 148.413306,16.4220952 C148.413306,13.9128889 149.008871,11.9595873 150.2,10.5626032 C151.391129,9.16561905 152.908468,8.46692063 154.751613,8.46692063 C156.325,8.46692063 157.605645,8.85857143 158.592339,9.64146032" id="Fill-6" fill="#272727" sketch:type="MSShapeGroup"></path>
            <path d="M171.916532,19.807873 C172.488306,18.6040317 172.774194,17.2635873 172.774194,15.7886032 C172.774194,14.4555873 172.567742,13.3710159 172.154839,12.5357143 C171.502016,11.2204444 170.375806,10.5626032 168.776613,10.5626032 C167.358065,10.5626032 166.326613,11.1226349 165.681855,12.2422857 C165.037097,13.3623492 164.714516,14.7131111 164.714516,16.2949841 C164.714516,17.8149524 165.037097,19.0815238 165.681855,20.0946984 C166.326613,21.107873 167.349194,21.614254 168.750806,21.614254 C170.289516,21.614254 171.344758,21.012127 171.916532,19.807873 L171.916532,19.807873 Z M173.37379,10.3075556 C174.608468,11.5345079 175.225806,13.3388254 175.225806,15.7213333 C175.225806,18.0246032 174.681855,19.9271429 173.593952,21.4297778 C172.506452,22.932 170.818548,23.6831111 168.531048,23.6831111 C166.622581,23.6831111 165.107661,23.0186667 163.985484,21.6897778 C162.862903,20.3604762 162.302016,18.5755556 162.302016,16.3350159 C162.302016,13.9343492 162.893145,12.0231429 164.075806,10.6005714 C165.258871,9.1784127 166.847177,8.46692063 168.841532,8.46692063 C170.628629,8.46692063 172.139516,9.08060317 173.37379,10.3075556 L173.37379,10.3075556 Z" id="Fill-7" fill="#272727" sketch:type="MSShapeGroup"></path>
            <path d="M177.57379,8.88085714 L179.895161,8.88085714 L179.895161,10.9096825 C180.451613,10.2068571 180.955645,9.69469841 181.408065,9.37444444 C182.181855,8.83174603 183.059677,8.56019048 184.042339,8.56019048 C185.155242,8.56019048 186.050806,8.8408254 186.729032,9.40126984 C187.11129,9.72152381 187.459274,10.1932381 187.772177,10.816 C188.293952,10.0508571 188.906855,9.48339683 189.61129,9.11444444 C190.315323,8.74507937 191.106452,8.56019048 191.984677,8.56019048 C193.8625,8.56019048 195.140726,9.25434921 195.818548,10.6426667 C196.183871,11.3900635 196.366532,12.3958095 196.366532,13.6590794 L196.366532,23.1759048 L193.927823,23.1759048 L193.927823,13.2455556 C193.927823,12.2934603 193.695161,11.6393333 193.229839,11.2831746 C192.764919,10.9274286 192.197581,10.7495556 191.528226,10.7495556 C190.606452,10.7495556 189.813306,11.0652698 189.147984,11.6971111 C188.483065,12.3289524 188.150403,13.3833968 188.150403,14.8604444 L188.150403,23.1759048 L185.76371,23.1759048 L185.76371,13.8460317 C185.76371,12.8761905 185.650806,12.1688254 185.424597,11.7235238 C185.068145,11.0561905 184.402823,10.7227302 183.429435,10.7227302 C182.542742,10.7227302 181.73629,11.0743492 181.010484,11.7771746 C180.284274,12.48 179.921371,13.7523492 179.921371,15.5946349 L179.921371,23.1759048 L177.57379,23.1759048 L177.57379,8.88085714" id="Fill-8" fill="#272727" sketch:type="MSShapeGroup"></path>
            <path d="M198.194355,6.3444127 C198.129839,6.3192381 198.039113,6.30603175 197.921774,6.30603175 L197.806855,6.30603175 L197.806855,6.84006349 L197.989516,6.84006349 C198.1,6.84006349 198.185887,6.81777778 198.247581,6.77279365 C198.308871,6.72780952 198.339919,6.6547619 198.339919,6.55406349 C198.339919,6.45336508 198.291532,6.38361905 198.194355,6.3444127 L198.194355,6.3444127 Z M197.335484,7.82311111 L197.335484,5.9812381 C197.447177,5.9812381 197.614516,5.98165079 197.836694,5.98247619 C198.058871,5.98330159 198.182661,5.98453968 198.208065,5.98619048 C198.350403,5.99650794 198.468548,6.02787302 198.562097,6.08069841 C198.722581,6.17066667 198.802419,6.3175873 198.802419,6.52022222 C198.802419,6.67498413 198.760484,6.7868254 198.675806,6.85533333 C198.591532,6.92425397 198.4875,6.96552381 198.364113,6.97873016 C198.477016,7.00307937 198.562097,7.03857143 198.619758,7.08520635 C198.725403,7.17311111 198.778629,7.31095238 198.778629,7.49873016 L198.778629,7.66298413 C198.778629,7.68114286 198.779435,7.69888889 198.781855,7.71704762 C198.783871,7.73520635 198.788306,7.75336508 198.794758,7.77111111 L198.81129,7.82311111 L198.361694,7.82311111 C198.347177,7.76450794 198.3375,7.67949206 198.332258,7.56847619 C198.327016,7.45704762 198.317339,7.38234921 198.302419,7.34314286 C198.279032,7.27834921 198.235081,7.23336508 198.170565,7.20777778 C198.135081,7.19292063 198.081452,7.18301587 198.009677,7.17847619 L197.906048,7.17187302 L197.806855,7.17187302 L197.806855,7.82311111 L197.335484,7.82311111 L197.335484,7.82311111 Z M197.093548,5.93666667 C196.834677,6.20698413 196.705645,6.52765079 196.705645,6.89907937 C196.705645,7.28371429 196.837097,7.61015873 197.1,7.87965079 C197.36129,8.14831746 197.677016,8.28285714 198.047177,8.28285714 C198.415323,8.28285714 198.730242,8.14749206 198.991935,7.8771746 C199.253226,7.60520635 199.384274,7.2791746 199.384274,6.89907937 C199.384274,6.52930159 199.254032,6.20822222 198.994355,5.93666667 C198.731048,5.66015873 198.415323,5.52149206 198.047177,5.52149206 C197.67379,5.52149206 197.356048,5.66015873 197.093548,5.93666667 L197.093548,5.93666667 Z M199.183468,8.09177778 C198.867742,8.40377778 198.489113,8.56019048 198.047177,8.56019048 C197.590323,8.56019048 197.205645,8.40006349 196.893145,8.08022222 C196.580242,7.75996825 196.42379,7.36666667 196.42379,6.89907937 C196.42379,6.41333333 196.592742,6.01012698 196.930645,5.68822222 C197.247581,5.38819048 197.620161,5.23755556 198.047177,5.23755556 C198.494758,5.23755556 198.877419,5.39974603 199.194758,5.72453968 C199.511694,6.04892063 199.670161,6.44098413 199.670161,6.89907937 C199.670161,7.37079365 199.508065,7.76822222 199.183468,8.09177778 L199.183468,8.09177778 Z" id="Fill-9" fill="#272727" sketch:type="MSShapeGroup"></path>
        </g>
    </g>
</svg>