<?xml version="1.0" encoding="UTF-8" standalone="no"?>
<svg width="97px" height="9px" viewBox="0 0 97 9" version="1.1" xmlns="http://www.w3.org/2000/svg" xmlns:xlink="http://www.w3.org/1999/xlink" xmlns:sketch="http://www.bohemiancoding.com/sketch/ns">
    <!-- Generator: Sketch 3.3.1 (12002) - http://www.bohemiancoding.com/sketch -->
    <title>pluralsight_white</title>
    <desc>Created with Sketch.</desc>
    <defs>
        <path id="path-1" d="M0,0.251555556 L96,0.251555556 L96,7.97333333 L0,7.97333333"></path>
        <path id="path-3" d="M0,0.251555556 L96,0.251555556 L96,7.97333333 L0,7.97333333"></path>
    </defs>
    <g id="Page-1" stroke="none" stroke-width="1" fill="none" fill-rule="evenodd" sketch:type="MSPage">
        <g id="pluralsight_white" sketch:type="MSLayerGroup" transform="translate(0.937160, 0.333333)">
            <path d="M0,0.379555556 L2.95422222,0.379555556 C4.69822222,0.379555556 5.80088889,1.37466667 5.80088889,2.88444444 L5.80088889,2.90577778 C5.80088889,4.58577778 4.45244444,5.464 2.804,5.464 L1.316,5.464 L1.316,7.872 L0,7.872 L0,0.379555556 L0,0.379555556 Z M2.84711111,4.27555556 C3.84222222,4.27555556 4.46355556,3.71911111 4.46355556,2.93777778 L4.46355556,2.916 C4.46355556,2.03955556 3.832,1.57866667 2.84711111,1.57866667 L1.316,1.57866667 L1.316,4.27555556 L2.84711111,4.27555556 L2.84711111,4.27555556 Z" id="Fill-1" fill="#FFFFFF" sketch:type="MSShapeGroup"></path>
            <mask id="mask-2" sketch:name="Clip 3" fill="white">
                <use xlink:href="#path-1"></use>
            </mask>
            <g id="Clip-3"></g>
            <path d="M9.06977778,0.379555556 L10.3866667,0.379555556 L10.3866667,6.67333333 L14.3257778,6.67333333 L14.3257778,7.872 L9.06977778,7.872 L9.06977778,0.379555556" id="Fill-2" fill="#FFFFFF" sketch:type="MSShapeGroup" mask="url(#mask-2)"></path>
            <path d="M17.2835556,4.69333333 L17.2835556,0.38 L18.6004444,0.38 L18.6004444,4.63955556 C18.6004444,6.03111111 19.3177778,6.78 20.4942222,6.78 C21.6617778,6.78 22.3786667,6.07377778 22.3786667,4.69333333 L22.3786667,0.38 L23.6951111,0.38 L23.6951111,4.62844444 C23.6951111,6.86577778 22.432,7.99022222 20.4737778,7.99022222 C18.5253333,7.99022222 17.2835556,6.86577778 17.2835556,4.69333333" id="Fill-4" fill="#FFFFFF" sketch:type="MSShapeGroup" mask="url(#mask-2)"></path>
            <path d="M27.4244444,0.379555556 L30.764,0.379555556 C31.7057778,0.379555556 32.4444444,0.658666667 32.9262222,1.12888889 C33.3213333,1.53555556 33.5466667,2.09244444 33.5466667,2.74488889 L33.5466667,2.76711111 C33.5466667,3.99733333 32.8075556,4.73644444 31.7595556,5.036 L33.7817778,7.872 L32.2306667,7.872 L30.3893333,5.26044444 L28.7404444,5.26044444 L28.7404444,7.872 L27.4244444,7.872 L27.4244444,0.379555556 L27.4244444,0.379555556 Z M30.6671111,4.09422222 C31.6088889,4.09422222 32.2084444,3.60133333 32.2084444,2.84133333 L32.2084444,2.82 C32.2084444,2.01733333 31.6311111,1.57866667 30.6568889,1.57866667 L28.7404444,1.57866667 L28.7404444,4.09422222 L30.6671111,4.09422222 L30.6671111,4.09422222 Z" id="Fill-6" fill="#FFFFFF" sketch:type="MSShapeGroup" mask="url(#mask-2)"></path>
            <path d="M39.7373333,0.326666667 L40.9573333,0.326666667 L44.2537778,7.872 L42.8622222,7.872 L42.1022222,6.06355556 L38.56,6.06355556 L37.7893333,7.872 L36.4404444,7.872 L39.7373333,0.326666667 L39.7373333,0.326666667 Z M41.6204444,4.89644444 L40.3262222,1.89955556 L39.0413333,4.89644444 L41.6204444,4.89644444 L41.6204444,4.89644444 Z" id="Fill-7" fill="#FFFFFF" sketch:type="MSShapeGroup" mask="url(#mask-2)"></path>
            <mask id="mask-4" sketch:name="Clip 9" fill="white">
                <use xlink:href="#path-3"></use>
            </mask>
            <g id="Clip-9"></g>
            <path d="M47.4577778,0.379555556 L48.7737778,0.379555556 L48.7737778,6.67333333 L52.7128889,6.67333333 L52.7128889,7.872 L47.4577778,7.872 L47.4577778,0.379555556" id="Fill-8" fill="#FFFFFF" sketch:type="MSShapeGroup" mask="url(#mask-4)"></path>
            <path d="M55.5008889,6.78 L56.2924444,5.83822222 C57.0097778,6.45911111 57.7275556,6.81155556 58.6582222,6.81155556 C59.4715556,6.81155556 59.9853333,6.43777778 59.9853333,5.87022222 L59.9853333,5.84933333 C59.9853333,5.31333333 59.6853333,5.02488889 58.2942222,4.704 C56.6995556,4.31866667 55.8004444,3.84755556 55.8004444,2.46711111 L55.8004444,2.44533333 C55.8004444,1.16088889 56.8711111,0.272888889 58.3586667,0.272888889 C59.4502222,0.272888889 60.3164444,0.604444444 61.0768889,1.21511111 L60.3706667,2.21066667 C59.6964444,1.70666667 59.0217778,1.44 58.3373333,1.44 C57.5657778,1.44 57.1168889,1.83555556 57.1168889,2.328 L57.1168889,2.34933333 C57.1168889,2.92711111 57.4595556,3.184 58.8933333,3.52666667 C60.4773333,3.912 61.3013333,4.47911111 61.3013333,5.72088889 L61.3013333,5.74177778 C61.3013333,7.144 60.1991111,7.97911111 58.6257778,7.97911111 C57.4808889,7.97911111 56.4,7.58311111 55.5008889,6.78" id="Fill-10" fill="#FFFFFF" sketch:type="MSShapeGroup" mask="url(#mask-4)"></path>
            <path d="M64.8502222,0.379555556 L66.1662222,0.379555556 L66.1662222,7.872 L64.8502222,7.872 L64.8502222,0.379555556 Z" id="Fill-11" fill="#FFFFFF" sketch:type="MSShapeGroup" mask="url(#mask-4)"></path>
            <path d="M69.7586667,4.14711111 L69.7586667,4.12577778 C69.7586667,2.028 71.3644444,0.251555556 73.6226667,0.251555556 C74.9284444,0.251555556 75.732,0.615555556 76.5022222,1.26888889 L75.6671111,2.264 C75.0893333,1.77155556 74.5217778,1.46044444 73.5688889,1.46044444 C72.1888889,1.46044444 71.1395556,2.67066667 71.1395556,4.10444444 L71.1395556,4.12577778 C71.1395556,5.66711111 72.156,6.80177778 73.6871111,6.80177778 C74.3933333,6.80177778 75.0355556,6.57733333 75.4955556,6.23422222 L75.4955556,4.832 L73.58,4.832 L73.58,3.68711111 L76.7697778,3.68711111 L76.7697778,6.83422222 C76.0315556,7.46533333 74.9715556,8 73.644,8 C71.2995556,8 69.7586667,6.33066667 69.7586667,4.14711111" id="Fill-12" fill="#FFFFFF" sketch:type="MSShapeGroup" mask="url(#mask-4)"></path>
            <path d="M80.4017778,0.379555556 L81.7182222,0.379555556 L81.7182222,3.49466667 L85.2928889,3.49466667 L85.2928889,0.379555556 L86.6093333,0.379555556 L86.6093333,7.872 L85.2928889,7.872 L85.2928889,4.71422222 L81.7182222,4.71422222 L81.7182222,7.872 L80.4017778,7.872 L80.4017778,0.379555556" id="Fill-14" fill="#FFFFFF" sketch:type="MSShapeGroup" mask="url(#mask-4)"></path>
            <path d="M89.92,0.379555556 L89.92,1.6 L92.2968889,1.6 L92.2968889,7.872 L93.6235556,7.872 L93.6235556,1.6 L96,1.6 L96,0.379555556 L89.92,0.379555556" id="Fill-15" fill="#FFFFFF" sketch:type="MSShapeGroup" mask="url(#mask-4)"></path>
        </g>
    </g>
</svg>