<?xml version="1.0" encoding="UTF-8" standalone="no"?>
<svg width="200px" height="17px" viewBox="0 0 200 17" version="1.1" xmlns="http://www.w3.org/2000/svg" xmlns:xlink="http://www.w3.org/1999/xlink" xmlns:sketch="http://www.bohemiancoding.com/sketch/ns">
    <!-- Generator: Sketch 3.3.1 (12002) - http://www.bohemiancoding.com/sketch -->
    <title>pluralsight</title>
    <desc>Created with Sketch.</desc>
    <defs>
        <path id="path-1" d="M0,0.524074074 L200,0.524074074 L200,16.6111111 L0,16.6111111"></path>
        <path id="path-3" d="M0,0.524074074 L200,0.524074074 L200,16.6111111 L0,16.6111111"></path>
    </defs>
    <g id="Page-1" stroke="none" stroke-width="1" fill="none" fill-rule="evenodd" sketch:type="MSPage">
        <g id="pluralsight" sketch:type="MSLayerGroup">
            <path d="M0,0.790740741 L6.15462963,0.790740741 C9.78796296,0.790740741 12.0851852,2.86388889 12.0851852,6.00925926 L12.0851852,6.0537037 C12.0851852,9.5537037 9.27592593,11.3833333 5.84166667,11.3833333 L2.74166667,11.3833333 L2.74166667,16.4 L0,16.4 L0,0.790740741 L0,0.790740741 Z M5.93148148,8.90740741 C8.00462963,8.90740741 9.29907407,7.74814815 9.29907407,6.12037037 L9.29907407,6.075 C9.29907407,4.24907407 7.98333333,3.28888889 5.93148148,3.28888889 L2.74166667,3.28888889 L2.74166667,8.90740741 L5.93148148,8.90740741 L5.93148148,8.90740741 Z" id="Fill-1" fill="#333333" sketch:type="MSShapeGroup"></path>
            <g id="Group-5">
                <mask id="mask-2" sketch:name="Clip 3" fill="white">
                    <use xlink:href="#path-1"></use>
                </mask>
                <g id="Clip-3"></g>
                <path d="M18.8953704,0.790740741 L21.6388889,0.790740741 L21.6388889,13.9027778 L29.8453704,13.9027778 L29.8453704,16.4 L18.8953704,16.4 L18.8953704,0.790740741" id="Fill-2" fill="#333333" sketch:type="MSShapeGroup" mask="url(#mask-2)"></path>
                <path d="M36.0074074,9.77777778 L36.0074074,0.791666667 L38.7509259,0.791666667 L38.7509259,9.66574074 C38.7509259,12.5648148 40.2453704,14.125 42.6962963,14.125 C45.1287037,14.125 46.6222222,12.6537037 46.6222222,9.77777778 L46.6222222,0.791666667 L49.3648148,0.791666667 L49.3648148,9.64259259 C49.3648148,14.3037037 46.7333333,16.6462963 42.6537037,16.6462963 C38.5944444,16.6462963 36.0074074,14.3037037 36.0074074,9.77777778" id="Fill-4" fill="#333333" sketch:type="MSShapeGroup" mask="url(#mask-2)"></path>
            </g>
            <path d="M57.1342593,0.790740741 L64.0916667,0.790740741 C66.0537037,0.790740741 67.5925926,1.37222222 68.5962963,2.35185185 C69.4194444,3.19907407 69.8888889,4.35925926 69.8888889,5.71851852 L69.8888889,5.76481481 C69.8888889,8.32777778 68.3490741,9.86759259 66.1657407,10.4916667 L70.3787037,16.4 L67.1472222,16.4 L63.3111111,10.9592593 L59.8759259,10.9592593 L59.8759259,16.4 L57.1342593,16.4 L57.1342593,0.790740741 L57.1342593,0.790740741 Z M63.8898148,8.52962963 C65.8518519,8.52962963 67.1009259,7.50277778 67.1009259,5.91944444 L67.1009259,5.875 C67.1009259,4.20277778 65.8981481,3.28888889 63.8685185,3.28888889 L59.8759259,3.28888889 L59.8759259,8.52962963 L63.8898148,8.52962963 L63.8898148,8.52962963 Z" id="Fill-6" fill="#333333" sketch:type="MSShapeGroup"></path>
            <path d="M82.7861111,0.680555556 L85.3277778,0.680555556 L92.1953704,16.4 L89.2962963,16.4 L87.712963,12.6324074 L80.3333333,12.6324074 L78.7277778,16.4 L75.9175926,16.4 L82.7861111,0.680555556 L82.7861111,0.680555556 Z M86.7092593,10.2009259 L84.012963,3.95740741 L81.3361111,10.2009259 L86.7092593,10.2009259 L86.7092593,10.2009259 Z" id="Fill-7" fill="#333333" sketch:type="MSShapeGroup"></path>
            <g id="Group-13">
                <mask id="mask-4" sketch:name="Clip 9" fill="white">
                    <use xlink:href="#path-3"></use>
                </mask>
                <g id="Clip-9"></g>
                <path d="M98.8703704,0.790740741 L101.612037,0.790740741 L101.612037,13.9027778 L109.818519,13.9027778 L109.818519,16.4 L98.8703704,16.4 L98.8703704,0.790740741" id="Fill-8" fill="#333333" sketch:type="MSShapeGroup" mask="url(#mask-4)"></path>
                <path d="M115.626852,14.125 L117.275926,12.162963 C118.77037,13.4564815 120.265741,14.1907407 122.20463,14.1907407 C123.899074,14.1907407 124.969444,13.412037 124.969444,12.2296296 L124.969444,12.1861111 C124.969444,11.0694444 124.344444,10.4685185 121.446296,9.8 C118.124074,8.99722222 116.250926,8.01574074 116.250926,5.13981481 L116.250926,5.09444444 C116.250926,2.41851852 118.481481,0.568518519 121.580556,0.568518519 C123.85463,0.568518519 125.659259,1.25925926 127.243519,2.53148148 L125.772222,4.60555556 C124.367593,3.55555556 122.962037,3 121.536111,3 C119.928704,3 118.993519,3.82407407 118.993519,4.85 L118.993519,4.89444444 C118.993519,6.09814815 119.707407,6.63333333 122.694444,7.34722222 C125.994444,8.15 127.711111,9.33148148 127.711111,11.9185185 L127.711111,11.962037 C127.711111,14.8833333 125.414815,16.6231481 122.137037,16.6231481 C119.751852,16.6231481 117.5,15.7981481 115.626852,14.125" id="Fill-10" fill="#333333" sketch:type="MSShapeGroup" mask="url(#mask-4)"></path>
                <path d="M135.10463,0.790740741 L137.846296,0.790740741 L137.846296,16.4 L135.10463,16.4 L135.10463,0.790740741 Z" id="Fill-11" fill="#333333" sketch:type="MSShapeGroup" mask="url(#mask-4)"></path>
                <path d="M145.330556,8.63981481 L145.330556,8.59537037 C145.330556,4.225 148.675926,0.524074074 153.380556,0.524074074 C156.100926,0.524074074 157.775,1.28240741 159.37963,2.64351852 L157.639815,4.71666667 C156.436111,3.69074074 155.253704,3.04259259 153.268519,3.04259259 C150.393519,3.04259259 148.207407,5.56388889 148.207407,8.55092593 L148.207407,8.59537037 C148.207407,11.8064815 150.325,14.1703704 153.514815,14.1703704 C154.986111,14.1703704 156.324074,13.7027778 157.282407,12.987963 L157.282407,10.0666667 L153.291667,10.0666667 L153.291667,7.68148148 L159.937037,7.68148148 L159.937037,14.237963 C158.399074,15.5527778 156.190741,16.6666667 153.425,16.6666667 C148.540741,16.6666667 145.330556,13.1888889 145.330556,8.63981481" id="Fill-12" fill="#333333" sketch:type="MSShapeGroup" mask="url(#mask-4)"></path>
            </g>
            <path d="M167.503704,0.790740741 L170.246296,0.790740741 L170.246296,7.28055556 L177.693519,7.28055556 L177.693519,0.790740741 L180.436111,0.790740741 L180.436111,16.4 L177.693519,16.4 L177.693519,9.8212963 L170.246296,9.8212963 L170.246296,16.4 L167.503704,16.4 L167.503704,0.790740741" id="Fill-14" fill="#333333" sketch:type="MSShapeGroup"></path>
            <path d="M187.333333,0.790740741 L187.333333,3.33333333 L192.285185,3.33333333 L192.285185,16.4 L195.049074,16.4 L195.049074,3.33333333 L200,3.33333333 L200,0.790740741 L187.333333,0.790740741" id="Fill-15" fill="#333333" sketch:type="MSShapeGroup"></path>
        </g>
    </g>
</svg>