<?xml version="1.0" encoding="UTF-8" standalone="no"?>
<svg width="150px" height="62px" viewBox="0 0 150 62" version="1.1" xmlns="http://www.w3.org/2000/svg" xmlns:xlink="http://www.w3.org/1999/xlink" xmlns:sketch="http://www.bohemiancoding.com/sketch/ns">
    <!-- Generator: Sketch 3.2.2 (9983) - http://www.bohemiancoding.com/sketch -->
    <title>prott</title>
    <desc>Created with Sketch.</desc>
    <defs>
        <path id="path-1" d="M0,0.339552448 L149.928592,0.339552448 L149.928592,60.9744056 L0,60.9744056"></path>
        <path id="path-3" d="M0,0.339552448 L149.928592,0.339552448 L149.928592,60.9744056 L0,60.9744056"></path>
    </defs>
    <g id="Page-1" stroke="none" stroke-width="1" fill="none" fill-rule="evenodd" sketch:type="MSPage">
        <g id="prott" sketch:type="MSLayerGroup" transform="translate(0.000000, 0.521091)">
            <g id="Group-3">
                <mask id="mask-2" sketch:name="Clip 2" fill="white">
                    <use xlink:href="#path-1"></use>
                </mask>
                <g id="Clip-2"></g>
                <path d="M4.89380282,61 C2.18957746,61 0,58.7835245 0,56.059 L0,44.3414545 C0,41.6062657 2.18957746,39.4068531 4.89380282,39.4068531 L14.9023944,39.4068531 C21.6135211,39.4068531 23.3805634,32.3355455 23.3805634,28.6034545 C23.3805634,25.7398671 22.5625352,23.0554406 21.1440845,21.2181888 C19.6411268,19.3160979 17.6108451,18.3861678 14.9023944,18.3861678 L4.89380282,18.3861678 C2.18957746,18.3861678 0,16.1812098 0,13.4541259 C0,10.7325874 2.18957746,8.51696503 4.89380282,8.51696503 L14.9023944,8.51696503 C20.5470423,8.51696503 25.4890141,10.8562937 28.8139437,15.1113636 C31.6153521,18.692021 33.1601408,23.4862797 33.1601408,28.6034545 C33.1601408,38.6185455 26.7676056,49.2739231 14.9023944,49.2739231 L9.78,49.2739231 L9.78,56.059 C9.78,58.7835245 7.59169014,61 4.89380282,61" id="Fill-1" fill="#333333" sketch:type="MSShapeGroup" mask="url(#mask-2)"></path>
            </g>
            <path d="M58.104507,10.0440979 C57.4622535,9.95963636 56.8149296,9.91655245 56.1798592,9.91655245 C52.9183099,9.91655245 50.1629577,10.9927972 48.4191549,12.9076853 C48.3067606,11.003035 46.3056338,10.0082657 44.3277465,10.0082657 C42.186338,10.0082657 39.8814085,11.1544685 39.8814085,13.6708252 L39.8814085,44.1661329 C39.8814085,45.3630979 40.3753521,46.3719441 41.3087324,47.0834685 C42.1132394,47.6968811 43.181831,48.0343007 44.3184507,48.0343007 C46.3804225,48.0343007 48.6,46.8607972 48.6,44.2851469 L48.6,27.1961888 C48.6,21.9723706 51.6714085,18.3238881 56.0687324,18.3238881 C56.5935211,18.3238881 57.1352113,18.3763566 57.7119718,18.4847063 C60.078169,18.7355315 61.4366197,16.5519021 61.5316901,14.4083706 C61.6208451,12.3987832 60.5902817,10.2689021 58.104507,10.0440979" id="Fill-4" fill="#333333" sketch:type="MSShapeGroup"></path>
            <path d="M82.0360563,18.0116364 C87.4669014,18.0116364 91.7205634,22.8536713 91.7205634,29.0347203 C91.7205634,35.1492238 87.4669014,39.9383636 82.0360563,39.9383636 C76.6056338,39.9383636 72.3515493,35.1492238 72.3515493,29.0347203 C72.3515493,22.8536713 76.6056338,18.0116364 82.0360563,18.0116364 L82.0360563,18.0116364 Z M82.0360563,9.62477622 C71.5111268,9.62477622 63.5738028,17.968979 63.5738028,29.0347203 C63.5738028,34.3562238 65.4097183,39.2426224 68.7430986,42.7942727 C72.1271831,46.3996713 76.848169,48.3849441 82.0360563,48.3849441 C87.2243662,48.3849441 91.9449296,46.3996713 95.3290141,42.7942727 C98.6623944,39.2426224 100.498732,34.3562238 100.498732,29.0347203 C100.498732,17.4715944 92.561831,9.62477622 82.0360563,9.62477622 L82.0360563,9.62477622 Z" id="Fill-5" fill="#333333" sketch:type="MSShapeGroup"></path>
            <g id="Group-9">
                <mask id="mask-4" sketch:name="Clip 7" fill="white">
                    <use xlink:href="#path-3"></use>
                </mask>
                <g id="Clip-7"></g>
                <path d="M122.298592,39.4141049 C122.097465,39.4141049 121.89,39.4345804 121.658451,39.4815035 C120.841268,39.690951 120.12169,39.7975944 119.51831,39.7975944 C117.889859,39.7975944 117.131408,39.0553566 117.131408,37.4625315 L117.131408,18.6557622 L138.252254,18.6557622 C140.298592,18.6557622 141.231127,16.5894406 141.231127,14.6698601 C141.231127,12.7502797 140.298592,10.683958 138.252254,10.683958 L117.131408,10.683958 L117.131408,3.88053846 C117.131408,1.44779021 114.871268,0.339552448 112.77169,0.339552448 C110.672113,0.339552448 108.411972,1.44779021 108.411972,3.88053846 L108.411972,10.683958 L105.837887,10.683958 C104.931127,10.683958 104.184085,11.1190629 103.677465,11.9423497 C103.262535,12.6167622 103.033944,13.5334685 103.033944,14.5214126 C103.033944,16.5762168 103.996901,18.6557622 105.837887,18.6557622 L108.411972,18.6557622 L108.411972,39.716972 C108.411972,44.8755245 111.490986,48.0799441 116.446901,48.0799441 C118.520282,48.0799441 120.78169,47.5326503 123.173662,46.4521399 C125.01,45.596007 125.487465,43.5544266 125.153239,42.0191888 C124.809296,40.4366014 123.68831,39.4141049 122.298592,39.4141049" id="Fill-6" fill="#333333" sketch:type="MSShapeGroup" mask="url(#mask-4)"></path>
                <path d="M149.829718,42.0191888 C149.485352,40.4366014 148.364789,39.4141049 146.97507,39.4141049 C146.773521,39.4141049 146.566056,39.4345804 146.334507,39.4815035 C145.517746,39.690951 144.797746,39.7975944 144.194789,39.7975944 C142.565915,39.7975944 141.807465,39.0553566 141.807465,37.4625315 L141.807465,18.6557622 L146.027324,18.6557622 C148.073239,18.6557622 149.005775,16.5894406 149.005775,14.6698601 C149.005775,12.7502797 148.073239,10.683958 146.027324,10.683958 L141.807465,10.683958 L141.807465,3.88053846 C141.807465,1.44779021 139.547746,0.339552448 137.448169,0.339552448 C135.348169,0.339552448 133.088028,1.44779021 133.088028,3.88053846 L133.088028,10.683958 L130.514366,10.683958 C129.607183,10.683958 128.860563,11.1190629 128.353521,11.9423497 C127.938592,12.6167622 127.71,13.5334685 127.71,14.5214126 C127.71,16.5762168 128.672958,18.6557622 130.514366,18.6557622 L133.088028,18.6557622 L133.088028,39.716972 C133.088028,44.8755245 136.167465,48.0799441 141.122958,48.0799441 C143.196338,48.0799441 145.458169,47.5326503 147.849718,46.4521399 C149.686479,45.596007 150.163944,43.5544266 149.829718,42.0191888" id="Fill-8" fill="#333333" sketch:type="MSShapeGroup" mask="url(#mask-4)"></path>
            </g>
        </g>
    </g>
</svg>