<?xml version="1.0" encoding="UTF-8" standalone="no"?>
<svg width="175px" height="46px" viewBox="0 0 175 46" version="1.1" xmlns="http://www.w3.org/2000/svg" xmlns:xlink="http://www.w3.org/1999/xlink" xmlns:sketch="http://www.bohemiancoding.com/sketch/ns">
    <!-- Generator: Sketch 3.3.1 (12002) - http://www.bohemiancoding.com/sketch -->
    <title>rosenfeld</title>
    <desc>Created with Sketch.</desc>
    <defs></defs>
    <g id="Page-1" stroke="none" stroke-width="1" fill="none" fill-rule="evenodd" sketch:type="MSPage">
        <g id="rosenfeld" sketch:type="MSLayerGroup">
            <path d="M45.107,23.008 C45.107,35.432 35.034,45.506 22.607,45.506 C10.181,45.506 0.107,35.432 0.107,23.008 C0.107,10.58 10.181,0.506 22.607,0.506 C35.034,0.506 45.107,10.58 45.107,23.008" id="Fill-1" fill="#333333" sketch:type="MSShapeGroup"></path>
            <path d="M33.104,12.316 L16.311,12.316 C11.123,12.316 8.346,16.71 7.136,20.073 C5.745,23.941 5.496,30.992 5.496,32.432 C5.496,32.432 5.493,33.232 5.493,33.238 C5.493,33.434 5.652,33.594 5.852,33.594 L9.022,33.594 C9.221,33.594 9.378,33.434 9.378,33.238 L9.378,32.469 C9.378,31.516 9.279,30.572 9.734,29.137 C10.505,26.691 11.794,25.309 14.362,25.211 L16.431,25.211 L16.431,33.238 C16.431,33.434 16.588,33.594 16.787,33.594 L20.313,33.594 C20.507,33.594 20.667,33.434 20.667,33.238 C20.667,33.168 20.669,29.717 20.669,29.717 C20.669,29.359 20.716,29.008 20.832,28.697 C21.165,27.654 21.942,26.611 23.219,26.611 C24.81,26.611 25.381,27.916 25.381,29.738 C25.381,29.738 25.378,33.205 25.378,33.238 C25.378,33.441 25.538,33.594 25.737,33.594 L29.418,33.594 C29.615,33.594 29.775,33.438 29.775,33.238 L29.775,29.525 C29.775,29.172 29.846,28.793 29.939,28.486 C30.319,27.49 30.945,26.611 32.156,26.611 C33.814,26.611 34.409,27.916 34.409,30.145 L34.409,33.238 C34.409,33.434 34.566,33.594 34.766,33.594 L38.692,33.594 C38.889,33.594 39.056,33.434 39.056,33.238 C39.056,33.232 39.058,17.754 39.058,17.754 C39.058,14.751 36.105,12.316 33.104,12.316 L33.104,12.316 Z M16.586,20.658 L15.648,20.658 C14.669,20.658 14.047,20.119 14.047,19.309 C14.047,18.392 14.713,17.995 15.681,17.995 C16.123,17.995 16.431,18.036 16.586,18.079 L16.586,20.658 L16.586,20.658 Z" id="Fill-2" fill="#FFFFFF" sketch:type="MSShapeGroup"></path>
            <path d="M52.334,12.412 C53.806,12.13 55.936,11.942 58.16,11.942 C61.197,11.942 63.233,12.443 64.674,13.633 C65.833,14.604 66.491,16.076 66.491,17.893 C66.491,20.618 64.643,22.465 62.638,23.154 L62.638,23.248 C64.173,23.813 65.081,25.284 65.582,27.32 C66.272,29.951 66.835,32.394 67.242,33.208 L63.296,33.208 C62.983,32.582 62.45,30.859 61.887,28.228 C61.26,25.473 60.289,24.596 58.097,24.532 L56.155,24.532 L56.155,33.208 L52.334,33.208 L52.334,12.412 L52.334,12.412 Z M56.155,21.714 L58.441,21.714 C61.041,21.714 62.638,20.335 62.638,18.237 C62.638,15.951 61.041,14.855 58.535,14.855 C57.314,14.855 56.531,14.949 56.155,15.043 L56.155,21.714 L56.155,21.714 Z" id="Fill-3" fill="#333333" sketch:type="MSShapeGroup"></path>
            <path d="M75.103,33.553 C70.812,33.553 67.461,30.608 67.461,25.691 C67.461,20.68 70.75,17.611 75.354,17.611 C79.895,17.611 82.933,20.806 82.933,25.441 C82.933,31.047 78.986,33.553 75.134,33.553 L75.103,33.553 L75.103,33.553 Z M75.228,30.766 C77.42,30.766 78.955,28.635 78.955,25.535 C78.955,23.154 77.89,20.398 75.259,20.398 C72.535,20.398 71.439,23.06 71.439,25.598 C71.439,28.541 72.911,30.766 75.197,30.766 L75.228,30.766 L75.228,30.766 Z" id="Fill-4" fill="#333333" sketch:type="MSShapeGroup"></path>
            <path d="M84.687,29.638 C85.533,30.17 87.192,30.766 88.57,30.766 C90.262,30.766 91.014,30.045 91.014,29.043 C91.014,28.009 90.387,27.508 88.508,26.818 C85.533,25.816 84.311,24.188 84.311,22.372 C84.311,19.678 86.535,17.611 90.074,17.611 C91.766,17.611 93.237,18.018 94.146,18.519 L93.362,21.212 C92.736,20.837 91.483,20.335 90.137,20.335 C88.758,20.335 88.007,21.025 88.007,21.964 C88.007,22.935 88.727,23.373 90.669,24.094 C93.457,25.065 94.709,26.475 94.74,28.73 C94.74,31.517 92.58,33.522 88.539,33.522 C86.691,33.522 85.031,33.082 83.904,32.457 L84.687,29.638" id="Fill-5" fill="#333333" sketch:type="MSShapeGroup"></path>
            <path d="M99.689,26.662 C99.782,29.418 101.943,30.608 104.387,30.608 C106.172,30.608 107.424,30.326 108.614,29.92 L109.178,32.551 C107.863,33.114 106.047,33.522 103.854,33.522 C98.905,33.522 95.992,30.483 95.992,25.816 C95.992,21.588 98.56,17.611 103.447,17.611 C108.395,17.611 110.023,21.683 110.023,25.033 C110.023,25.754 109.961,26.318 109.898,26.662 L99.689,26.662 L99.689,26.662 Z M106.391,23.969 C106.422,22.56 105.796,20.242 103.228,20.242 C100.848,20.242 99.845,22.403 99.689,23.969 L106.391,23.969 L106.391,23.969 Z" id="Fill-6" fill="#333333" sketch:type="MSShapeGroup"></path>
            <path d="M111.871,22.497 C111.871,20.743 111.809,19.271 111.746,17.956 L115.098,17.956 L115.285,20.242 L115.379,20.242 C116.068,19.052 117.729,17.611 120.266,17.611 C122.928,17.611 125.684,19.334 125.684,24.156 L125.684,33.208 L121.832,33.208 L121.832,24.596 C121.832,22.403 121.018,20.743 118.918,20.743 C117.384,20.743 116.319,21.839 115.912,22.998 C115.787,23.311 115.725,23.781 115.725,24.219 L115.725,33.208 L111.871,33.208 L111.871,22.497" id="Fill-7" fill="#333333" sketch:type="MSShapeGroup"></path>
            <path d="M129.285,33.208 L129.285,20.837 L127.218,20.837 L127.218,17.956 L129.285,17.956 L129.285,17.298 C129.285,15.325 129.817,13.352 131.133,12.099 C132.26,11.034 133.795,10.627 135.11,10.627 C136.145,10.627 136.958,10.815 137.553,11.002 L137.303,13.978 C136.864,13.821 136.363,13.696 135.643,13.696 C133.732,13.696 133.106,15.293 133.106,17.172 L133.106,17.956 L136.457,17.956 L136.457,20.837 L133.137,20.837 L133.137,33.208 L129.285,33.208" id="Fill-8" fill="#333333" sketch:type="MSShapeGroup"></path>
            <path d="M140.935,26.662 C141.029,29.418 143.19,30.608 145.633,30.608 C147.418,30.608 148.672,30.326 149.861,29.92 L150.426,32.551 C149.109,33.114 147.293,33.522 145.102,33.522 C140.152,33.522 137.24,30.483 137.24,25.816 C137.24,21.588 139.809,17.611 144.693,17.611 C149.643,17.611 151.272,21.683 151.272,25.033 C151.272,25.754 151.209,26.318 151.146,26.662 L140.935,26.662 L140.935,26.662 Z M147.638,23.969 C147.669,22.56 147.043,20.242 144.475,20.242 C142.094,20.242 141.092,22.403 140.935,23.969 L147.638,23.969 L147.638,23.969 Z" id="Fill-9" fill="#333333" sketch:type="MSShapeGroup"></path>
            <path d="M153.118,10.94 L156.971,10.94 L156.971,33.208 L153.118,33.208 L153.118,10.94 Z" id="Fill-10" fill="#333333" sketch:type="MSShapeGroup"></path>
            <path d="M173.977,10.94 L173.977,28.917 C173.977,30.483 174.04,32.174 174.103,33.208 L170.689,33.208 L170.501,30.797 L170.438,30.797 C169.529,32.488 167.682,33.553 165.49,33.553 C161.825,33.553 158.943,30.451 158.943,25.754 C158.912,20.649 162.107,17.611 165.772,17.611 C167.87,17.611 169.373,18.457 170.063,19.584 L170.125,19.584 L170.125,10.94 L173.977,10.94 L173.977,10.94 Z M170.125,24.314 C170.125,24 170.094,23.593 170.031,23.279 C169.687,21.808 168.465,20.586 166.711,20.586 C164.236,20.586 162.859,22.778 162.859,25.598 C162.859,28.416 164.236,30.451 166.68,30.451 C168.246,30.451 169.624,29.387 170,27.727 C170.094,27.383 170.125,27.007 170.125,26.6 L170.125,24.314 L170.125,24.314 Z" id="Fill-11" fill="#333333" sketch:type="MSShapeGroup"></path>
        </g>
    </g>
</svg>