<?xml version="1.0" encoding="UTF-8" standalone="no"?>
<svg width="200px" height="28px" viewBox="0 0 200 28" version="1.1" xmlns="http://www.w3.org/2000/svg" xmlns:xlink="http://www.w3.org/1999/xlink" xmlns:sketch="http://www.bohemiancoding.com/sketch/ns">
    <!-- Generator: Sketch 3.3.1 (12002) - http://www.bohemiancoding.com/sketch -->
    <title>slug</title>
    <desc>Created with Sketch.</desc>
    <defs></defs>
    <g id="Page-1" stroke="none" stroke-width="1" fill="none" fill-rule="evenodd" sketch:type="MSPage">
        <g id="slug" sketch:type="MSLayerGroup" fill="#1A1918">
            <path d="M88.4199524,18.6338803 L84.383829,4.74588026 L77.3750185,4.74588026 L77.3750185,26.9151013 L81.998807,26.9151013 L81.998807,13.1367434 L86.2231829,26.9151013 L90.6170155,26.9151013 L94.8410978,13.1367434 L94.8410978,26.9151013 L99.46518,26.9151013 L99.46518,4.74588026 L92.4560757,4.74588026 L88.4199524,18.6338803" id="Fill-26" sketch:type="MSShapeGroup"></path>
            <path d="M109.053139,9.38621711 C110.880452,9.38621711 111.731553,10.2403645 111.731553,12.0786382 L111.797926,18.5852487 L106.397045,18.5852487 L106.374725,12.0742171 C106.374725,10.2403645 107.225826,9.38621711 109.053139,9.38621711 L109.053139,9.38621711 Z M116.355342,12.0742171 C116.355342,7.21135395 113.89866,4.74588026 109.053139,4.74588026 C104.207618,4.74588026 101.750936,7.21135395 101.750936,12.0786382 L101.768264,13.9160276 L101.763858,26.9817118 L106.428176,26.9817118 L106.405268,23.1896276 L111.9433,23.2232276 L111.9433,26.9257118 L116.393227,26.9257118 L116.382948,13.8918592 L116.355342,12.0742171 L116.355342,12.0742171 Z" id="Fill-27" sketch:type="MSShapeGroup"></path>
            <path d="M141.064886,9.38621711 C142.892199,9.38621711 143.7433,10.2403645 143.7433,12.0786382 L143.809673,18.5852487 L138.408792,18.5852487 L138.386472,12.0742171 C138.386472,10.2403645 139.237574,9.38621711 141.064886,9.38621711 L141.064886,9.38621711 Z M148.367089,12.0742171 C148.367089,7.21135395 145.910408,4.74588026 141.064886,4.74588026 C136.219365,4.74588026 133.762684,7.21135395 133.762684,12.0786382 L133.780011,13.9160276 L133.775606,26.9817118 L138.440217,26.9817118 L138.417016,23.1896276 L143.955048,23.2232276 L143.955048,26.9257118 L148.404974,26.9257118 L148.394695,13.8918592 L148.367089,12.0742171 L148.367089,12.0742171 Z" id="Fill-28" sketch:type="MSShapeGroup"></path>
            <path d="M124.618778,4.74588026 C119.772963,4.74588026 117.316281,7.21194342 117.316281,12.0748066 L117.316281,19.5870592 C117.316281,24.4493329 119.772963,26.9151013 124.618778,26.9151013 C129.464299,26.9151013 131.92098,24.4493329 131.92098,19.5870592 L131.92098,14.1367855 L124.178249,14.1367855 L124.178249,18.7771224 L127.297192,18.7771224 L127.297192,19.5870592 C127.297192,21.4206171 126.445797,22.2747645 124.618778,22.2747645 C122.791465,22.2747645 121.94007,21.4206171 121.94007,19.5870592 L121.94007,12.0748066 C121.94007,10.2406592 122.791465,9.38651184 124.618778,9.38651184 C126.445797,9.38651184 127.297192,10.2406592 127.297192,12.0748066 L127.297192,12.5169118 L131.92098,12.5169118 L131.92098,12.0748066 C131.92098,7.21194342 129.464299,4.74588026 124.618778,4.74588026" id="Fill-29" sketch:type="MSShapeGroup"></path>
            <path d="M149.9154,9.38651184 L157.693374,9.38651184 L149.976781,22.4922803 L149.9154,22.5957329 L149.9154,26.9151013 L163.272522,26.9151013 L163.272522,22.2747645 L155.494842,22.2747645 L163.272522,9.06524868 L163.272522,4.74588026 L149.9154,4.74588026 L149.9154,9.38651184" id="Fill-30" sketch:type="MSShapeGroup"></path>
            <path d="M164.893374,4.74588026 L169.51775,4.74588026 L169.51775,26.9151013 L164.893374,26.9151013 L164.893374,4.74588026 Z" id="Fill-31" sketch:type="MSShapeGroup"></path>
            <path d="M181.043154,16.3782592 L175.524798,4.74588026 L171.060775,4.74588026 L171.060775,26.9151013 L175.686325,26.9151013 L175.686325,15.2833118 L181.204681,26.9151013 L185.665767,26.9151013 L185.665767,4.74588026 L181.043154,4.74588026 L181.043154,16.3782592" id="Fill-32" sketch:type="MSShapeGroup"></path>
            <path d="M199.947706,9.38651184 L199.947706,4.74588026 L187.213491,4.74588026 L187.213491,26.9151013 L199.947706,26.9151013 L199.947706,22.2747645 L191.836105,22.2747645 L191.836105,18.1508066 L198.699541,18.1508066 L198.699541,13.5104697 L191.836105,13.5104697 L191.836105,9.38651184 L199.947706,9.38651184" id="Fill-33" sketch:type="MSShapeGroup"></path>
            <path d="M16.8522578,6.11475013 C16.8522578,11.4459501 11.5303782,11.2652764 11.5303782,11.2652764 C11.5303782,9.36776066 9.91980555,8.76502382 9.01907133,8.79567645 C6.19821964,8.82573961 6.4980728,10.4518028 6.4980728,10.4518028 C6.55769101,12.4999291 10.2792769,12.9520554 12.0202461,13.403887 C13.7612152,13.8557186 14.6314061,14.0664554 15.5021844,15.0305396 C17.4522578,17.0182449 17.3024781,19.6985817 17.3024781,19.6985817 C17.36239,27.8916764 10.0963107,27.6063712 8.86899791,27.2886449 C6.90306546,26.7796343 4.85255151,24.816687 3.25666311,24.6507501 C1.33331509,24.4512133 0.135664578,25.4217817 0.135664578,25.4217817 C1.42641348,23.0417817 3.16679527,19.3372343 3.16679527,19.3372343 L3.23610511,19.3071712 C7.12861612,18.9219501 7.12861612,21.8693186 10.5115823,21.6373607 C11.6302314,21.5604343 11.8196587,20.4687291 11.8196587,20.4687291 L11.8196587,20.2615291 C11.8196587,18.5776975 9.94946781,18.3136133 8.47898323,17.8617817 C7.00820496,17.4096554 3.91686869,16.7771501 2.59645753,15.5124343 C1.275459,14.2471291 1.06547368,12.5305817 1.06547368,12.5305817 C1.06547368,5.03424487 6.854901,4.12704487 9.04902728,4.15710803 C11.2437409,4.18687645 12.6804517,4.8800975 13.6413915,5.33192908 C14.6014502,5.78317118 15.0516705,4.54851855 15.0516705,4.54851855 L16.8522578,6.11475013" id="Fill-34" sketch:type="MSShapeGroup"></path>
            <path d="M48.4977791,20.0686592 C48.4977791,24.1799434 45.5547542,27.7495013 40.1973386,27.7495013 C35.352111,27.7495013 31.8537263,24.256575 31.8537263,20.0589329 C31.8537263,15.8612908 31.8898496,4.95838553 31.8898496,4.95838553 L37.6178966,4.98255395 C37.6178966,4.98255395 37.628763,17.8604908 37.6540199,18.6492066 C37.6933738,19.8879855 38.0084986,21.7748908 40.5573973,21.7586803 C43.3203929,21.7404066 43.5905838,20.0686592 43.6337556,18.6636487 C43.6507894,18.1160276 43.669879,10.5185961 43.6337556,9.86339605 C43.5982196,9.20819605 43.1703195,8.38116447 42.7694384,8.38116447 L42.7694384,7.73068026 C42.7694384,7.73068026 43.9582784,8.16453289 46.0120229,3.86166974 C46.0120229,3.86166974 48.429644,7.73068026 50.5154003,7.73068026 L50.5870596,8.38116447 C50.5870596,8.38116447 48.4971917,8.49404868 48.4977791,10.4782171 L48.4977791,20.0686592" id="Fill-35" sketch:type="MSShapeGroup"></path>
            <path d="M60.2877938,4.18147898 C62.4825075,4.21154213 63.8566631,4.70021582 64.6695853,5.15676319 C65.5958702,5.67579477 66.2907307,4.5728895 66.2907307,4.5728895 L68.0910243,6.13941582 C68.0910243,11.4706158 62.7697321,11.679879 62.7697321,11.679879 C62.6275882,9.16312108 61.2325809,8.64733161 60.0554884,8.60783687 C59.5048276,8.58926845 59.6143724,8.65322634 59.3494678,8.67356319 C57.7817732,8.79470003 56.881039,10.4145737 56.4504957,11.3624474 C56.0196587,12.3103211 55.7259729,14.9128474 55.7259729,15.8471632 C55.7259729,16.8298158 55.9955765,19.3731 56.6684105,20.4099842 C57.3412446,21.4471632 56.5835354,20.4099842 56.5835354,20.4099842 C57.3359583,21.6785316 58.7303782,22.3567211 59.9791301,22.3416895 C63.0628305,22.3048474 63.8860317,20.1467842 63.8648863,18.0541527 L60.7198055,18.0473737 L60.7198055,14.0584053 L68.6992475,14.0584053 C68.6992475,14.0584053 68.8637116,20.3516263 67.3180434,23.0808895 C65.6308188,26.0683421 63.428763,27.3819842 59.5180434,27.4656895 L59.4640053,27.4656895 C56.6968981,27.4712895 54.2977791,26.262279 52.6466778,24.2050158 C50.9914649,22.1489316 50.0622431,19.273479 50.0622431,15.9105316 C50.0622431,12.4405948 50.9946954,9.51002634 52.6736969,7.4232895 C54.3479994,5.33537371 56.6413915,4.15082634 59.4675295,4.15642634 L60.2877938,4.18147898" id="Fill-36" sketch:type="MSShapeGroup"></path>
            <path d="M24.577368,21.7625118 L24.6140787,6.80785921 C24.6140787,6.80785921 24.2572505,0.664069737 28.0654737,0.692659211 L28.0058555,0.0300907895 C28.0058555,0.0300907895 19.0020376,0.545290789 18.9714942,8.40415395 C18.941832,16.2618382 18.931553,27.3961118 18.931553,27.3961118 L22.9374267,27.3961118 L22.9374267,27.4249961 L30.7409509,27.4249961 L30.7409509,21.7625118 L24.577368,21.7625118" id="Fill-37" sketch:type="MSShapeGroup"></path>
        </g>
    </g>
</svg>