<?xml version="1.0" encoding="UTF-8" standalone="no"?>
<svg width="245px" height="35px" viewBox="0 0 245 35" version="1.1" xmlns="http://www.w3.org/2000/svg" xmlns:xlink="http://www.w3.org/1999/xlink" xmlns:sketch="http://www.bohemiancoding.com/sketch/ns">
    <!-- Generator: Sketch 3.2.2 (9983) - http://www.bohemiancoding.com/sketch -->
    <title>stotion</title>
    <desc>Created with Sketch.</desc>
    <defs></defs>
    <g id="Page-1" stroke="none" stroke-width="1" fill="none" fill-rule="evenodd" sketch:type="MSPage">
        <g id="stotion" sketch:type="MSLayerGroup" fill="#333333">
            <path d="M14.3088235,14.9408824 C20.6273529,14.9408824 22.6552941,16.8494118 22.6552941,20.6047059 C22.6552941,26.2685294 18.0044118,27.4605882 11.1485294,27.4605882 C5.72352941,27.58 2.68264706,26.5670588 0.119411765,25.1361765 L0.477647059,21.4982353 C0.477647059,21.4982353 4.47176471,23.8823529 11.1485294,23.8823529 C16.3367647,23.8823529 18.7208824,23.1679412 18.7208824,20.9032353 C18.7208824,19.1738235 17.4094118,18.4573529 14.2491176,18.4573529 L8.34647059,18.4573529 C2.98117647,18.4573529 0,16.4911765 0,12.6761765 C0,8.50294118 3.63794118,6.35558824 11.2082353,6.35558824 C16.0382353,6.35558824 18.9,7.25117647 21.4035294,8.44323529 L21.2841176,11.7805882 C21.2841176,11.7805882 17.5288235,9.75470588 11.2082353,9.75470588 C5.36735294,9.75470588 3.87676471,11.0661765 3.87676471,12.4970588 C3.87676471,14.0473529 5.54441176,14.8811765 8.46588235,14.8811765 L14.3088235,14.9408824 Z M39.7044118,10.2302941 L39.7044118,27.1620588 L35.8894118,27.1620588 L35.8894118,10.2302941 L26.1717647,10.2302941 L26.6494118,6.65411765 L49.0061765,6.65411765 L49.4220588,10.2302941 L39.7044118,10.2302941 Z M80.1252941,16.8494118 C80.1252941,25.1958824 75.1182353,27.5202941 66.115,27.5202941 C57.3526471,27.5202941 52.5226471,24.8973529 52.5226471,16.8494118 C52.5226471,9.09794118 56.9347059,6.17647059 66.115,6.17647059 C74.9988235,6.17647059 80.1252941,8.02529412 80.1252941,16.8494118 L80.1252941,16.8494118 Z M76.0117647,16.8494118 C76.0117647,11.0064706 72.9708824,9.75470588 66.115,9.75470588 C59.7367647,9.75470588 56.6361765,11.4841176 56.6361765,16.8494118 C56.6361765,22.3938235 59.8561765,23.9420588 66.115,23.9420588 C73.0902941,23.9420588 76.0117647,22.75 76.0117647,16.8494118 L76.0117647,16.8494118 Z M96.7585294,10.2302941 L96.7585294,27.1620588 L92.9435294,27.1620588 L92.9435294,10.2302941 L83.2855882,10.2302941 L83.7014706,6.65411765 L106.058235,6.65411765 L106.535882,10.2302941 L96.7585294,10.2302941 Z M113.152941,6.65411765 L116.908235,6.65411765 L116.908235,27.1620588 L114.888529,27.1620588 L113.152941,27.1620588 L113.152941,6.65411765 Z M151.605588,16.8494118 C151.605588,25.1958824 146.656176,27.5202941 137.595294,27.5202941 C128.890588,27.5202941 124.062647,24.8973529 124.062647,16.8494118 C124.062647,9.09794118 128.415,6.17647059 137.595294,6.17647059 C146.536765,6.17647059 151.605588,8.02529412 151.605588,16.8494118 L151.605588,16.8494118 Z M147.551765,16.8494118 C147.551765,11.0064706 144.451176,9.75470588 137.595294,9.75470588 C131.217059,9.75470588 128.176176,11.4841176 128.176176,16.8494118 C128.176176,22.3938235 131.336471,23.9420588 137.595294,23.9420588 C144.570588,23.9420588 147.551765,22.75 147.551765,16.8494118 L147.551765,16.8494118 Z M179.267941,6.65411765 L179.267941,27.1620588 L173.365294,27.1620588 L161.442647,10.2302941 L161.323235,10.2302941 L161.323235,27.1620588 L157.506176,27.1620588 L157.506176,6.65411765 L163.767059,6.65411765 L175.391176,23.5858824 L175.450882,23.5858824 L175.450882,6.65411765 L179.267941,6.65411765 Z" id="Fill-2" sketch:type="MSShapeGroup"></path>
            <path d="M227.322941,0 C217.757647,0 210,7.75352941 210,17.3229412 C210,26.8882353 217.757647,34.6438235 227.322941,34.6438235 C236.888235,34.6438235 244.645882,26.8882353 244.645882,17.3229412 C244.645882,7.75352941 236.888235,0 227.322941,0 M227.250882,30.8802941 C219.727941,30.8802941 213.695588,24.8088235 213.695588,17.3229412 C213.695588,9.83294118 219.727941,3.76352941 227.250882,3.76352941 C236.005,3.76352941 236.005,30.8802941 227.250882,30.8802941" id="Fill-4" sketch:type="MSShapeGroup"></path>
        </g>
    </g>
</svg>