<?xml version="1.0" encoding="UTF-8" standalone="no"?>
<svg width="148px" height="15px" viewBox="0 0 148 15" version="1.1" xmlns="http://www.w3.org/2000/svg" xmlns:xlink="http://www.w3.org/1999/xlink" xmlns:sketch="http://www.bohemiancoding.com/sketch/ns">
    <!-- Generator: Sketch 3.3.1 (12002) - http://www.bohemiancoding.com/sketch -->
    <title>xmission</title>
    <desc>Created with Sketch.</desc>
    <defs></defs>
    <g id="Page-1" stroke="none" stroke-width="1" fill="none" fill-rule="evenodd" sketch:type="MSPage">
        <g id="xmission" sketch:type="MSLayerGroup" fill="#333333">
            <path d="M33.799,11.924 C33.927,12.049 34.135,12.049 34.262,11.924 L41.736,4.547 C41.86,4.422 41.966,4.465 41.966,4.641 L41.966,14.679 C41.966,14.855 42.112,15 42.292,15 L44.734,15 C44.916,15 45.06,14.855 45.06,14.679 L45.06,0.323 C45.06,0.146 44.916,0 44.734,0 L42.292,0 C42.112,0 41.86,0.103 41.736,0.229 L34.263,7.602 C34.136,7.727 33.927,7.727 33.8,7.602 L26.328,0.229 C26.199,0.103 25.948,0 25.767,0 L23.329,0 C23.148,0 23,0.146 23,0.323 L23,14.679 C23,14.855 23.148,15 23.329,15 L25.767,15 C25.948,15 26.095,14.855 26.095,14.679 L26.095,4.641 C26.095,4.465 26.199,4.422 26.328,4.547 L33.799,11.924" id="Fill-4" sketch:type="MSShapeGroup"></path>
            <path d="M53.095,14.679 C53.095,14.855 52.951,15 52.772,15 L51.876,15 L51.22,15 L50.33,15 C50.147,15 50,14.855 50,14.679 L50,7.823 L50,7.178 L50,0.323 C50,0.146 50.147,0 50.33,0 L51.22,0 L51.876,0 L52.772,0 C52.951,0 53.095,0.146 53.095,0.323 L53.095,7.178 L53.095,7.823 L53.095,14.679" id="Fill-5" sketch:type="MSShapeGroup"></path>
            <path d="M103.095,14.679 C103.095,14.855 102.948,15 102.769,15 L101.875,15 L101.219,15 L100.327,15 C100.146,15 100,14.855 100,14.679 L100,7.823 L100,7.178 L100,0.323 C100,0.146 100.146,0 100.327,0 L101.219,0 L101.875,0 L102.769,0 C102.948,0 103.095,0.146 103.095,0.323 L103.095,7.178 L103.095,7.823 L103.095,14.679" id="Fill-6" sketch:type="MSShapeGroup"></path>
            <path d="M111.861,2.855 C110.405,2.855 110.092,3.17 110.092,4.654 L110.092,10.344 C110.092,11.829 110.405,12.145 111.861,12.145 L121.792,12.145 C123.252,12.145 123.563,11.829 123.563,10.344 L123.563,4.654 C123.563,3.17 123.252,2.855 121.792,2.855 L111.861,2.855 L111.861,2.855 Z M126.657,10.48 C126.657,12.188 126.368,13.156 125.617,13.922 C124.867,14.686 123.871,15 122.235,15 L111.421,15 C109.784,15 108.79,14.686 108.039,13.922 C107.287,13.156 107,12.188 107,10.48 L107,4.52 C107,2.811 107.287,1.843 108.039,1.077 C108.79,0.315 109.784,0 111.421,0 L122.235,0 C123.871,0 124.867,0.315 125.617,1.077 C126.368,1.843 126.657,2.811 126.657,4.52 L126.657,10.48 L126.657,10.48 Z" id="Fill-7" sketch:type="MSShapeGroup"></path>
            <path d="M19.1878756,0.229 C19.3158756,0.103 19.2728756,0 19.0938756,0 L15.3718756,0 C15.1908756,0 14.9398756,0.103 14.8128756,0.229 L9.86387561,5.111 C9.73487561,5.238 9.52687561,5.238 9.39987561,5.111 L4.45087561,0.229 C4.32287561,0.103 4.07087561,0 3.89187561,0 L0.169875608,0 C-0.0101243915,0 -0.0541243915,0.103 0.0748756085,0.229 L7.21187561,7.271 C7.33787561,7.398 7.33787561,7.603 7.21187561,7.728 L0.0718756085,14.771 C-0.0541243915,14.896 -0.0101243915,15 0.169875608,15 L3.89187561,15 C4.07087561,15 4.32287561,14.896 4.45087561,14.771 L9.39987561,9.89 C9.52687561,9.763 9.73487561,9.763 9.86387561,9.89 L14.8128756,14.771 C14.9398756,14.896 15.1908756,15 15.3718756,15 L19.0938756,15 C19.2728756,15 19.3158756,14.896 19.1878756,14.771 L12.0508756,7.728 C11.9258756,7.603 11.9258756,7.398 12.0508756,7.271 L19.1878756,0.229" id="Fill-8" sketch:type="MSShapeGroup"></path>
            <path d="M147.678,15 C147.855,15 148.001,14.855 148.001,14.679 L148.001,0.323 C148.001,0.146 147.855,0 147.678,0 L145.235,0 C145.055,0 144.909,0.146 144.909,0.323 L144.909,10.353 C144.909,10.532 144.805,10.573 144.675,10.448 L140.827,6.651 C140.699,6.525 140.492,6.32 140.364,6.195 L134.325,0.236 C134.196,0.109 133.947,0.005 133.768,0.005 L131.325,0 C131.146,0 131,0.146 131,0.323 L131,14.679 C131,14.855 131.146,15 131.325,15 L133.768,15 C133.947,15 134.094,14.855 134.094,14.679 L134.094,4.649 C134.094,4.469 134.196,4.428 134.325,4.555 L138.175,8.353 C138.305,8.478 138.511,8.684 138.638,8.809 L144.675,14.766 C144.805,14.893 145.055,14.996 145.235,14.996 L147.678,15" id="Fill-9" sketch:type="MSShapeGroup"></path>
            <path d="M95.649,7.151 C94.92,6.387 93.926,6.072 92.267,6.072 L82.907,6.072 C81.535,6.072 81.14,5.734 81.14,4.565 L81.14,4.363 C81.14,3.192 81.535,2.855 82.907,2.855 L95.236,2.855 C95.417,2.855 95.565,2.712 95.565,2.535 L95.565,0.323 C95.565,0.146 95.417,0 95.236,0 L82.422,0 C80.762,0 79.767,0.315 79.041,1.077 C78.378,1.775 78,2.855 78,4.048 L78,4.88 C78,6.072 78.378,7.151 79.041,7.826 C79.767,8.591 80.762,8.904 82.422,8.904 L91.78,8.904 C93.152,8.904 93.55,9.242 93.55,10.412 L93.55,10.637 C93.55,11.807 93.152,12.145 91.78,12.145 L79.779,12.145 C79.599,12.145 79.453,12.289 79.453,12.467 L79.453,14.679 C79.453,14.855 79.599,15 79.779,15 L92.267,15 C93.926,15 94.92,14.686 95.649,13.922 C96.313,13.223 96.687,12.145 96.687,10.952 L96.687,10.119 C96.687,8.904 96.313,7.826 95.649,7.151" id="Fill-10" sketch:type="MSShapeGroup"></path>
            <path d="M73.652,7.151 C72.923,6.387 71.926,6.072 70.27,6.072 L60.908,6.072 C59.538,6.072 59.143,5.734 59.143,4.565 L59.143,4.363 C59.143,3.192 59.538,2.855 60.908,2.855 L73.239,2.855 C73.42,2.855 73.566,2.712 73.566,2.535 L73.566,0.323 C73.566,0.146 73.42,0 73.239,0 L60.426,0 C58.766,0 57.771,0.315 57.04,1.077 C56.381,1.775 56,2.855 56,4.048 L56,4.88 C56,6.072 56.381,7.151 57.04,7.826 C57.771,8.591 58.766,8.904 60.426,8.904 L69.783,8.904 C71.152,8.904 71.554,9.242 71.554,10.412 L71.554,10.637 C71.554,11.807 71.152,12.145 69.783,12.145 L57.781,12.145 C57.602,12.145 57.454,12.289 57.454,12.467 L57.454,14.679 C57.454,14.855 57.602,15 57.781,15 L70.27,15 C71.926,15 72.923,14.686 73.652,13.922 C74.314,13.223 74.692,12.145 74.692,10.952 L74.692,10.119 C74.692,8.904 74.314,7.826 73.652,7.151" id="Fill-11" sketch:type="MSShapeGroup"></path>
        </g>
    </g>
</svg>